<svg width="344" height="690" viewBox="0 0 344 690" fill="none" xmlns="http://www.w3.org/2000/svg">
<mask id="path-1-inside-1" fill="white">
<path d="M345 0C299.694 -5.40269e-07 254.832 8.92369 212.974 26.2616C171.117 43.5994 133.084 69.0119 101.048 101.048C69.0119 133.084 43.5994 171.117 26.2616 212.974C8.92369 254.832 -1.44012e-06 299.694 0 345C1.44012e-06 390.306 8.92369 435.168 26.2616 477.026C43.5994 518.883 69.012 556.916 101.048 588.952C133.084 620.988 171.117 646.401 212.974 663.738C254.832 681.076 299.694 690 345 690L345 345V0Z"/>
</mask>
<path d="M345 0C299.694 -5.40269e-07 254.832 8.92369 212.974 26.2616C171.117 43.5994 133.084 69.0119 101.048 101.048C69.0119 133.084 43.5994 171.117 26.2616 212.974C8.92369 254.832 -1.44012e-06 299.694 0 345C1.44012e-06 390.306 8.92369 435.168 26.2616 477.026C43.5994 518.883 69.012 556.916 101.048 588.952C133.084 620.988 171.117 646.401 212.974 663.738C254.832 681.076 299.694 690 345 690L345 345V0Z" stroke="#C6C8E2" stroke-opacity="0.5" stroke-width="2" mask="url(#path-1-inside-1)"/>
</svg>
