<svg width="565" height="430" viewBox="0 0 565 430" fill="none" xmlns="http://www.w3.org/2000/svg">
<path d="M74.3532 424.675C73.9301 424.675 73.5071 424.464 73.1898 424.041C71.709 421.503 70.2283 418.859 68.6418 416.004C68.3246 415.37 68.5361 414.63 69.1707 414.207C69.8053 413.889 70.5456 414.101 70.9687 414.735C72.4494 417.485 73.9301 420.128 75.4108 422.666C75.7281 423.301 75.5166 424.041 74.9878 424.464C74.7763 424.57 74.5647 424.675 74.3532 424.675ZM539.933 419.705C539.828 419.705 539.828 419.705 539.722 419.705C538.982 419.6 538.453 418.965 538.559 418.225C538.876 415.476 539.299 412.515 539.933 409.131C540.039 408.391 540.78 407.968 541.414 408.073C542.155 408.179 542.578 408.919 542.472 409.554C541.943 412.938 541.414 415.898 541.097 418.542C541.097 419.177 540.568 419.705 539.933 419.705ZM65.5746 408.602C65.1516 408.602 64.6228 408.391 64.4112 407.862C63.0363 405.218 61.6613 402.469 60.2864 399.614C59.9691 398.979 60.2864 398.133 60.921 397.922C61.5555 397.604 62.4017 397.922 62.6132 398.556C63.9882 401.306 65.3631 404.055 66.6323 406.699C66.9496 407.333 66.7381 408.179 66.1035 408.496C65.9977 408.602 65.7862 408.602 65.5746 408.602ZM542.895 401.623C542.789 401.623 542.683 401.623 542.683 401.623C541.943 401.517 541.52 400.777 541.626 400.142C542.154 397.181 542.789 394.221 543.424 391.154C543.529 390.414 544.27 389.991 545.01 390.096C545.751 390.202 546.174 390.942 546.068 391.683C545.433 394.749 544.799 397.71 544.27 400.671C544.058 401.2 543.529 401.623 542.895 401.623ZM57.6422 392.211C57.1134 392.211 56.6903 391.894 56.4788 391.471C55.2096 388.722 53.9404 385.867 52.777 383.117C52.4597 382.483 52.777 381.637 53.4116 381.425C54.0462 381.108 54.8923 381.425 55.1038 382.06C56.2673 384.809 57.5365 387.664 58.8056 390.414C59.1229 391.048 58.8056 391.894 58.171 392.106C57.9595 392.106 57.748 392.211 57.6422 392.211ZM546.597 383.752C546.491 383.752 546.385 383.752 546.279 383.752C545.539 383.646 545.116 382.906 545.327 382.166L547.231 373.177C547.337 372.437 548.077 372.014 548.818 372.225C549.558 372.331 549.981 373.071 549.77 373.812L547.866 382.694C547.76 383.329 547.231 383.752 546.597 383.752ZM50.3444 375.398C49.8156 375.398 49.3925 375.081 49.181 374.552C48.0175 371.697 46.8541 368.842 45.7965 366.092C45.5849 365.458 45.9022 364.612 46.5368 364.4C47.1714 364.189 47.9118 364.506 48.2291 365.14C49.2867 367.996 50.4502 370.745 51.6136 373.6C51.9309 374.235 51.6136 375.081 50.8732 375.292C50.6617 375.398 50.5559 375.398 50.3444 375.398ZM550.404 365.881C550.299 365.881 550.193 365.881 550.087 365.881C549.347 365.775 548.924 365.035 549.029 364.294C549.664 361.228 550.298 358.267 550.827 355.306C550.933 354.566 551.673 354.143 552.414 354.249C553.154 354.354 553.577 355.095 553.471 355.835C552.837 358.796 552.308 361.757 551.673 364.823C551.568 365.458 551.039 365.881 550.404 365.881ZM43.6812 358.373C43.1523 358.373 42.6235 358.055 42.412 357.527C41.3543 354.672 40.2967 351.711 39.3448 348.856C39.1332 348.221 39.4505 347.481 40.1909 347.164C40.8255 346.952 41.5658 347.269 41.8831 348.01C42.835 350.865 43.8927 353.72 44.9503 356.575C45.1619 357.21 44.8446 357.95 44.21 358.267C43.9985 358.373 43.8927 358.373 43.6812 358.373ZM554 348.01C553.894 348.01 553.894 348.01 553.789 348.01C553.048 347.904 552.625 347.164 552.731 346.529C553.366 343.251 553.789 340.29 554.212 337.541C554.318 336.801 554.952 336.378 555.693 336.483C556.433 336.589 556.856 337.224 556.75 337.964C556.327 340.713 555.798 343.674 555.164 347.058C555.164 347.481 554.635 348.01 554 348.01ZM37.7583 341.136C37.2295 341.136 36.7006 340.819 36.4891 340.184C35.5372 337.224 34.5853 334.263 33.7392 331.408C33.5277 330.667 33.9507 330.033 34.5853 329.821C35.3257 329.61 35.9603 330.033 36.1718 330.667C37.0179 333.522 37.9698 336.483 38.8159 339.338C39.0275 339.973 38.7102 340.713 37.9698 341.03C38.0756 341.136 37.8641 341.136 37.7583 341.136ZM556.75 329.927H556.644C555.904 329.821 555.375 329.187 555.481 328.447C555.693 326.649 555.798 324.957 555.904 323.477C555.904 322.208 555.904 320.833 555.798 319.458C555.798 318.718 556.327 318.084 557.068 318.084C557.808 318.084 558.442 318.612 558.442 319.352C558.548 320.727 558.548 322.208 558.548 323.477C558.442 325.063 558.337 326.755 558.125 328.658C557.914 329.398 557.385 329.927 556.75 329.927ZM32.5758 323.582C32.0469 323.582 31.5181 323.159 31.3066 322.631C30.4605 319.67 29.7201 316.709 28.9797 313.748C28.7682 313.008 29.1913 312.373 29.9316 312.162C30.672 311.95 31.3066 312.373 31.5181 313.113C32.2585 315.969 32.9988 318.93 33.7392 321.89C33.9507 322.631 33.5277 323.265 32.7873 323.477C32.7873 323.582 32.6815 323.582 32.5758 323.582ZM556.116 311.633C555.481 311.633 554.952 311.21 554.846 310.47C554.423 307.615 553.895 304.654 553.154 301.587C552.943 300.847 553.471 300.212 554.106 300.001C554.846 299.79 555.481 300.318 555.693 300.953C556.433 304.019 556.962 307.086 557.385 310.047C557.491 310.787 556.962 311.422 556.327 311.527C556.221 311.633 556.221 311.633 556.116 311.633ZM28.2394 305.817C27.6048 305.817 27.076 305.394 26.9702 304.76C26.3356 301.693 25.701 298.732 25.1722 295.771C25.0664 295.031 25.4895 294.396 26.2298 294.291C26.9702 294.185 27.6048 294.608 27.7106 295.348C28.2394 298.203 28.7682 301.27 29.5086 304.231C29.6143 304.971 29.1913 305.606 28.5567 305.817C28.4509 305.817 28.3451 305.817 28.2394 305.817ZM552.096 293.868C551.568 293.868 551.039 293.55 550.827 292.916C549.981 290.167 549.029 287.206 547.972 284.351C547.76 283.716 548.077 282.976 548.712 282.659C549.347 282.447 550.087 282.764 550.404 283.399C551.462 286.36 552.414 289.321 553.26 292.176C553.471 292.916 553.048 293.55 552.414 293.762C552.308 293.868 552.202 293.868 552.096 293.868ZM25.0664 287.84C24.4318 287.84 23.903 287.417 23.7972 286.677C23.3742 283.505 23.0569 280.438 22.7396 277.583C22.6338 276.843 23.1626 276.208 23.903 276.208C24.6433 276.102 25.2779 276.631 25.2779 277.371C25.5952 280.226 25.9125 283.293 26.3356 286.36C26.4414 287.1 25.9125 287.734 25.1722 287.84C25.1722 287.84 25.1722 287.84 25.0664 287.84ZM545.962 276.737C545.433 276.737 545.01 276.42 544.799 275.891C544.587 275.468 544.376 274.939 544.27 274.516C543.212 272.19 542.26 269.863 541.203 267.537C540.885 266.903 541.203 266.057 541.837 265.845C542.472 265.528 543.318 265.845 543.529 266.48C544.587 268.806 545.539 271.132 546.597 273.459C546.808 273.988 547.02 274.41 547.231 274.939C547.549 275.574 547.231 276.42 546.491 276.631C546.279 276.631 546.174 276.737 545.962 276.737ZM23.3742 269.652C22.6338 269.652 22.105 269.123 22.105 268.383C21.9992 266.691 21.9992 264.999 21.9992 263.307C21.9992 261.932 21.9992 260.452 22.105 259.077C22.105 258.337 22.7396 257.703 23.4799 257.808C24.2203 257.808 24.7491 258.443 24.7491 259.183C24.7491 260.558 24.6433 261.932 24.6433 263.307C24.6433 264.893 24.6433 266.585 24.7491 268.277C24.7491 269.017 24.2203 269.652 23.3742 269.652C23.4799 269.652 23.4799 269.652 23.3742 269.652ZM538.664 259.923C538.135 259.923 537.712 259.606 537.501 259.183C536.337 256.328 535.068 253.579 534.011 250.723C533.693 250.089 534.011 249.243 534.751 249.031C535.386 248.714 536.232 249.031 536.443 249.772C537.607 252.627 538.77 255.376 539.933 258.126C540.251 258.76 539.933 259.606 539.299 259.818C538.982 259.923 538.77 259.923 538.664 259.923ZM24.3261 251.464C24.2203 251.464 24.2203 251.464 24.1145 251.464C23.3742 251.358 22.9511 250.723 23.0569 249.983C23.5857 246.917 24.3261 243.85 25.1722 240.889C25.3837 240.149 26.1241 239.832 26.7587 240.043C27.499 240.255 27.8163 240.995 27.6048 241.629C26.7587 244.484 26.0183 247.445 25.5952 250.3C25.4895 251.041 24.9606 251.464 24.3261 251.464ZM531.789 243.004C531.261 243.004 530.732 242.687 530.52 242.158C529.357 239.091 528.405 236.342 527.453 233.487C527.242 232.852 527.559 232.112 528.299 231.795C528.934 231.583 529.674 231.901 529.991 232.641C530.943 235.39 531.895 238.245 533.059 241.206C533.27 241.841 532.953 242.581 532.318 242.898C532.107 243.004 531.895 243.004 531.789 243.004ZM29.6143 234.016C29.4028 234.016 29.297 234.016 29.0855 233.91C28.4509 233.593 28.1336 232.852 28.4509 232.218C29.7201 229.468 31.2008 226.719 32.8931 224.075C33.3161 223.441 34.0565 223.229 34.6911 223.652C35.3257 224.075 35.5372 224.816 35.1141 225.45C33.5277 227.988 32.0469 230.632 30.8835 233.381C30.5662 233.698 30.1432 234.016 29.6143 234.016ZM525.867 225.767C525.338 225.767 524.809 225.45 524.597 224.816C523.751 221.855 522.905 218.788 522.165 215.933C521.953 215.193 522.376 214.558 523.117 214.347C523.857 214.135 524.492 214.558 524.703 215.299C525.444 218.154 526.184 221.115 527.03 224.075C527.242 224.816 526.819 225.45 526.184 225.662C526.184 225.767 525.972 225.767 525.867 225.767ZM39.239 218.577C38.9217 218.577 38.7102 218.471 38.3929 218.259C37.864 217.836 37.7583 216.99 38.1813 216.462C40.0851 214.135 42.0947 211.809 44.3158 209.588C44.8446 209.06 45.6907 209.06 46.1138 209.588C46.6426 210.117 46.6426 210.963 46.1138 211.386C43.9985 213.501 41.9889 215.827 40.0851 218.048C39.9794 218.365 39.6621 218.577 39.239 218.577ZM521.53 208.002C520.896 208.002 520.367 207.579 520.261 206.945C519.944 205.041 519.521 203.032 519.309 201.129C519.203 199.965 519.098 198.802 519.098 197.745C519.098 197.004 519.626 196.37 520.367 196.37C521.001 196.37 521.742 196.899 521.742 197.639C521.848 198.696 521.848 199.754 521.953 200.811C522.271 202.609 522.588 204.618 522.905 206.522C523.011 207.262 522.588 207.896 521.848 208.002C521.742 208.002 521.636 208.002 521.53 208.002ZM52.1424 205.676C51.8251 205.676 51.4021 205.57 51.1905 205.253C50.7675 204.724 50.7675 203.878 51.2963 203.455C53.6231 201.446 55.95 199.542 58.3826 197.639C58.9114 197.216 59.7575 197.322 60.1806 197.85C60.6037 198.379 60.4979 199.225 59.9691 199.648C57.6422 201.552 55.2096 203.455 52.9885 205.464C52.777 205.57 52.4597 205.676 52.1424 205.676ZM66.4208 194.255C65.9977 194.255 65.6804 194.044 65.3631 193.726C64.94 193.198 65.0458 192.352 65.5746 191.929C68.0073 190.131 70.4399 188.228 72.9782 186.536C73.6128 186.113 74.3532 186.218 74.7762 186.853C75.1993 187.487 75.0935 188.228 74.459 188.651C72.0263 190.448 69.488 192.246 67.1611 194.044C66.9496 194.149 66.6323 194.255 66.4208 194.255ZM520.367 189.814C520.367 189.814 520.261 189.814 520.367 189.814C519.626 189.814 518.992 189.179 519.098 188.439C519.203 185.372 519.521 182.306 519.732 179.239C519.838 178.499 520.367 177.97 521.107 178.076C521.848 178.182 522.376 178.816 522.271 179.451C522.059 182.517 521.742 185.478 521.636 188.545C521.636 189.285 521.001 189.814 520.367 189.814ZM81.228 183.575C80.8049 183.575 80.3818 183.363 80.1703 183.046C79.7472 182.412 79.9588 181.671 80.4876 181.248C83.026 179.556 85.5643 177.864 88.2085 176.278C88.8431 175.855 89.5834 176.067 90.0065 176.701C90.4296 177.336 90.218 178.076 89.5834 178.499C87.0451 180.085 84.4009 181.777 81.9683 183.469C81.7568 183.575 81.5453 183.575 81.228 183.575ZM96.6697 173.846C96.2467 173.846 95.8236 173.635 95.5063 173.212C95.189 172.577 95.2948 171.837 95.9294 171.414C98.5735 169.828 101.218 168.347 103.862 166.867C104.496 166.55 105.237 166.761 105.66 167.396C105.977 168.03 105.766 168.77 105.131 169.193C102.487 170.674 99.8427 172.154 97.1986 173.74C97.1986 173.846 96.987 173.846 96.6697 173.846ZM521.636 171.625C520.79 171.625 520.261 170.991 520.367 170.251C520.473 167.713 520.578 165.386 520.578 163.166L520.367 161.368C520.261 160.628 520.79 159.993 521.53 159.888C522.271 159.782 522.905 160.311 523.011 161.051L523.223 162.954C523.223 163.06 523.223 163.06 523.223 163.166C523.223 165.386 523.117 167.819 523.011 170.462C522.905 171.097 522.376 171.625 521.636 171.625ZM112.64 165.069C112.217 165.069 111.688 164.858 111.477 164.329C111.16 163.695 111.371 162.954 112.006 162.531C114.65 161.157 117.4 159.782 120.15 158.407C120.784 158.09 121.525 158.407 121.948 159.042C122.265 159.676 121.948 160.522 121.313 160.839C118.563 162.214 115.813 163.589 113.169 164.963C113.063 164.963 112.852 165.069 112.64 165.069ZM129.034 156.927C128.505 156.927 128.082 156.61 127.871 156.187C127.553 155.552 127.871 154.706 128.505 154.495C130.62 153.543 132.736 152.591 134.957 151.639L136.12 150.476C136.649 149.948 137.495 149.948 137.918 150.476C138.447 151.005 138.447 151.851 137.918 152.274L136.649 153.543C136.543 153.649 136.438 153.754 136.226 153.86C134.005 154.812 131.784 155.869 129.669 156.821C129.457 156.927 129.246 156.927 129.034 156.927ZM520.261 153.543C519.626 153.543 519.098 153.12 518.992 152.485C518.357 149.313 517.511 146.458 516.559 143.92C516.242 143.286 516.665 142.44 517.3 142.228C517.934 141.911 518.78 142.334 518.992 142.968C520.05 145.612 520.896 148.573 521.636 151.957C521.742 152.697 521.319 153.331 520.578 153.543C520.367 153.543 520.367 153.543 520.261 153.543ZM144.37 147.304C143.947 147.304 143.524 147.092 143.207 146.669C142.889 146.035 142.995 145.295 143.63 144.872C146.697 143.074 149.129 141.488 151.245 140.007C151.879 139.584 152.62 139.69 153.043 140.325C153.466 140.959 153.36 141.699 152.725 142.122C150.504 143.709 148.072 145.295 144.899 147.092C144.793 147.304 144.582 147.304 144.37 147.304ZM513.28 136.729C512.857 136.729 512.434 136.518 512.223 136.201C511.694 135.46 511.059 134.614 510.425 133.98C509.05 132.499 507.675 131.019 506.3 129.539C505.771 129.01 505.771 128.164 506.3 127.741C506.829 127.212 507.675 127.212 508.098 127.741C509.579 129.221 510.954 130.702 512.329 132.288C512.963 133.134 513.704 133.874 514.232 134.72C514.655 135.355 514.55 136.095 513.915 136.518C513.809 136.729 513.598 136.729 513.28 136.729ZM159.071 136.624C158.754 136.624 158.437 136.518 158.12 136.201C157.591 135.672 157.591 134.826 158.12 134.403C160.129 132.499 161.716 130.596 163.302 128.481C163.302 128.375 163.408 128.375 163.408 128.27C163.619 128.058 163.937 127.741 164.148 127.529C164.677 127.001 165.523 127.106 165.946 127.635C166.475 128.164 166.369 129.01 165.84 129.433C165.629 129.644 165.417 129.856 165.206 129.962C163.619 132.182 161.821 134.191 159.812 136.201C159.706 136.518 159.389 136.624 159.071 136.624ZM172.186 124.04C171.869 124.04 171.552 123.934 171.234 123.617C170.706 123.088 170.706 122.242 171.234 121.819L171.34 121.713C173.033 119.704 174.831 117.378 176.946 114.734C177.369 114.205 178.215 114.1 178.744 114.523C179.273 114.946 179.378 115.792 178.955 116.32C176.84 118.964 175.042 121.29 173.244 123.405L173.138 123.511C172.821 123.934 172.504 124.04 172.186 124.04ZM500.589 123.723C500.271 123.723 499.954 123.617 499.743 123.405C497.521 121.502 495.089 119.704 492.55 117.907C491.916 117.484 491.81 116.638 492.233 116.109C492.656 115.474 493.502 115.369 494.031 115.792C496.57 117.589 499.002 119.493 501.329 121.396C501.858 121.819 501.964 122.665 501.435 123.194C501.329 123.617 501.012 123.723 500.589 123.723ZM485.676 113.254C485.464 113.254 485.253 113.148 485.041 113.042C482.926 111.773 480.599 110.61 478.272 109.447C477.955 109.341 477.426 109.13 477.003 108.918C476.368 108.601 476.051 107.861 476.263 107.226C476.58 106.592 477.32 106.275 477.955 106.486C478.378 106.697 478.801 106.909 479.224 107.015C481.657 108.178 483.983 109.447 486.099 110.716C486.733 111.033 486.945 111.879 486.522 112.514C486.522 113.042 486.099 113.254 485.676 113.254ZM183.503 109.764C183.186 109.764 182.974 109.658 182.657 109.447C182.128 109.024 182.023 108.178 182.446 107.649L184.455 105.111C185.619 103.525 186.888 102.045 188.051 100.458C188.474 99.9297 189.32 99.824 189.849 100.247C190.378 100.67 190.484 101.516 190.061 102.045C188.897 103.631 187.628 105.111 186.465 106.697L184.455 109.235C184.349 109.553 183.926 109.764 183.503 109.764ZM469.07 105.746C468.965 105.746 468.753 105.746 468.647 105.64C465.898 104.688 462.936 103.737 459.975 102.891C459.234 102.679 458.917 101.939 459.129 101.304C459.34 100.564 460.08 100.247 460.715 100.458C463.676 101.304 466.638 102.256 469.494 103.314C470.128 103.525 470.551 104.265 470.34 105.006C470.022 105.429 469.599 105.746 469.07 105.746ZM451.513 100.67C451.408 100.67 451.302 100.67 451.196 100.67C448.34 99.9297 445.485 99.2953 442.312 98.6608C441.571 98.5551 441.148 97.8148 441.254 97.0746C441.36 96.3344 442.1 95.9114 442.841 96.0172C446.014 96.6516 448.975 97.3918 451.831 98.0263C452.571 98.2378 452.994 98.8723 452.783 99.6125C452.677 100.247 452.148 100.67 451.513 100.67ZM433.639 96.8631C433.533 96.8631 433.427 96.8631 433.427 96.8631C430.466 96.3344 427.505 95.8057 424.437 95.2769C423.697 95.1712 423.274 94.431 423.38 93.7965C423.485 93.0563 424.226 92.6333 424.86 92.739C427.822 93.2678 430.889 93.7965 433.851 94.3252C434.591 94.431 435.014 95.1712 434.908 95.8057C434.802 96.4401 434.274 96.8631 433.639 96.8631ZM194.82 95.3827C194.503 95.3827 194.291 95.2769 193.974 95.0654C193.445 94.6425 193.339 93.7965 193.763 93.2678C195.878 90.6241 197.782 88.2977 199.58 86.1828C200.003 85.6541 200.849 85.5483 201.378 86.077C201.907 86.5 202.012 87.346 201.483 87.8747C199.685 89.9896 197.782 92.316 195.666 94.9597C195.561 95.1712 195.243 95.3827 194.82 95.3827ZM415.659 93.6907C415.553 93.6907 415.553 93.6907 415.447 93.6907C412.486 93.162 409.419 92.6333 406.457 92.1045C405.717 91.9988 405.294 91.2586 405.4 90.6241C405.505 89.8839 406.14 89.4609 406.88 89.5666C409.842 90.0954 412.909 90.6241 415.87 91.1528C416.611 91.2586 417.034 91.9988 416.928 92.6333C416.822 93.2678 416.293 93.6907 415.659 93.6907ZM397.679 90.5184C397.573 90.5184 397.467 90.5184 397.467 90.5184C394.294 89.8839 391.333 89.2494 388.477 88.6149C387.737 88.5092 387.314 87.769 387.525 87.0288C387.631 86.2885 388.371 85.8655 389.112 86.077C391.967 86.7115 394.823 87.346 397.996 87.8747C398.736 87.9805 399.159 88.7207 399.054 89.3552C398.842 90.0954 398.313 90.5184 397.679 90.5184ZM379.804 86.8173C379.699 86.8173 379.699 86.8173 379.593 86.8173C376.631 86.2885 373.564 85.5483 370.603 84.7023C369.862 84.4908 369.545 83.7506 369.651 83.1161C369.862 82.3759 370.603 82.0587 371.237 82.1644C374.199 83.0104 377.16 83.6449 380.016 84.1736C380.756 84.2794 381.179 85.0196 381.073 85.6541C380.968 86.3943 380.333 86.8173 379.804 86.8173ZM362.141 81.9529C362.036 81.9529 361.824 81.9529 361.718 81.8472C359.709 81.107 357.699 80.261 355.69 79.415C354.844 79.0978 353.997 78.6748 353.151 78.2518C352.517 77.9346 352.199 77.1944 352.517 76.5599C352.834 75.9254 353.574 75.6082 354.209 75.9254C355.055 76.3484 355.796 76.6657 356.642 76.9829C358.545 77.8289 360.555 78.5691 362.564 79.3093C363.199 79.5208 363.622 80.261 363.305 81.0012C363.199 81.6357 362.67 81.9529 362.141 81.9529ZM206.666 81.4242C206.349 81.4242 206.031 81.3185 205.82 81.107C205.291 80.5782 205.291 79.838 205.714 79.3093C207.935 76.8771 209.945 74.7622 212.06 72.6473C212.589 72.1186 213.435 72.1186 213.858 72.6473C214.387 73.176 214.387 74.022 213.858 74.445C211.743 76.4542 209.733 78.5691 207.618 81.0012C207.301 81.2127 206.983 81.4242 206.666 81.4242ZM345.536 74.5507C345.325 74.5507 345.113 74.5507 344.902 74.445C342.152 73.0703 339.508 71.6956 336.758 70.2152C336.123 69.8979 335.912 69.0519 336.229 68.4175C336.546 67.783 337.392 67.5715 338.027 67.8887C340.777 69.2634 343.421 70.7439 346.171 72.1186C346.805 72.4358 347.123 73.176 346.7 73.9163C346.382 74.2335 345.959 74.5507 345.536 74.5507ZM219.675 68.629C219.358 68.629 218.935 68.5232 218.723 68.206C218.3 67.6772 218.3 66.8313 218.829 66.4083C221.262 64.3991 223.694 62.39 226.127 60.698C226.761 60.275 227.502 60.3808 227.925 61.0153C228.348 61.6497 228.242 62.39 227.608 62.8129C225.281 64.5049 222.848 66.4083 220.521 68.4175C220.31 68.5232 219.992 68.629 219.675 68.629ZM329.354 66.0911C329.143 66.0911 328.931 66.0911 328.719 65.9853C326.075 64.6106 323.325 63.1302 320.681 61.7555C320.047 61.4382 319.729 60.5923 320.152 59.9578C320.47 59.3233 321.21 59.0061 321.951 59.4291C324.7 60.8038 327.345 62.1785 330.094 63.6589C330.729 63.9761 330.941 64.8221 330.623 65.4566C330.2 65.7738 329.777 66.0911 329.354 66.0911ZM234.482 58.0544C234.059 58.0544 233.636 57.8429 233.319 57.4199C233.002 56.7854 233.213 56.0452 233.742 55.6222C236.386 54.036 239.242 52.6613 241.992 51.3924C242.626 51.0751 243.472 51.3924 243.684 52.0269C244.001 52.6613 243.684 53.5073 243.049 53.7188C240.299 54.882 237.655 56.2567 235.011 57.8429C234.905 57.9486 234.694 58.0544 234.482 58.0544ZM312.96 57.8429C312.749 57.8429 312.643 57.8429 312.432 57.7371C309.47 56.3624 306.826 55.1992 304.076 54.1418C303.442 53.8245 303.124 53.0843 303.336 52.4498C303.653 51.8154 304.393 51.4981 305.028 51.7096C307.778 52.7671 310.528 53.9303 313.489 55.4107C314.124 55.728 314.441 56.4682 314.124 57.1027C313.912 57.6314 313.489 57.8429 312.96 57.8429ZM296.038 51.1809C295.932 51.1809 295.826 51.1809 295.615 51.0751C292.653 50.1234 289.692 49.3832 286.942 48.7487C286.202 48.643 285.779 47.9028 285.884 47.1625C285.99 46.4223 286.731 45.9993 287.471 46.1051C290.327 46.7396 293.394 47.4798 296.461 48.4315C297.096 48.643 297.519 49.3832 297.307 50.0177C297.096 50.7579 296.567 51.1809 296.038 51.1809ZM251.193 50.6522C250.664 50.6522 250.136 50.3349 249.924 49.7004C249.713 49.066 250.03 48.3258 250.77 48.0085C251.828 47.6913 252.991 47.374 254.049 47.0568C255.953 46.5281 257.857 46.1051 259.76 45.7878C260.501 45.6821 261.135 46.1051 261.241 46.8453C261.347 47.5855 260.924 48.22 260.183 48.3258C258.385 48.643 256.587 49.066 254.684 49.5947C253.626 49.9119 252.568 50.2292 251.405 50.5464C251.405 50.5464 251.299 50.6522 251.193 50.6522ZM278.164 47.4798H278.058C275.096 47.1625 272.135 47.1625 269.068 47.2683C268.327 47.2683 267.693 46.7396 267.693 45.9993C267.693 45.2591 268.222 44.6246 268.962 44.6246C272.029 44.5189 275.096 44.5189 278.269 44.8361C279.01 44.9419 279.538 45.5764 279.433 46.2108C279.433 46.9511 278.798 47.4798 278.164 47.4798Z" fill="#D4DAFF"/>
<path d="M5.92287 217.942C9.19399 217.942 11.8457 215.291 11.8457 212.02C11.8457 208.75 9.19399 206.099 5.92287 206.099C2.65176 206.099 0 208.75 0 212.02C0 215.291 2.65176 217.942 5.92287 217.942Z" fill="#A4B1F4"/>
<path d="M549.981 163.166C558.276 163.166 565 156.443 565 148.15C565 139.857 558.276 133.134 549.981 133.134C541.687 133.134 534.963 139.857 534.963 148.15C534.963 156.443 541.687 163.166 549.981 163.166Z" fill="#A4B1F4"/>
<path d="M546.068 142.228C555.063 142.228 562.356 134.937 562.356 125.943C562.356 116.949 555.063 109.658 546.068 109.658C537.072 109.658 529.78 116.949 529.78 125.943C529.78 134.937 537.072 142.228 546.068 142.228Z" stroke="#CDCDF9" stroke-width="1.2336" stroke-miterlimit="10"/>
<path d="M172.186 47.0568C177.969 47.0568 182.657 42.3698 182.657 36.588C182.657 30.8062 177.969 26.1191 172.186 26.1191C166.404 26.1191 161.716 30.8062 161.716 36.588C161.716 42.3698 166.404 47.0568 172.186 47.0568Z" fill="#A4B1F4"/>
<path d="M187.205 50.9695C193.339 50.9695 198.311 45.9983 198.311 39.8661C198.311 33.7339 193.339 28.7628 187.205 28.7628C181.072 28.7628 176.1 33.7339 176.1 39.8661C176.1 45.9983 181.072 50.9695 187.205 50.9695Z" stroke="#CDCDF9" stroke-width="1.2336" stroke-miterlimit="10"/>
<path d="M28.6625 186.641C32.2841 186.641 35.22 183.706 35.22 180.085C35.22 176.464 32.2841 173.529 28.6625 173.529C25.0409 173.529 22.105 176.464 22.105 180.085C22.105 183.706 25.0409 186.641 28.6625 186.641Z" stroke="#CDCDF9" stroke-width="1.2336" stroke-miterlimit="10"/>
<path d="M547.337 228.306C551.309 228.306 554.529 225.086 554.529 221.115C554.529 217.143 551.309 213.924 547.337 213.924C543.365 213.924 540.145 217.143 540.145 221.115C540.145 225.086 543.365 228.306 547.337 228.306Z" stroke="#A4B1F4" stroke-width="1.2336" stroke-miterlimit="10"/>
<path d="M415.553 142.863C415.553 142.863 412.274 66.5141 388.794 47.5856C365.314 28.7628 386.891 128.587 415.553 142.863Z" fill="#CDCDF9"/>
<path d="M408.784 132.923C401.592 122.983 399.054 109.87 401.909 97.9208C402.544 95.2771 403.496 92.5277 405.611 90.8358C407.832 88.9324 411.111 88.5094 414.072 89.0381C417.034 89.5668 419.678 90.9416 422.322 92.3162C421.37 86.2887 421.476 79.8382 421.582 73.8107C421.582 68.7349 422.005 63.4476 424.437 59.0063C426.87 54.565 431.735 51.0753 436.812 51.8156C442.523 52.5558 446.331 58.1603 449.292 63.1304C450.985 55.1994 455.109 47.1627 460.503 41.0295C465.474 35.3192 473.09 30.5606 480.493 32.6756C486.628 34.4732 490.752 40.7122 491.493 47.057C492.339 53.4018 490.435 59.8523 488.003 65.774C485.358 72.2245 482.08 78.4635 478.166 84.2796C482.714 83.7508 488.954 84.2796 491.704 87.8749C493.714 90.5186 493.925 94.1139 493.079 97.2863C491.81 102.256 488.426 106.38 484.407 109.447C480.387 112.514 475.628 114.629 471.08 116.744C477.849 119.493 481.657 128.164 478.801 134.932C477.109 138.844 473.724 141.805 470.022 144.026C460.186 150.159 448.129 152.486 436.812 150.371C425.389 148.256 415.553 142.228 408.784 132.923Z" fill="#6E75F4"/>
<path d="M479.965 35.5308L429.726 137.47" stroke="#0B334C" stroke-width="0.9252" stroke-miterlimit="10" stroke-linecap="round" stroke-linejoin="round"/>
<path d="M434.062 53.719L453.629 88.5094" stroke="#0B334C" stroke-width="0.9252" stroke-miterlimit="10" stroke-linecap="round" stroke-linejoin="round"/>
<path d="M427.505 57.843L450.35 95.4886" stroke="#0B334C" stroke-width="0.9252" stroke-miterlimit="10" stroke-linecap="round" stroke-linejoin="round"/>
<path d="M474.042 110.293L443.158 110.716" stroke="#0B334C" stroke-width="0.9252" stroke-miterlimit="10" stroke-linecap="round" stroke-linejoin="round"/>
<path d="M421.264 137.998C421.264 137.998 385.939 79.7323 359.497 74.9737C332.95 70.3209 392.708 139.161 421.264 137.998Z" fill="#A4B1F4"/>
<path d="M358.545 79.6267L399.054 118.964" stroke="#0B334C" stroke-width="0.9252" stroke-miterlimit="10" stroke-linecap="round" stroke-linejoin="round"/>
<path d="M90.4297 403.844C90.4297 403.844 49.0753 316.392 84.2953 295.983C119.515 275.574 96.4583 404.267 96.4583 404.267L90.4297 403.844Z" fill="#CDCDF9"/>
<path d="M89.1604 394.644C89.1604 394.644 66.5265 328.129 47.806 328.129C29.0855 328.129 43.0466 363.343 83.8721 396.441L89.1604 394.644Z" fill="#CDCDF9"/>
<path d="M43.9985 332.677L74.3532 379.628" stroke="#0B334C" stroke-width="0.9252" stroke-miterlimit="10" stroke-linecap="round" stroke-linejoin="round"/>
<path d="M45.4793 424.675C45.4793 424.675 31.3067 411.245 37.6527 398.767C43.9986 386.395 62.1903 390.308 62.1903 390.308C62.1903 390.308 54.1521 373.388 68.5362 365.775C82.9203 358.161 94.6603 377.301 94.6603 377.301C94.6603 377.301 102.487 355.306 134.005 356.046C165.523 356.681 163.619 390.414 163.619 390.414C163.619 390.414 171.446 383.223 181.494 389.779C191.542 396.335 181.494 408.708 181.494 408.708C181.494 408.708 191.33 411.563 190.59 424.569L45.4793 424.675Z" fill="#CDCDF9"/>
<path d="M444.004 328.976H89.6892V111.774C89.6892 107.121 93.4968 103.314 98.1505 103.314H435.543C440.196 103.314 444.004 107.121 444.004 111.774V328.976Z" fill="white" stroke="#1F5B99" stroke-width="1.1536" stroke-miterlimit="10"/>
<path d="M444.004 120.233H89.6892V111.668C89.6892 107.015 93.4968 103.208 98.1505 103.208H435.543C440.196 103.208 444.004 107.015 444.004 111.668V120.233Z" fill="#1F5B99"/>
<path d="M350.296 235.179C354.969 235.179 358.757 231.391 358.757 226.719C358.757 222.047 354.969 218.26 350.296 218.26C345.623 218.26 341.834 222.047 341.834 226.719C341.834 231.391 345.623 235.179 350.296 235.179Z" fill="#00A2DD"/>
<path d="M378.112 235.179C382.785 235.179 386.573 231.391 386.573 226.719C386.573 222.047 382.785 218.26 378.112 218.26C373.439 218.26 369.651 222.047 369.651 226.719C369.651 231.391 373.439 235.179 378.112 235.179Z" fill="#FCB13A"/>
<path d="M406.034 235.179C410.707 235.179 414.495 231.391 414.495 226.719C414.495 222.047 410.707 218.26 406.034 218.26C401.361 218.26 397.573 222.047 397.573 226.719C397.573 231.391 401.361 235.179 406.034 235.179Z" fill="#F64652"/>
<path d="M327.979 140.748H199.685V306.029H327.979V140.748Z" stroke="#0B334C" stroke-width="1.1536" stroke-miterlimit="10"/>
<path d="M332.633 218.577H323.114V228.094H332.633V218.577Z" fill="white" stroke="#1F5B99" stroke-width="1.1536" stroke-miterlimit="10"/>
<path d="M332.633 301.164H323.114V310.681H332.633V301.164Z" fill="white" stroke="#1F5B99" stroke-width="1.1536" stroke-miterlimit="10"/>
<path d="M332.633 136.201H323.114V145.718H332.633V136.201Z" fill="white" stroke="#1F5B99" stroke-width="1.1536" stroke-miterlimit="10"/>
<path d="M204.339 136.201H194.82V145.718H204.339V136.201Z" fill="white" stroke="#1F5B99" stroke-width="1.1536" stroke-miterlimit="10"/>
<path d="M203.916 218.577H194.397V228.094H203.916V218.577Z" fill="white" stroke="#1F5B99" stroke-width="1.1536" stroke-miterlimit="10"/>
<path d="M203.916 300.636H194.397V310.153H203.916V300.636Z" fill="white" stroke="#1F5B99" stroke-width="1.1536" stroke-miterlimit="10"/>
<path d="M259.046 136.61V146.127H268.565V136.61H259.046Z" fill="white" stroke="#1F5B99" stroke-width="1.1536" stroke-miterlimit="10"/>
<path d="M259.025 299.48V308.997H268.544V299.48H259.025Z" fill="white" stroke="#1F5B99" stroke-width="1.1536" stroke-miterlimit="10"/>
<path d="M306.932 199.225C306.932 175.75 288.211 156.61 264.943 155.87C240.828 155.129 220.31 174.904 220.098 199.014C219.992 210.752 224.646 221.432 232.261 229.363C239.348 236.659 243.472 246.282 243.472 256.434V258.126H283.663V256.434C283.663 246.494 287.471 236.765 294.557 229.68C302.278 221.749 306.932 211.069 306.932 199.225Z" fill="#FCB13A"/>
<path d="M273.404 291.224H253.732C248.126 291.224 243.578 286.677 243.578 281.073V257.597H283.558V281.073C283.558 286.677 279.01 291.224 273.404 291.224Z" fill="#0B334C"/>
<path d="M281.865 278.429L243.895 270.71C242.309 270.392 241.251 269.018 241.251 267.432C241.251 265.317 243.155 263.73 245.27 264.153L283.24 271.873C284.827 272.19 285.884 273.565 285.884 275.151C285.884 277.266 283.981 278.852 281.865 278.429Z" fill="#114D73"/>
<path d="M281.865 271.661L243.895 263.942C242.309 263.625 241.251 262.25 241.251 260.664C241.251 258.549 243.155 256.963 245.27 257.386L283.24 265.105C284.827 265.422 285.884 266.797 285.884 268.383C285.884 270.498 283.981 272.084 281.865 271.661Z" fill="#0B334C"/>
<path d="M281.865 285.197L243.895 277.477C242.309 277.16 241.251 275.785 241.251 274.199C241.251 272.084 243.155 270.498 245.27 270.921L283.24 278.641C284.827 278.958 285.884 280.333 285.884 281.919C285.884 284.034 283.981 285.62 281.865 285.197Z" fill="#0B334C"/>
<path d="M268.01 261.404L265.789 261.087C267.693 246.177 270.02 231.161 272.664 216.356C270.02 217.943 266.952 218.894 263.568 219.423C261.135 219.74 257.962 219.846 254.895 219C259.126 231.795 261.981 245.013 263.568 258.443L261.347 258.655C259.76 244.802 256.693 231.161 252.251 218.048C251.511 217.731 250.77 217.308 250.03 216.779C247.597 215.193 245.693 212.761 244.847 210.012C244.319 208.531 245.059 206.945 246.434 206.31C247.915 205.676 249.501 206.099 250.347 207.474C251.511 209.271 252.357 211.386 252.991 213.395C253.309 214.347 253.732 215.405 254.049 216.356C256.693 217.308 259.972 217.625 263.356 217.097C266 216.779 270.02 215.722 273.298 213.29C273.933 209.694 274.673 206.099 275.308 202.609C275.519 201.763 275.731 200.706 276.471 199.754C277 199.12 277.74 198.802 278.587 198.802C279.221 198.802 279.856 199.014 280.279 199.437C280.913 200.071 281.019 200.812 281.125 201.446C281.336 203.667 281.125 205.676 280.385 207.474C279.327 210.223 277.635 212.655 275.308 214.453C272.452 230.103 270.02 245.754 268.01 261.404ZM247.703 208.425C247.492 208.425 247.386 208.531 247.28 208.531C247.068 208.637 246.645 208.848 246.857 209.483C247.597 211.703 249.078 213.607 250.982 214.982C250.876 214.77 250.77 214.559 250.77 214.241C250.136 212.444 249.395 210.435 248.338 208.848C248.126 208.425 247.915 208.425 247.703 208.425ZM278.587 201.023C278.481 201.023 278.269 201.129 278.058 201.235C277.74 201.658 277.635 202.186 277.423 202.927C276.894 205.464 276.471 208.002 275.942 210.435C276.789 209.271 277.635 208.002 278.164 206.522C278.692 205.042 278.904 203.455 278.692 201.552C278.798 201.235 278.692 201.129 278.587 201.023C278.692 201.023 278.587 201.023 278.587 201.023Z" fill="#0B334C"/>
<path d="M245.906 257.386L283.558 265.317" stroke="white" stroke-width="0.3084" stroke-miterlimit="10" stroke-linecap="round" stroke-linejoin="round"/>
<path d="M243.684 277.266L282.183 285.514" stroke="white" stroke-width="0.3084" stroke-miterlimit="10" stroke-linecap="round" stroke-linejoin="round"/>
<path d="M193.763 342.617H178.532C177.157 342.617 175.994 341.454 175.994 340.079V321.362C175.994 319.987 177.052 318.93 178.427 318.93H193.868C195.243 318.93 196.301 319.987 196.301 321.362V340.079C196.301 341.454 195.138 342.617 193.763 342.617Z" fill="#0B334C"/>
<path d="M187.84 325.803H175.994V336.801H187.84V325.803Z" fill="#FCB13A"/>
<path d="M175.677 319.776V320.304C175.677 320.833 176.1 321.256 176.629 321.256C177.157 321.256 177.792 321.362 178.321 321.573C179.378 322.102 180.119 323.265 181.282 323.688C182.446 324.111 183.715 323.582 184.667 322.842C185.936 321.996 186.994 320.833 188.58 320.622C189.32 320.516 189.955 320.622 190.59 320.939C191.753 321.785 191.647 323.265 191.647 324.534C191.647 325.38 191.859 326.12 192.07 326.861C192.282 327.495 192.599 328.13 193.128 328.553C193.657 328.976 194.503 328.976 194.926 328.447C195.138 328.13 195.243 327.707 195.349 327.284C195.455 326.332 195.455 325.274 195.349 324.217C195.243 323.688 195.243 323.054 195.349 322.525C195.455 322.102 195.666 321.785 195.984 321.573C196.301 321.362 196.407 321.045 196.407 320.727V319.564C196.407 318.824 195.878 318.295 195.138 318.295H176.946C176.206 318.507 175.677 319.035 175.677 319.776Z" fill="#FCB13A"/>
<path d="M82.2857 342.511H74.459V424.57H82.2857V342.511Z" fill="#184778"/>
<path d="M53.2002 342.511H45.3735V424.57H53.2002V342.511Z" fill="#1F5B99"/>
<path d="M173.561 342.511H165.735V424.57H173.561V342.511Z" fill="#184778"/>
<path d="M202.647 342.511H194.82V424.57H202.647V342.511Z" fill="#1F5B99"/>
<path d="M202.647 342.511H45.585V350.336H202.647V342.511Z" fill="#1F5B99"/>
<path d="M169.754 279.698C167.427 278.535 166.475 279.063 161.927 278.112C161.292 278.006 160.446 277.794 159.494 277.689C158.225 282.87 156.745 288.052 155.793 293.339C155.687 293.868 155.687 294.291 155.581 294.82C158.014 294.608 160.446 294.502 162.879 294.397C160.764 308.038 158.119 324.64 156.11 338.281C157.591 338.493 158.543 339.55 160.235 338.916C165.312 330.033 173.455 304.654 174.936 297.675C176.417 290.695 176.417 292.387 176.417 290.272C176.523 282.765 175.677 282.659 169.754 279.698Z" fill="#FA9778"/>
<path d="M163.196 293.233L162.879 294.502" stroke="#0B334C" stroke-width="0.3084" stroke-miterlimit="10" stroke-linecap="round" stroke-linejoin="round"/>
<path d="M160.658 337.964C160.658 337.964 158.014 339.761 156.004 337.964L155.581 339.127C155.158 340.184 155.052 341.242 155.052 342.299V342.616H169.013C169.013 341.559 168.379 340.713 167.427 340.396L160.658 337.964Z" fill="#1F5B99"/>
<path d="M117.188 325.591C114.861 325.274 112.535 324.957 110.314 324.534C110.419 325.803 110.525 327.072 110.631 328.341C94.5545 327.178 70.1226 330.879 65.0459 331.725C64.4113 331.83 64.094 331.83 64.094 331.83L63.6709 336.166L64.9401 336.377L112.112 342.405L116.554 342.934C122.9 343.78 128.611 339.233 129.246 332.888L129.774 327.601V327.178C125.544 326.755 121.419 326.226 117.188 325.591Z" fill="#FA9778"/>
<path d="M110.631 328.447C110.631 328.447 114.333 329.398 114.756 329.821" stroke="#0B334C" stroke-width="0.3084" stroke-miterlimit="10" stroke-linecap="round" stroke-linejoin="round"/>
<path d="M64.9401 336.272C64.9401 336.272 63.2479 333.522 65.0459 331.619L63.8825 331.196C62.8248 330.773 61.7671 330.562 60.7095 330.562H60.3922L60.0749 344.52C61.1325 344.52 61.9787 343.885 62.4017 343.04L64.9401 336.272Z" fill="#1F5B99"/>
<path d="M114.65 275.468C114.65 275.468 109.679 288.686 109.679 293.339C109.679 297.886 109.679 326.12 109.679 326.12L129.669 328.341L136.015 297.463L160.764 295.983L164.254 276.42L144.793 273.247L114.65 275.468Z" fill="#F64652"/>
<path d="M137.283 286.994L136.015 297.252" stroke="#0B334C" stroke-width="0.3084" stroke-miterlimit="10" stroke-linecap="round" stroke-linejoin="round"/>
<path d="M161.927 276.314L158.543 295.243" stroke="#0B334C" stroke-width="0.3084" stroke-miterlimit="10" stroke-linecap="round" stroke-linejoin="round"/>
<path d="M110.208 323.794L129.351 326.015" stroke="#0B334C" stroke-width="0.3084" stroke-miterlimit="10" stroke-linecap="round" stroke-linejoin="round"/>
<path d="M136.332 294.925L158.648 293.974" stroke="#0B334C" stroke-width="0.3084" stroke-miterlimit="10" stroke-linecap="round" stroke-linejoin="round"/>
<path d="M115.707 278.112C115.707 278.112 111.688 288.792 111.688 293.762C111.688 298.732 111.582 323.9 111.582 323.9" stroke="#0B334C" stroke-width="0.3084" stroke-miterlimit="10" stroke-linecap="round" stroke-linejoin="round"/>
<path d="M120.678 278.112L113.169 286.36" stroke="#0B334C" stroke-width="0.3084" stroke-miterlimit="10" stroke-linecap="round" stroke-linejoin="round"/>
<path d="M177.264 245.965C176.418 244.907 174.937 244.59 173.774 245.33C173.774 245.33 173.774 245.33 173.668 245.33H173.562C171.13 247.022 168.591 248.82 166.053 250.512C163.514 252.204 160.976 253.79 158.332 255.376C154.313 257.808 150.294 260.029 146.275 262.038C145.852 260.981 145.534 259.923 145.217 258.866C144.477 256.433 143.736 253.896 142.996 251.358C142.361 251.675 141.727 252.098 141.198 252.309C138.448 253.578 135.698 254.742 132.842 255.482C133.583 257.808 134.323 260.029 135.169 262.355C135.592 263.518 136.121 264.787 136.65 265.951C137.39 267.748 138.131 269.44 138.977 271.238C140.034 273.247 142.467 274.199 144.582 273.141C145.217 272.824 145.957 272.401 146.592 272.084C147.544 271.555 148.602 271.026 149.553 270.392C151.351 269.334 153.149 268.277 154.842 267.114C156.217 266.268 157.486 265.316 158.755 264.364C160.024 263.413 161.293 262.461 162.563 261.509C167.534 257.702 172.187 253.684 176.629 249.243L176.735 249.137C177.793 248.397 178.004 247.022 177.264 245.965Z" fill="#FA9778"/>
<path d="M173.561 245.965C173.561 245.965 175.254 241.418 175.994 241.523C176.734 241.523 176.734 243.956 176.734 243.956C176.734 243.956 180.859 240.677 181.388 240.995C181.917 241.312 178.744 244.273 178.744 244.273C178.744 244.273 181.811 242.475 182.34 242.898C182.974 243.321 179.061 245.753 179.061 245.753C179.061 245.753 182.551 244.696 182.763 245.33C183.08 246.07 178.85 247.128 178.85 247.128C178.85 247.128 181.388 246.916 181.494 247.445C181.6 247.974 175.994 249.666 175.994 249.666L173.561 245.965Z" fill="#FA9778"/>
<path d="M133.688 259.077C133.688 259.077 126.496 241.841 131.784 238.351C137.072 234.861 140.774 240.677 141.091 242.158C141.409 243.744 144.582 256.116 144.582 256.116L133.688 259.077Z" fill="#1F5B99"/>
<path d="M132.947 233.804V223.758H125.015V233.804C125.015 234.967 124.063 236.025 122.794 236.025C131.784 249.137 135.168 236.025 135.168 236.025H135.063C134.005 236.025 132.947 235.073 132.947 233.804Z" fill="#FA9778"/>
<path d="M132.948 230.103V231.795C132.525 231.795 132.208 231.795 131.785 231.689C130.092 231.372 127.66 230.526 126.073 228.728C125.756 228.305 125.333 227.671 125.016 226.825V226.613C125.121 226.825 125.333 227.036 125.439 227.142C126.919 229.045 129.352 229.786 131.15 230.103C131.785 230.209 132.419 230.209 132.948 230.103Z" fill="#0B334C"/>
<path d="M140.985 239.726C140.139 238.563 138.341 237.294 136.755 236.342L137.284 235.813L133.053 234.333L130.832 241.312L125.015 233.804L120.784 235.073L121.419 235.496C119.304 235.919 114.438 237.611 114.015 243.638C113.592 249.56 112.958 274.41 112.852 278.534C112.852 278.852 113.063 279.063 113.381 279.063L134.745 276.737L136.438 274.516L138.87 276.948L148.601 273.987C148.706 273.776 142.889 242.264 140.985 239.726Z" fill="#1F5B99"/>
<path d="M130.938 243.744V241.312L121.313 235.39" stroke="#0B334C" stroke-width="0.3084" stroke-miterlimit="10" stroke-linecap="round" stroke-linejoin="round"/>
<path d="M136.649 236.448L130.938 241.312" stroke="#0B334C" stroke-width="0.3084" stroke-miterlimit="10" stroke-linecap="round" stroke-linejoin="round"/>
<path d="M141.726 247.128H136.015V248.185H141.726V247.128Z" stroke="#0B334C" stroke-width="0.3084" stroke-miterlimit="10" stroke-linecap="round" stroke-linejoin="round"/>
<path d="M136.649 274.305V265.633" stroke="#0B334C" stroke-width="0.3084" stroke-miterlimit="10" stroke-linecap="round" stroke-linejoin="round"/>
<path d="M179.59 247.868L182.128 246.811C182.234 246.811 182.234 246.705 182.234 246.599L178.638 237.822C178.638 237.717 178.532 237.717 178.427 237.717L175.888 238.774C175.783 238.774 175.783 238.88 175.783 238.986L179.379 247.762C179.379 247.868 179.484 247.868 179.59 247.868Z" fill="#1F5B99"/>
<path d="M177.792 241.418L175.148 234.862L168.273 237.717C167.321 238.14 166.158 237.611 165.735 236.659L163.937 232.218C163.725 231.795 163.725 231.266 163.937 230.737C164.148 230.314 164.466 229.891 164.994 229.68L172.081 226.719L172.504 227.671L165.417 230.632C165.206 230.737 164.994 230.843 164.994 231.055C164.889 231.266 164.889 231.478 164.994 231.689L166.792 236.131C167.004 236.553 167.533 236.765 167.956 236.553L175.782 233.381L178.85 240.889L177.792 241.418Z" fill="#1F5B99"/>
<path d="M169.12 231.689L186.36 224.604C186.889 224.393 187.206 223.758 186.994 223.229L185.725 220.269C185.514 219.74 184.879 219.423 184.35 219.634L167.11 226.719C166.582 226.931 166.264 227.565 166.476 228.094L167.745 231.055C167.851 231.689 168.485 231.901 169.12 231.689Z" fill="#FCB13A"/>
<path d="M181.811 244.59C181.811 244.273 181.388 243.215 181.388 243.215C181.388 242.581 180.436 241.735 180.436 241.735C180.436 241.735 180.859 240.678 180.119 240.36C179.696 240.149 178.955 240.678 178.532 241.101C177.792 241.523 177.263 241.946 177.263 241.946C177.263 241.946 177.475 239.62 176.734 239.514C176.206 239.409 174.831 242.052 174.196 243.215C174.196 243.215 174.196 243.215 174.09 243.215H173.984C171.446 244.696 168.696 246.282 166.052 247.657C163.408 249.137 160.658 250.512 157.908 251.781C153.254 254.002 148.495 256.116 143.735 257.914C141.726 256.116 139.822 254.319 137.918 252.415C137.072 251.569 136.226 250.723 135.38 249.877C134.005 251.041 132.524 252.204 131.149 253.367C130.515 254.107 129.774 254.847 129.14 255.588C128.611 256.222 128.082 256.751 127.553 257.385C128.611 258.337 129.563 259.289 130.621 260.241C131.044 260.558 131.361 260.875 131.784 261.192C133.794 262.99 135.909 264.682 138.13 266.268C138.341 266.374 138.553 266.585 138.659 266.691C140.351 267.96 142.678 268.171 144.687 267.431C147.014 266.374 149.341 265.316 151.668 264.153C152.302 263.836 152.831 263.519 153.36 263.201C154.735 262.461 156.11 261.615 157.485 260.875C158.86 260.029 160.235 259.183 161.504 258.337C166.792 254.953 171.763 251.358 176.629 247.34C177.686 247.128 179.59 246.705 180.753 246.282C181.282 246.176 181.917 246.071 182.128 245.859C182.763 245.648 181.811 244.59 181.811 244.59Z" fill="#FA9778"/>
<path d="M136.861 251.358L129.563 259.289L131.784 261.298L136.861 251.358Z" fill="#0B334C"/>
<path d="M140.245 260.346C140.245 260.346 143.101 258.337 143.947 258.02" stroke="#0B334C" stroke-width="0.3084" stroke-miterlimit="10" stroke-linecap="round" stroke-linejoin="round"/>
<path d="M145.322 267.22C145.322 267.22 167.533 255.693 176.946 247.445L179.167 246.917" stroke="#0B334C" stroke-width="0.3084" stroke-miterlimit="10" stroke-linecap="round" stroke-linejoin="round"/>
<path d="M129.14 259.923L116.448 246.282C116.448 246.282 114.015 240.677 117.929 238.034C121.842 235.39 125.65 238.245 127.13 240.043C128.611 241.735 136.966 251.252 136.966 251.252L129.14 259.923Z" fill="#1F5B99"/>
<path d="M118.352 248.397L129.141 260.029L129.669 259.394" stroke="#0B334C" stroke-width="0.3084" stroke-miterlimit="10" stroke-linecap="round" stroke-linejoin="round"/>
<path d="M127.342 258.125L135.803 250.089" stroke="#0B334C" stroke-width="0.3084" stroke-miterlimit="10" stroke-linecap="round" stroke-linejoin="round"/>
<path d="M137.178 215.51C136.226 211.175 131.89 208.531 127.659 209.694C123.746 210.752 121.313 214.664 121.948 218.471C121.842 218.471 121.842 218.471 121.736 218.471C120.679 218.894 120.044 220.163 120.573 221.326C120.996 222.278 122.371 223.441 123.534 223.335C124.169 224.921 124.803 226.296 125.438 227.036C126.919 228.94 129.351 229.68 131.149 229.997C132.419 230.209 133.793 229.892 134.745 229.046C135.697 228.305 136.755 227.142 137.495 225.767C137.813 225.133 138.024 224.498 138.236 223.758C138.341 223.335 138.341 222.912 138.341 222.384C138.236 220.586 137.813 217.942 137.178 215.51Z" fill="#FA9778"/>
<path d="M132.524 219.846C132.736 220.586 132.947 221.115 133.159 221.855C133.264 222.172 133.264 222.595 133.159 223.018C132.947 223.441 132.524 223.653 132.207 223.653C132.418 223.335 132.63 223.018 132.63 222.807C132.63 222.595 132.524 222.278 132.524 221.961C132.313 221.326 132.207 220.586 132.524 219.846Z" fill="#0B334C"/>
<path d="M130.515 218.154C130.092 218.154 129.775 218.048 129.352 218.154C129.034 218.26 128.611 218.365 128.4 218.683C128.294 218.788 128.294 218.788 128.188 218.683C128.188 218.683 128.082 218.577 128.188 218.471C128.294 218.26 128.4 218.048 128.611 217.837C128.823 217.625 129.034 217.519 129.246 217.414C129.775 217.308 130.304 217.308 130.727 217.519C130.833 217.625 130.939 217.731 130.833 217.837C130.833 218.154 130.727 218.154 130.515 218.154Z" fill="#0B334C"/>
<path d="M134.428 217.625C134.851 217.414 135.38 217.414 135.909 217.519C136.121 217.625 136.438 217.731 136.544 217.942C136.756 218.154 136.861 218.365 136.967 218.577C136.967 218.682 136.967 218.682 136.861 218.788C136.756 218.788 136.756 218.788 136.65 218.788C136.332 218.471 136.015 218.26 135.698 218.26C135.38 218.154 134.957 218.26 134.534 218.26C134.428 218.26 134.217 218.154 134.217 218.048C134.217 217.837 134.322 217.731 134.428 217.625Z" fill="#0B334C"/>
<path d="M135.38 222.066C135.789 222.066 136.12 221.546 136.12 220.903C136.12 220.261 135.789 219.74 135.38 219.74C134.971 219.74 134.64 220.261 134.64 220.903C134.64 221.546 134.971 222.066 135.38 222.066Z" fill="#0B334C"/>
<path d="M129.774 222.066C130.183 222.066 130.514 221.546 130.514 220.903C130.514 220.261 130.183 219.74 129.774 219.74C129.365 219.74 129.034 220.261 129.034 220.903C129.034 221.546 129.365 222.066 129.774 222.066Z" fill="#0B334C"/>
<path d="M132.419 226.402C132.207 226.508 132.102 226.508 131.89 226.508C131.679 226.508 131.467 226.508 131.361 226.296C131.573 226.296 131.679 226.296 131.89 226.296C131.996 226.402 132.207 226.402 132.419 226.402Z" fill="#0B334C"/>
<path d="M133.689 225.133C133.372 225.662 132.737 225.979 132.102 225.979C131.785 225.979 131.468 225.873 131.15 225.662C130.833 225.45 130.727 225.239 130.515 224.922C130.939 225.344 131.468 225.662 131.997 225.556C132.631 225.767 133.16 225.45 133.689 225.133Z" fill="#0B334C"/>
<path d="M129.774 224.816C129.774 224.816 129.668 223.653 132.312 223.653C132.312 223.653 134.005 223.653 134.322 224.816C134.322 224.816 133.053 225.873 129.774 224.816Z" fill="#0B334C"/>
<path d="M123.111 214.241C123.005 214.241 123.005 214.241 123.111 214.241C121.313 213.818 119.515 214.77 118.986 216.356C118.986 216.462 118.881 216.673 118.881 216.779C118.246 219.211 118.775 221.749 120.256 223.864C121.419 225.556 123.217 226.825 125.121 227.459V226.613C124.592 225.767 124.063 224.71 123.64 223.441C122.582 223.547 121.102 222.384 120.679 221.432C120.361 220.692 120.467 219.951 120.89 219.423C121.313 218.682 122.371 218.577 123.111 219.105C123.534 219.423 123.957 219.846 124.169 220.374C124.169 220.374 125.121 220.586 125.438 220.163C125.65 219.951 125.438 218.577 125.438 217.202C125.227 215.827 124.38 214.664 123.111 214.241Z" fill="#0B334C"/>
<path d="M139.4 217.308C139.4 217.096 139.4 216.991 139.4 216.779C139.4 216.673 139.4 216.568 139.4 216.462V216.356V216.25C139.082 213.29 136.755 214.03 136.755 214.03C136.967 214.347 137.178 215.087 137.178 215.087C137.178 215.087 138.236 220.48 138.342 222.384C138.342 222.701 138.342 223.018 138.342 223.23C138.659 222.384 138.977 221.432 139.082 220.586C139.188 219.846 139.4 218.894 139.4 218.154C139.4 217.942 139.4 217.625 139.4 217.308Z" fill="#0B334C"/>
<path d="M346.911 396.547L341.306 404.055H347.123L346.911 396.547Z" fill="#FCB13A"/>
<path d="M393.131 396.547L398.736 404.055H392.919L393.131 396.547Z" fill="#FCB13A"/>
<path d="M393.131 396.547H346.911V421.186H393.131V396.547Z" fill="#FCB13A"/>
<path d="M396.304 406.699H343.738L346.911 396.547H393.131L396.304 406.699Z" fill="#FCB13A"/>
<path d="M393.131 396.653L395.563 404.055H397.573L393.131 396.653Z" fill="#0B334C"/>
<path d="M393.131 406.699H346.911V410.294L393.131 406.699Z" fill="#0B334C"/>
<path d="M290.644 395.172L293.288 401.411H286.519H281.971H271.5C271.5 401.411 269.068 405.007 266.741 409.554C263.145 416.427 266.212 424.887 273.404 427.848C282.183 431.443 292.23 430.491 300.163 425.31C314.653 421.503 332.95 415.476 338.45 408.285C345.219 399.191 290.644 395.172 290.644 395.172Z" fill="#0B334C"/>
<path d="M292.971 401.834C292.971 401.834 290.009 413.466 296.249 414.841C302.49 416.216 325.124 409.131 324.383 402.363" stroke="white" stroke-width="0.3305" stroke-miterlimit="10" stroke-linecap="round" stroke-linejoin="round"/>
<path d="M295.403 401.306L311.374 399.191" stroke="white" stroke-width="0.3305" stroke-miterlimit="10" stroke-linecap="round" stroke-linejoin="round"/>
<path d="M274.78 411.245L284.722 411.563C284.722 411.563 285.039 423.723 280.491 424.041C275.943 424.464 272.347 420.34 274.78 411.245Z" stroke="white" stroke-width="0.3305" stroke-miterlimit="10" stroke-linecap="round" stroke-linejoin="round"/>
<path d="M271.183 403.632C271.183 403.632 282.288 405.112 292.442 404.372" stroke="white" stroke-width="0.3305" stroke-miterlimit="10" stroke-linecap="round" stroke-linejoin="round"/>
<path d="M310.634 426.896C307.461 426.685 306.615 422.349 309.576 420.974C315.71 418.225 323.854 414.947 326.498 416.11C330.094 417.696 322.374 427.742 310.634 426.896Z" fill="#ADADEA"/>
<path d="M321.316 367.679C320.787 365.564 320.258 363.449 320.047 362.709C320.047 362.603 319.941 362.497 319.941 362.391C319.518 360.805 318.989 359.113 318.46 357.527C316.451 351.182 314.124 345.049 311.268 339.022C311.374 337.33 311.48 333.523 311.057 333.523C310.422 333.417 309.788 336.061 309.788 336.061C309.788 336.061 310.211 331.408 309.364 331.408C308.518 331.408 308.413 335.32 308.413 335.32C308.413 335.32 307.355 330.562 306.72 330.985C306.086 331.408 306.826 335.109 306.826 335.109C306.826 335.109 305.028 330.879 304.499 331.302C303.97 331.725 305.768 337.012 305.768 337.012C305.768 337.012 303.442 336.166 303.124 336.907C302.913 337.435 305.24 339.55 306.191 340.502C306.191 340.502 306.191 340.502 306.191 340.608V340.714C307.038 343.78 307.884 346.953 308.624 350.125C309.364 353.297 310.105 356.47 310.739 359.642C311.057 361.334 311.374 363.026 311.691 364.718C307.355 365.458 303.019 365.987 298.576 366.304C297.519 366.41 296.461 366.41 295.403 366.515C295.615 369.265 295.826 371.909 295.826 374.658C295.826 375.821 295.932 376.879 296.038 378.042C297.307 377.936 298.471 377.83 299.74 377.619C303.124 377.196 306.509 376.667 309.893 375.927C310.951 375.715 312.009 375.398 313.172 375.187C314.23 374.869 316.239 374.341 318.037 373.706C320.47 372.754 321.951 370.217 321.316 367.679Z" fill="#FFCBA1"/>
<path d="M311.691 364.506C311.691 364.506 312.22 368.313 312.96 369.582" stroke="#0B334C" stroke-width="0.3305" stroke-miterlimit="10" stroke-linecap="round" stroke-linejoin="round"/>
<path d="M297.836 378.042C297.836 378.042 278.058 381.637 273.933 376.138C269.808 370.639 276.366 366.304 277.635 366.198C278.904 366.092 296.673 365.987 296.673 365.987L297.836 378.042Z" fill="#F64652"/>
<path d="M285.25 364.929V354.249H276.789V365.035C276.789 366.304 275.943 367.467 274.568 367.467L273.933 367.573C286.096 377.618 287.683 367.361 287.683 367.361C286.308 367.361 285.25 366.304 285.25 364.929Z" fill="#FFCBA1"/>
<path d="M285.25 360.805V363.237C284.298 362.814 283.346 362.18 282.5 361.334C282.183 360.911 281.865 360.488 281.442 359.854C282.606 360.382 283.769 360.594 284.721 360.805C285.038 360.805 285.144 360.805 285.25 360.805Z" fill="#0B334C"/>
<path d="M276.26 366.621C276.26 366.621 286.519 366.727 287.788 367.256C289.057 367.89 294.98 373.495 295.826 377.09C296.673 380.685 291.596 390.943 292.23 392.952C292.865 394.961 295.086 401.411 295.086 401.411H270.548C270.548 401.411 273.721 389.251 270.76 382.06C267.904 374.869 268.645 366.938 276.26 366.621Z" fill="#F64652"/>
<path d="M363.622 404.478C363.516 403.843 357.911 402.892 357.911 402.892C357.911 402.892 359.815 401.2 359.286 400.565C358.968 400.142 356.007 401.094 354.632 401.623C354.632 401.623 354.632 401.623 354.526 401.623H354.421C351.353 400.883 348.075 400.142 345.007 399.296C341.834 398.45 338.767 397.604 335.7 396.653C329.566 394.749 323.431 392.634 317.826 389.991C312.22 387.347 306.826 384.069 301.644 380.474C299.951 379.31 298.153 378.041 296.461 376.772C296.144 377.407 295.721 378.147 295.403 378.782C294.028 381.531 292.653 384.386 291.067 387.241C292.548 388.193 293.923 389.145 295.403 389.991C298.365 391.788 301.326 393.48 304.393 394.961C307.461 396.441 310.739 397.922 314.018 399.085C317.297 400.248 320.576 401.306 323.854 402.151C325.547 402.574 327.133 402.997 328.825 403.315C330.518 403.632 332.104 404.055 333.796 404.266C340.354 405.535 346.911 406.276 353.574 406.699C355.055 407.545 358.228 409.448 358.545 409.131C358.863 408.602 356.853 406.804 356.853 406.804C356.853 406.804 360.766 409.342 361.084 408.602C361.507 407.862 358.122 405.958 358.122 405.958C358.122 405.958 362.776 407.227 362.776 406.487C362.67 405.747 359.074 404.584 359.074 404.584C359.074 404.584 363.728 405.112 363.622 404.478Z" fill="#FFCBA1"/>
<path d="M294.663 390.308C294.663 390.308 274.356 381.214 276.26 372.437C278.164 363.66 286.096 367.678 288.952 370.851C291.913 374.023 301.644 380.474 301.644 380.474L294.663 390.308Z" fill="#F64652"/>
<path d="M292.971 389.568C292.971 389.568 280.49 382.272 277 377.725" stroke="#0B334C" stroke-width="0.3305" stroke-miterlimit="10" stroke-linecap="round" stroke-linejoin="round"/>
<path d="M297.413 377.407L288 369.899" stroke="#0B334C" stroke-width="0.3305" stroke-miterlimit="10" stroke-linecap="round" stroke-linejoin="round"/>
<path d="M293.394 352.663C293.288 352.451 293.076 352.346 292.865 352.24C292.442 351.923 292.125 351.5 291.913 350.971C291.702 349.173 291.173 347.058 290.644 344.943C289.48 340.396 284.721 337.753 280.173 339.127C275.625 340.502 273.193 345.366 274.779 349.808C275.942 353.086 277.317 356.47 278.587 357.844C280.279 359.748 282.923 360.488 284.721 360.805C286.096 361.017 287.471 360.594 288.529 359.642C289.48 358.796 290.644 357.527 291.278 355.941C291.49 355.518 291.596 355.095 291.807 354.566C292.23 354.249 292.653 353.932 293.077 353.509C293.182 353.403 293.288 353.297 293.394 353.191C293.605 353.086 293.605 352.874 293.394 352.663Z" fill="#FFCBA1"/>
<path d="M286.202 356.046C287.312 356.046 288.211 355.147 288.211 354.037C288.211 352.928 287.312 352.028 286.202 352.028C285.092 352.028 284.192 352.928 284.192 354.037C284.192 355.147 285.092 356.046 286.202 356.046Z" fill="#FFB285"/>
<path d="M289.694 347.798C289.27 347.798 288.847 347.692 288.424 347.798C288.001 347.904 287.683 348.01 287.366 348.433C287.26 348.538 287.26 348.538 287.154 348.433C287.154 348.433 287.049 348.327 287.154 348.221C287.26 348.01 287.366 347.692 287.578 347.587C287.789 347.375 288.001 347.269 288.318 347.164C288.847 346.952 289.376 347.058 289.905 347.269C290.011 347.375 290.117 347.481 290.011 347.692C289.905 347.798 289.799 347.798 289.694 347.798Z" fill="#0B334C"/>
<path d="M289.057 356.363C288.846 356.363 288.634 356.363 288.423 356.258C288.211 356.152 288 356.046 288 355.835C288.211 355.94 288.317 356.046 288.528 356.046C288.634 356.258 288.846 356.258 289.057 356.363Z" fill="#0B334C"/>
<path d="M290.856 355.729C290.327 356.046 289.587 356.152 288.952 355.94C288.635 355.835 288.317 355.623 288.106 355.306C287.894 354.989 287.788 354.671 287.788 354.354C288.106 354.883 288.423 355.412 289.058 355.623C289.587 355.835 290.222 355.835 290.856 355.729Z" fill="#0B334C"/>
<path d="M289.905 351.076C289.482 350.97 289.059 350.865 288.636 350.865C288.212 350.865 287.895 350.97 287.366 351.076C287.472 350.865 287.683 350.653 287.895 350.547C288.107 350.442 288.318 350.336 288.636 350.336C289.165 350.336 289.694 350.653 289.905 351.076Z" fill="#0B334C"/>
<path d="M291.596 342.405C291.173 340.608 290.009 338.916 288.423 337.964C287.471 337.435 286.519 337.012 285.461 336.906C283.029 336.483 280.385 336.906 278.164 338.175C277.423 338.598 276.683 339.127 276.048 339.656C275.202 340.396 274.462 341.136 273.827 341.982C272.77 343.568 272.452 345.578 272.135 347.481C271.606 350.336 270.443 352.98 269.068 355.518C268.433 356.681 267.799 357.844 267.481 359.113C267.058 360.382 267.058 361.757 267.481 362.92C268.01 364.189 269.173 365.246 270.548 365.669C271.5 365.987 274.356 366.092 276.26 366.304C277.846 366.41 279.433 366.092 280.702 365.141C285.673 361.334 278.904 353.614 278.904 353.614C274.779 350.653 278.269 348.75 278.269 348.75C279.115 348.856 279.856 348.856 280.596 348.856C280.913 349.384 281.337 350.336 281.125 351.605C281.125 351.605 282.923 349.807 283.452 348.327C287.365 347.164 289.904 344.414 290.432 343.886C290.538 344.203 290.75 344.626 290.855 345.049C291.067 345.895 291.279 346.741 291.49 347.587C291.913 345.789 292.019 344.097 291.596 342.405Z" fill="#0B334C"/>
<path d="M326.393 18.717L338.979 25.9077L352.305 0L326.393 18.717Z" fill="#CDCDF9"/>
<path d="M326.393 18.7169L325.97 28.234L334.008 23.0525L326.393 18.7169Z" fill="#A4B1F4"/>
<path d="M325.97 28.2342L321.422 17.3423L352.305 0L326.393 18.717L325.97 28.2342Z" fill="#6E75F4"/>
<path d="M352.305 0L310.951 13.747L321.422 17.3423L352.305 0Z" fill="#CDCDF9"/>
<path d="M515.29 243.11H468.013V188.756H503.55L515.29 201.446V243.11Z" fill="#CDCDF9"/>
<path d="M503.55 188.756L500.271 201.552L515.29 201.446L503.55 188.756Z" fill="#A4B1F4"/>
<path d="M503.444 188.651L500.377 201.657L515.184 201.552" stroke="#6E75F4" stroke-width="0.9252" stroke-miterlimit="10" stroke-linecap="round" stroke-linejoin="round"/>
<path d="M121.842 86.5002C125.121 85.4427 128.611 85.9714 131.361 87.4519L122.159 57.2085L94.5545 65.5625C94.766 63.9763 94.5545 62.2843 94.1314 60.5924C92.1219 54.0362 85.2471 50.3351 78.6896 52.3442C72.1322 54.3534 68.4304 61.2269 70.4399 67.7831C70.9687 69.4751 71.8149 70.9555 72.7668 72.1187L45.1619 80.4726L54.3635 110.716C55.8443 107.861 58.4884 105.64 61.7671 104.583C68.3246 102.574 75.1994 106.275 77.2089 112.831C79.2185 119.387 75.5167 126.261 68.9592 128.27C65.6805 129.327 62.1902 128.799 59.4403 127.318L68.6419 157.561L96.2467 149.207C96.0352 150.794 96.2467 152.486 96.6698 154.178C98.6793 160.734 105.554 164.435 112.112 162.426C118.669 160.417 122.371 153.543 120.361 146.987C119.832 145.295 118.986 143.814 118.034 142.651L145.639 134.297L136.438 104.16C134.957 107.015 132.313 109.236 129.034 110.293C122.477 112.302 115.602 108.601 113.592 102.045C111.583 95.3828 115.285 88.5093 121.842 86.5002Z" fill="#A4B1F4"/>
<path d="M70.0168 153.649L94.4487 146.458" stroke="#0B334C" stroke-width="0.9252" stroke-miterlimit="10" stroke-linecap="round" stroke-linejoin="round"/>
<path d="M96.9871 68.5235L121.207 60.9098" stroke="#0B334C" stroke-width="0.9252" stroke-miterlimit="10" stroke-linecap="round" stroke-linejoin="round"/>
<path d="M472.984 408.497L473.83 421.08L478.166 420.869C478.166 420.869 479.33 415.687 480.599 408.497H472.984Z" fill="#CC6F49"/>
<path d="M473.618 419.811C473.618 419.811 476.263 421.609 478.272 419.811L478.695 420.974C479.118 422.032 479.224 423.089 479.224 424.147V424.464H465.157C465.157 423.407 465.792 422.561 466.744 422.243L473.618 419.811Z" fill="#0B334C"/>
<path d="M494.983 408.497L496.358 421.186L500.694 420.869C500.694 420.869 501.646 415.793 502.704 408.497H494.983Z" fill="#CC6F49"/>
<path d="M496.252 419.811C496.252 419.811 498.896 421.609 500.906 419.811L501.329 420.974C501.752 422.032 501.858 423.089 501.858 424.147V424.464H487.791C487.791 423.407 488.426 422.561 489.378 422.243L496.252 419.811Z" fill="#0B334C"/>
<path d="M469.282 282.659C469.071 283.082 468.965 283.505 468.753 283.822C466.426 289.321 463.782 294.608 460.609 299.578C457.436 304.548 453.629 309.307 449.715 313.854C447.706 316.18 445.696 318.401 443.581 320.622C441.466 322.842 439.35 325.063 437.235 327.178L437.129 327.284C436.177 328.235 436.177 329.927 437.129 330.879C437.975 331.725 439.456 331.831 440.408 331.091C445.591 327.389 450.456 323.371 455.109 319.036C456.273 317.978 457.436 316.815 458.6 315.757C459.763 314.594 460.821 313.537 461.984 312.268C464.205 309.941 466.321 307.509 468.33 304.866C470.34 302.222 472.138 299.473 473.83 296.723C475.522 293.974 477.003 291.119 478.484 288.158C478.907 287.418 479.224 286.572 479.647 285.726C476.157 284.985 472.667 283.928 469.282 282.659Z" fill="#CC6F49"/>
<path d="M437.764 327.178C437.764 327.178 433.004 328.024 432.899 328.764C432.793 329.504 435.12 329.927 435.12 329.927C435.12 329.927 431.206 333.522 431.418 334.051C431.735 334.686 435.12 332.042 435.12 332.042C435.12 332.042 432.793 334.791 433.11 335.426C433.428 336.06 436.495 332.677 436.495 332.677C436.495 332.677 434.802 335.955 435.543 336.272C436.177 336.695 438.081 332.677 438.081 332.677C438.081 332.677 437.447 335.214 437.975 335.426C438.504 335.637 441.043 330.35 441.043 330.35L437.764 327.178Z" fill="#CC6F49"/>
<path d="M484.83 274.305C484.724 274.622 484.618 274.834 484.512 275.151C482.397 281.073 479.012 288.158 479.012 288.158L478.589 287.946L475.416 286.783L473.724 286.148H473.618L468.542 284.245L468.119 284.034C468.119 284.034 468.859 282.342 469.705 280.121C470.34 278.535 471.08 276.631 471.82 274.834C471.926 274.622 471.926 274.516 472.032 274.305C472.243 273.67 472.455 273.036 472.666 272.507C472.984 271.661 473.301 270.815 473.513 270.075C473.724 269.441 473.936 268.806 474.041 268.383C474.465 266.903 475.311 265.845 476.368 264.999C477.743 263.836 479.435 263.307 480.493 262.99C480.493 262.99 480.493 262.99 480.599 262.99C480.81 262.884 481.022 262.884 481.234 262.779H481.339C482.608 262.567 484.83 264.788 485.887 267.537C485.993 267.749 485.993 267.854 486.099 268.066C486.099 268.066 486.099 268.066 486.099 268.172C486.522 268.806 485.887 271.344 484.83 274.305Z" fill="#FCB13A"/>
<path d="M492.233 263.202C491.387 264.471 490.541 265.422 489.695 266.162C489.272 266.585 488.849 266.797 488.426 267.114C488.003 267.326 487.685 267.537 487.262 267.643C486.839 267.749 486.522 267.854 486.099 267.854C485.993 267.854 485.887 267.854 485.781 267.854C485.253 267.854 484.83 267.749 484.301 267.643C483.56 267.431 482.926 267.008 482.397 266.585C482.397 266.585 482.291 266.585 482.291 266.48C481.657 265.951 481.128 265.422 480.705 264.894C480.493 264.576 480.282 264.365 480.176 264.153C479.964 263.836 479.753 263.625 479.753 263.413C479.647 263.307 479.647 263.307 479.647 263.307H479.753C479.859 263.307 479.964 263.307 479.964 263.307C480.493 263.202 480.916 262.99 481.234 262.673L481.339 262.567C481.657 262.144 481.868 261.615 481.868 261.087V250.935H489.801V253.79V261.087C489.801 261.51 489.906 261.933 490.118 262.25C490.224 262.461 490.435 262.779 490.752 262.884C490.858 262.99 491.07 263.096 491.281 263.202C491.704 263.096 491.916 263.202 492.233 263.202Z" fill="#CC6F49"/>
<path d="M490.012 253.685V253.896C489.589 254.636 489.272 255.377 488.849 255.799C487.368 257.703 484.83 258.443 483.137 258.76C482.714 258.866 482.397 258.866 481.974 258.866V257.174C482.609 257.28 483.243 257.386 483.878 257.28C485.57 256.963 488.108 256.117 489.589 254.319C489.695 254.108 489.906 253.896 490.012 253.685Z" fill="#0B334C"/>
<path d="M494.877 285.302C494.243 287.734 493.925 289.638 494.454 290.59C495.723 293.339 496.887 295.771 496.887 295.771H471.503C471.503 295.771 472.878 294.185 474.042 291.859C474.57 290.801 475.099 289.638 475.311 288.369C475.416 287.84 475.522 287.311 475.522 286.677C475.522 285.937 475.522 285.197 475.205 284.562V284.456C473.936 280.755 472.244 277.583 471.926 274.939C471.926 274.833 471.926 274.728 471.926 274.622C471.82 273.987 471.926 273.247 472.138 272.719C472.349 271.873 472.984 270.921 473.724 269.758C474.782 268.277 476.157 266.585 477.638 265.211C477.849 264.999 478.061 264.788 478.272 264.576C478.801 264.047 479.436 263.624 479.964 263.201C480.07 263.096 480.07 263.096 480.176 263.096C480.387 262.884 480.599 262.778 480.811 262.673C480.916 262.673 480.916 262.567 481.022 262.567L481.551 262.25V262.355V262.461C481.551 262.99 481.445 264.999 482.503 266.374C482.503 266.374 482.503 266.374 482.503 266.48C482.926 267.008 483.455 267.325 484.301 267.537H484.407C484.935 267.643 485.464 267.537 485.993 267.22C488.214 266.162 490.012 262.567 490.224 262.144V262.25C490.224 262.461 490.224 262.673 490.858 262.884C490.964 262.99 491.176 262.99 491.493 262.99C491.704 262.99 492.022 263.096 492.445 263.096C492.551 263.096 492.656 263.096 492.762 263.096C493.714 263.096 494.56 263.307 495.406 263.73C496.993 264.576 499.214 266.48 498.896 270.181C498.896 270.286 498.896 270.392 498.896 270.498C498.579 273.987 496.675 279.381 495.406 283.928C495.406 284.139 495.3 284.351 495.195 284.562C494.983 284.774 494.983 285.091 494.877 285.302Z" fill="#FCB13A"/>
<path d="M503.55 374.129C505.983 386.29 505.242 400.354 504.079 410.929H492.551L485.041 336.695V336.378V336.695L482.609 374.235C484.407 384.386 483.137 399.508 481.551 410.823H471.186C470.022 391.048 467.907 356.469 466.532 335.743V335.638C466.321 332.042 466.109 328.87 465.898 326.226C465.686 323.159 465.474 320.833 465.369 319.564C465.051 316.18 465.686 312.268 466.638 308.249C466.849 307.509 466.955 306.875 467.167 306.134C467.907 303.279 468.859 300.53 469.811 297.992C470.022 297.357 470.234 296.723 470.445 296.194C471.08 294.397 471.715 292.81 472.243 291.541C472.878 289.955 473.301 288.792 473.513 288.263C473.618 287.735 473.724 286.889 473.618 285.937V285.831C473.513 285.197 473.513 284.562 473.301 283.928C472.984 282.236 472.561 280.438 472.032 278.852C471.715 277.583 471.609 276.208 471.82 274.939C471.926 274.622 471.926 274.411 472.032 274.093C472.138 273.459 472.455 272.824 472.667 272.296C472.878 271.873 473.09 271.45 473.407 271.133L477.638 265.316L478.061 264.682L478.907 263.519L479.647 263.202L480.493 262.779L480.705 262.673L481.234 262.356V262.461V262.567L480.599 264.894L480.282 266.057L478.272 273.776L484.618 274.305L485.57 274.411L488.003 267.749L488.32 267.008L490.118 262.144V262.038V261.933L492.233 262.779V262.884L492.022 264.153L491.281 268.277L490.012 275.468L494.031 283.505L494.349 284.245L494.772 285.091L497.521 290.59C497.521 290.59 497.839 291.541 498.473 293.339C499.848 297.357 502.704 305.5 506.617 316.497C512.329 332.677 503.55 374.129 503.55 374.129Z" fill="#0B334C"/>
<path d="M480.493 263.307L477.109 274.516L486.416 275.257L490.964 262.461" stroke="white" stroke-width="0.3084" stroke-miterlimit="10" stroke-linecap="round" stroke-linejoin="round"/>
<path d="M481.551 338.81L489.06 334.368" stroke="white" stroke-width="0.3084" stroke-miterlimit="10" stroke-linecap="round" stroke-linejoin="round"/>
<path d="M483.455 307.826H502.492" stroke="white" stroke-width="0.3084" stroke-miterlimit="10" stroke-linecap="round" stroke-linejoin="round"/>
<path d="M496.358 307.932C496.358 307.932 496.993 322.419 504.608 323.159" stroke="white" stroke-width="0.3084" stroke-miterlimit="10" stroke-linecap="round" stroke-linejoin="round"/>
<path d="M499.848 307.932C499.848 307.932 505.137 319.353 504.819 325.697C504.502 332.042 500.694 374.975 500.694 374.975V408.814" stroke="white" stroke-width="0.3084" stroke-miterlimit="10" stroke-linecap="round" stroke-linejoin="round"/>
<path d="M482.821 337.752L480.917 374.235C480.917 374.235 480.388 391.788 479.33 409.448" stroke="white" stroke-width="0.3084" stroke-miterlimit="10" stroke-linecap="round" stroke-linejoin="round"/>
<path d="M447.847 246.231L376.337 292.62L422.722 364.125L494.232 317.736L447.847 246.231Z" fill="white"/>
<path d="M445.418 257.64L387.749 295.05L425.156 352.715L482.826 315.304L445.418 257.64Z" fill="#8EE4FD"/>
<path d="M476.051 304.865L482.82 315.334L425.178 352.768L415.024 337.118C417.034 331.09 420.736 325.592 426.13 322.313C430.678 319.564 436.072 318.612 441.36 317.661C450.456 315.969 465.263 308.249 476.051 304.865Z" fill="#2CD0D1"/>
<path d="M438.827 294.68C442.257 292.456 443.234 287.872 441.009 284.442C438.784 281.013 434.199 280.036 430.769 282.261C427.339 284.486 426.362 289.069 428.587 292.499C430.812 295.928 435.397 296.905 438.827 294.68Z" fill="#FCB13A"/>
<path d="M447.917 246.282L376.42 292.599L422.639 364.295L494.348 317.978L447.917 246.282Z" stroke="#0B334C" stroke-width="0.3084" stroke-miterlimit="10" stroke-linecap="round" stroke-linejoin="round"/>
<path d="M488.531 282.976C488.531 284.351 488.531 285.726 488.531 286.995C488.531 289.109 488.426 291.119 488.214 293.128C484.83 293.022 481.339 292.705 477.955 292.282C474.888 291.965 471.926 291.542 468.859 291.119C465.792 290.696 462.83 290.167 459.869 289.532H459.763C459.763 289.532 459.763 289.532 459.657 289.532C458.706 288.581 456.484 286.572 456.061 286.889C455.427 287.206 456.379 289.427 456.379 289.427C456.379 289.427 451.196 288.158 450.879 288.686C450.562 289.215 454.686 290.59 454.686 290.59C454.686 290.59 451.09 290.167 450.773 290.801C450.456 291.436 455.004 292.07 455.004 292.07C455.004 292.07 451.408 292.493 451.408 293.339C451.408 294.08 455.744 293.339 455.744 293.339C455.744 293.339 453.311 294.185 453.417 294.714C453.523 295.137 457.013 294.714 458.6 294.502C464.523 296.617 470.446 298.309 476.58 299.79C478.166 300.107 479.647 300.424 481.234 300.741C482.82 301.059 484.407 301.376 485.993 301.587C486.416 301.693 486.839 301.693 487.262 301.799C488.32 301.905 489.801 302.116 491.387 302.222C494.56 302.539 497.416 300.424 498.05 297.252C498.05 297.252 498.05 297.252 498.05 297.146C498.262 295.771 498.473 294.397 498.579 293.128C498.791 291.224 499.002 289.427 499.214 287.523C499.32 286.254 499.425 285.091 499.425 283.822C495.723 284.034 492.022 283.716 488.531 282.976Z" fill="#CC6F49"/>
<path d="M500.06 269.441C500.06 269.969 500.06 270.287 500.06 270.498C500.06 271.661 499.637 284.668 499.637 284.668H499.425L495.195 284.562H494.56L488.637 284.351H488.32C488.32 284.351 489.589 275.151 491.176 268.489C491.493 266.903 491.916 265.528 492.339 264.471C492.551 264.048 492.656 263.625 492.868 263.202C499.32 262.99 499.954 267.22 500.06 269.441Z" fill="#FCB13A"/>
<path d="M494.454 248.503C494.031 249.454 492.551 250.618 491.493 250.512C490.964 251.781 490.541 252.944 490.012 253.684C489.906 253.896 489.695 254.107 489.589 254.213C488.108 256.116 485.57 256.857 483.878 257.174C483.243 257.28 482.609 257.28 481.974 257.174C481.339 256.962 480.705 256.751 480.282 256.222C479.33 255.376 478.272 254.319 477.532 252.838C477.215 252.204 476.897 251.464 476.791 250.723C476.686 250.3 476.686 249.877 476.686 249.349C476.686 247.445 477.215 244.907 477.743 242.369C478.695 238.034 483.032 235.39 487.368 236.553C491.387 237.611 493.82 241.524 493.079 245.436C493.079 245.436 493.185 245.436 493.291 245.542C494.349 246.071 494.877 247.34 494.454 248.503Z" fill="#CC6F49"/>
<path d="M486.733 253.05C487.785 253.05 488.637 252.198 488.637 251.146C488.637 250.095 487.785 249.243 486.733 249.243C485.682 249.243 484.83 250.095 484.83 251.146C484.83 252.198 485.682 253.05 486.733 253.05Z" fill="#C4533A"/>
<path d="M479.542 251.146C479.542 252.204 478.696 253.05 477.638 253.05C477.532 253.05 477.532 253.05 477.532 253.05C477.215 252.415 476.897 251.675 476.791 250.935C476.686 250.512 476.686 250.089 476.686 249.56C477.003 249.349 477.32 249.243 477.638 249.243C478.696 249.243 479.542 250.089 479.542 251.146Z" fill="#C4533A"/>
<path d="M482.503 246.917C482.82 247.657 482.714 248.397 482.503 249.032C482.397 249.349 482.291 249.666 482.397 249.878C482.397 250.089 482.608 250.406 482.82 250.723C482.503 250.618 482.08 250.512 481.868 249.983C481.762 249.56 481.868 249.137 481.868 248.82C482.08 248.186 482.291 247.551 482.503 246.917Z" fill="#0B334C"/>
<path d="M484.301 244.696C484.724 244.484 485.253 244.484 485.782 244.59C485.994 244.696 486.311 244.802 486.417 245.013C486.628 245.225 486.734 245.436 486.84 245.648C486.84 245.753 486.84 245.753 486.734 245.859C486.628 245.859 486.628 245.859 486.523 245.859C486.205 245.542 485.888 245.33 485.57 245.33C485.253 245.225 484.83 245.33 484.407 245.33C484.301 245.33 484.089 245.225 484.089 245.119C484.195 244.802 484.195 244.802 484.301 244.696Z" fill="#0B334C"/>
<path d="M480.388 245.225C479.965 245.225 479.542 245.119 479.224 245.225C478.801 245.33 478.484 245.436 478.272 245.753C478.166 245.859 478.166 245.859 478.06 245.753C478.06 245.753 477.955 245.648 478.06 245.542C478.166 245.33 478.272 245.119 478.484 244.907C478.695 244.696 478.907 244.59 479.118 244.484C479.647 244.379 480.176 244.379 480.6 244.59C480.705 244.696 480.811 244.802 480.705 244.907C480.705 245.119 480.6 245.225 480.388 245.225Z" fill="#0B334C"/>
<path d="M479.648 249.032C480.056 249.032 480.388 248.511 480.388 247.868C480.388 247.226 480.056 246.705 479.648 246.705C479.239 246.705 478.907 247.226 478.907 247.868C478.907 248.511 479.239 249.032 479.648 249.032Z" fill="#0B334C"/>
<path d="M485.253 249.032C485.661 249.032 485.993 248.511 485.993 247.868C485.993 247.226 485.661 246.705 485.253 246.705C484.844 246.705 484.512 247.226 484.512 247.868C484.512 248.511 484.844 249.032 485.253 249.032Z" fill="#0B334C"/>
<path d="M484.089 252.204C484.301 252.098 484.406 252.098 484.618 251.992C484.829 251.992 484.935 251.887 485.146 251.781C485.041 251.992 484.829 252.098 484.723 252.204C484.512 252.098 484.301 252.204 484.089 252.204Z" fill="#0B334C"/>
<path d="M482.503 251.569C483.138 251.675 483.667 251.675 484.196 251.464C484.725 251.252 485.042 250.829 485.359 250.301C485.359 250.618 485.254 250.935 485.042 251.147C484.83 251.464 484.619 251.675 484.301 251.781C483.667 251.992 482.926 251.887 482.503 251.569Z" fill="#0B334C"/>
<path d="M502.281 260.558C501.752 257.808 500.694 255.165 498.473 253.473C499.108 251.358 499.002 249.137 498.262 247.022C497.521 245.013 496.147 243.216 494.137 242.264C494.349 240.678 489.378 231.372 479.436 235.708C477.214 236.659 476.157 239.409 476.474 242.264C474.888 243.639 474.042 245.753 473.936 247.868C473.83 249.983 474.253 251.992 474.888 254.002C475.311 255.059 475.734 256.222 476.263 257.28C475.416 258.02 474.993 259.077 474.888 260.135C474.782 261.192 475.099 262.356 475.628 263.307C475.84 263.836 476.157 264.259 476.58 264.682C477.955 263.519 479.647 262.99 480.705 262.673L480.916 262.567C481.128 262.461 481.339 262.356 481.445 262.25V262.356C481.762 261.933 481.974 261.404 481.974 260.875V257.174C481.339 256.962 480.705 256.751 480.282 256.222C479.33 255.376 478.272 254.319 477.532 252.838C477.214 252.204 476.897 251.464 476.791 250.723C476.686 250.301 476.686 249.878 476.686 249.349C476.686 247.974 477.003 246.282 477.32 244.379C478.272 244.379 480.282 244.167 482.397 242.264C482.397 242.264 483.243 247.022 488.954 246.494C488.954 246.494 488.637 248.926 489.801 249.032C490.752 249.137 492.339 246.599 493.079 245.225H493.185C494.243 245.648 494.877 246.917 494.349 248.08C493.925 249.032 492.445 250.195 491.387 250.089C490.858 251.358 490.435 252.521 489.906 253.261V260.558C489.906 260.981 490.012 261.404 490.224 261.721L492.339 262.567V262.673C492.445 262.673 492.55 262.673 492.656 262.673C499.319 262.567 500.06 266.797 500.06 268.912C501.223 267.22 502.387 265.422 502.598 263.519C502.704 262.779 502.492 261.721 502.281 260.558Z" fill="#0B334C"/>
</svg>
