<svg width="515" height="490" viewBox="0 0 515 490" fill="none" xmlns="http://www.w3.org/2000/svg">
<g clip-path="url(#clip0)">
<g opacity="0.41">
<g opacity="0.41">
<g opacity="0.41">
<path opacity="0.41" d="M514.776 309.12C515.224 300.832 515 292.544 514.103 284.368C509.73 245.84 489.883 209.44 460.73 183.68C450.303 174.496 438.529 166.32 431.689 154.224C420.253 133.84 421.15 110.432 407.021 90.384C392.893 70.224 372.15 54.544 348.94 46.48C279.421 22.4 182.207 61.6 191.065 145.152C191.065 145.488 191.177 145.936 191.177 146.384C192.298 163.744 178.731 178.304 161.351 178.752C97.2142 180.32 42.0476 229.6 30.2743 292.096C22.6496 332.304 35.0957 376.32 64.5852 404.768C86.5621 425.936 116.052 437.696 145.541 445.648C204.632 461.664 266.863 465.024 327.86 458.976C384.932 453.264 445.145 436.8 482.035 393.008C501.657 369.6 512.982 339.584 514.776 309.12Z" fill="#E1E2FE"/>
</g>
</g>
</g>
<g opacity="0.31">
<path opacity="0.31" d="M221.339 40.544C229.575 40.544 236.252 33.8748 236.252 25.648C236.252 17.4212 229.575 10.752 221.339 10.752C213.103 10.752 206.426 17.4212 206.426 25.648C206.426 33.8748 213.103 40.544 221.339 40.544Z" fill="#E1E2FE"/>
</g>
<g opacity="0.31">
<path opacity="0.31" d="M422.719 24.304C426.992 24.304 430.456 20.8441 430.456 16.576C430.456 12.308 426.992 8.84802 422.719 8.84802C418.446 8.84802 414.983 12.308 414.983 16.576C414.983 20.8441 418.446 24.304 422.719 24.304Z" fill="#E1E2FE"/>
</g>
<g opacity="0.31">
<path opacity="0.31" d="M151.259 69.216C156.957 69.216 161.575 64.6028 161.575 58.912C161.575 53.2213 156.957 48.608 151.259 48.608C145.562 48.608 140.944 53.2213 140.944 58.912C140.944 64.6028 145.562 69.216 151.259 69.216Z" fill="#E1E2FE"/>
</g>
<g opacity="0.31">
<path opacity="0.31" d="M32.4047 455.616C45.3473 455.616 55.8393 445.136 55.8393 432.208C55.8393 419.28 45.3473 408.8 32.4047 408.8C19.4622 408.8 8.97015 419.28 8.97015 432.208C8.97015 445.136 19.4622 455.616 32.4047 455.616Z" fill="#E1E2FE"/>
</g>
<path opacity="0.47" d="M508.384 66.528C515.112 53.536 509.954 37.52 496.948 30.912C483.941 24.192 458.824 24.752 452.209 37.744C445.481 50.736 465.552 61.936 473.737 74.032C485.062 90.944 501.657 79.52 508.384 66.528Z" fill="#ECF1F7"/>
<path opacity="0.47" d="M451.424 466.592C460.843 472.64 473.401 469.952 479.568 460.544C485.623 451.136 487.192 431.984 477.774 425.936C468.355 419.888 458.264 434.336 448.396 439.6C434.493 446.992 442.005 460.432 451.424 466.592Z" fill="#E1E2FE"/>
<path opacity="0.47" d="M66.6035 6.832C56.2878 -2.8 40.0294 -2.24 30.3865 8.176C20.7435 18.48 14.6887 41.888 25.0044 51.52C35.3201 61.152 51.0179 45.472 64.4731 40.992C83.3105 34.832 77.0314 16.464 66.6035 6.832Z" fill="#E1E2FE"/>
<path opacity="0.47" d="M9.41869 118.608C0.224268 138.656 -2.35466 161.728 2.13043 183.344C7.4004 208.768 23.2103 228.256 17.7161 255.36C14.3523 271.824 13.5674 287.168 11.8855 303.52C8.29742 337.12 30.1622 366.576 57.1849 382.592C79.1618 395.584 104.839 400.4 130.18 400.064C152.941 399.728 175.591 395.584 197.568 389.872C218.76 384.496 239.504 377.328 261.817 379.568C280.318 381.472 297.025 389.424 314.18 395.36C355.331 409.584 405.115 411.6 442.79 389.984C466.897 376.096 483.829 353.472 491.341 329.28C497.284 309.904 498.069 291.76 493.584 271.936C488.987 251.664 481.138 231.168 483.604 210C485.286 195.216 492.014 180.992 490.781 166.208C489.996 156.352 485.623 147.168 480.353 138.768C460.955 108.416 428.55 88.032 394.351 76.832C362.059 66.304 328.869 58.576 295.231 61.152C225.824 66.416 211.584 55.44 140.607 40.208C94.7475 30.352 43.5053 65.296 16.707 105.728C13.9038 109.872 11.5491 114.128 9.41869 118.608Z" fill="#E1E2FE"/>
<path opacity="0.81" d="M57.1849 149.856C55.7272 165.872 61.1093 182.336 56.6242 198.24C51.2421 217.168 35.5443 231.392 29.1531 250.096C19.7344 277.648 20.1829 308.448 31.6199 335.328C37.1141 348.208 45.1872 360.304 56.1757 368.592C73.1069 381.36 95.4202 384.16 116.276 382.592C147.447 380.128 180.3 366.688 211.584 370.384C228.852 372.4 234.122 391.104 243.092 403.424C253.183 417.312 266.975 428.288 282.112 435.568C310.144 449.008 343.67 450.24 372.262 438.144C402.761 425.152 429.447 393.456 427.653 357.616C426.868 341.04 420.14 324.576 423.28 308.224C427.092 287.728 442.566 269.136 453.779 252.448C466.113 234.08 473.625 212.128 475.083 189.728C475.083 189.504 475.083 189.168 475.083 188.944C477.325 150.304 452.994 115.024 416.104 102.928L337.727 77.168C258.453 50.96 179.067 51.856 105.96 90.16C90.1502 98.448 64.361 123.2 59.091 140.224C58.0819 143.36 57.5212 146.608 57.1849 149.856Z" fill="#E1E2FE"/>
<path opacity="0.58" d="M501.769 407.232C504.556 407.232 506.815 404.976 506.815 402.192C506.815 399.408 504.556 397.152 501.769 397.152C498.982 397.152 496.723 399.408 496.723 402.192C496.723 404.976 498.982 407.232 501.769 407.232Z" fill="#3E479B"/>
<path opacity="0.58" d="M268.769 14.336C271.555 14.336 273.815 12.0795 273.815 9.29598C273.815 6.51247 271.555 4.25598 268.769 4.25598C265.982 4.25598 263.723 6.51247 263.723 9.29598C263.723 12.0795 265.982 14.336 268.769 14.336Z" fill="#3E479B"/>
<path opacity="0.58" d="M86.45 453.712C89.2367 453.712 91.4957 451.455 91.4957 448.672C91.4957 445.888 89.2367 443.632 86.45 443.632C83.6633 443.632 81.4043 445.888 81.4043 448.672C81.4043 451.455 83.6633 453.712 86.45 453.712Z" fill="#3E479B"/>
<path opacity="0.58" d="M404.891 473.76C407.059 473.76 408.816 472.005 408.816 469.84C408.816 467.675 407.059 465.92 404.891 465.92C402.724 465.92 400.967 467.675 400.967 469.84C400.967 472.005 402.724 473.76 404.891 473.76Z" fill="#EF929C"/>
<path opacity="0.58" d="M64.1367 96.88C65.0656 96.88 65.8186 96.1279 65.8186 95.2C65.8186 94.2722 65.0656 93.52 64.1367 93.52C63.2078 93.52 62.4548 94.2722 62.4548 95.2C62.4548 96.1279 63.2078 96.88 64.1367 96.88Z" fill="#3E479B"/>
<path opacity="0.58" d="M422.451 45.0274C423.149 41.761 421.065 38.5474 417.794 37.8496C414.524 37.1518 411.307 39.2341 410.608 42.5005C409.91 45.7669 411.995 48.9805 415.265 49.6783C418.535 50.3761 421.752 48.2938 422.451 45.0274Z" fill="#EF929C"/>
<path opacity="0.58" d="M98.6518 17.229C98.9235 15.9588 98.1128 14.709 96.8411 14.4377C95.5694 14.1663 94.3182 14.9761 94.0465 16.2464C93.7749 17.5166 94.5856 18.7664 95.8573 19.0377C97.129 19.3091 98.3802 18.4993 98.6518 17.229Z" fill="#EF929C"/>
<path opacity="0.58" d="M477.325 7.34027C477.558 6.25147 476.863 5.18025 475.773 4.94766C474.683 4.71507 473.611 5.40919 473.378 6.49799C473.145 7.58679 473.84 8.65797 474.93 8.89056C476.02 9.12315 477.092 8.42907 477.325 7.34027Z" fill="#3E479B"/>
<path opacity="0.58" d="M49.9989 488.413C50.2317 487.324 49.5367 486.253 48.4467 486.021C47.3566 485.788 46.2843 486.483 46.0515 487.571C45.8188 488.66 46.5138 489.731 47.6038 489.964C48.6939 490.196 49.7662 489.502 49.9989 488.413Z" fill="#3E479B"/>
<g opacity="0.66">
<g opacity="0.66">
<g opacity="0.66">
<g opacity="0.66">
<path opacity="0.66" d="M195.438 187.264L186.467 186.592C185.795 179.872 183.664 173.6 180.413 168L187.252 162.176C190.728 159.264 191.065 154 188.149 150.64C185.234 147.168 179.964 146.832 176.6 149.744L169.76 155.568C164.715 151.424 158.772 148.4 152.269 146.72L152.941 137.76C153.278 133.28 149.914 129.36 145.429 128.912C140.944 128.576 137.019 131.936 136.571 136.416L135.898 145.376C129.17 146.048 122.891 148.176 117.285 151.424L111.454 144.592C108.539 141.12 103.269 140.784 99.9053 143.696C96.4293 146.608 96.093 151.872 99.0083 155.232L104.839 162.064C100.69 167.104 97.6627 173.04 95.9808 179.536L87.0107 178.864C82.5256 178.528 78.6011 181.888 78.1526 186.368C77.8162 190.848 81.18 194.768 85.6651 195.216L94.6353 195.888C95.3081 202.608 97.4385 208.88 100.69 214.48L93.8504 220.304C90.3745 223.216 90.0381 228.48 92.9534 231.84C95.8687 235.312 101.139 235.648 104.502 232.736L111.342 226.912C116.388 231.056 122.331 234.08 128.834 235.76L128.161 244.72C127.825 249.2 131.189 253.12 135.674 253.568C140.159 253.904 144.083 250.544 144.532 246.064L145.205 237.104C151.932 236.432 158.211 234.304 163.818 231.056L169.648 237.888C172.564 241.36 177.834 241.696 181.197 238.784C184.673 235.872 185.01 230.608 182.094 227.248L176.264 220.416C180.413 215.376 183.44 209.44 185.122 202.944L194.092 203.616C198.577 203.952 202.502 200.592 202.95 196.112C203.287 191.632 199.923 187.6 195.438 187.264ZM138.029 224.672C119.64 223.216 105.848 207.2 107.194 188.832C108.651 170.464 124.685 156.688 143.074 158.032C161.463 159.488 175.255 175.504 173.909 193.872C172.564 212.24 156.417 226.016 138.029 224.672Z" fill="white"/>
</g>
</g>
<g opacity="0.66">
<g opacity="0.66">
<path opacity="0.66" d="M386.054 438.592C384.933 438.592 383.923 438.368 382.914 437.808C381.344 436.912 380.111 435.568 379.55 433.776L377.981 428.736C373.832 429.184 369.683 428.848 365.759 427.728L363.292 432.432C361.61 435.792 357.461 437.136 354.098 435.344C352.528 434.448 351.294 433.104 350.734 431.312C350.173 429.52 350.397 427.728 351.182 426.048L353.649 421.344C350.397 418.768 347.818 415.52 345.688 411.936L340.642 413.504C337.054 414.624 333.242 412.608 332.008 409.024C331.448 407.232 331.672 405.44 332.457 403.76C333.354 402.192 334.7 400.96 336.494 400.4L341.539 398.832C341.091 394.688 341.427 390.544 342.548 386.624L337.839 384.16C336.269 383.264 335.036 381.92 334.475 380.128C333.915 378.336 334.139 376.544 334.924 374.864C335.821 373.296 337.166 372.064 338.96 371.504C340.754 370.944 342.548 371.168 344.23 371.952L348.94 374.416C351.519 371.168 354.77 368.592 358.358 366.464L356.789 361.424C355.667 357.84 357.686 354.032 361.274 352.8C363.068 352.24 364.862 352.464 366.544 353.248C368.113 354.144 369.347 355.488 369.907 357.28L371.477 362.32C375.626 361.872 379.775 362.208 383.699 363.328L386.166 358.624C387.848 355.264 391.997 353.92 395.36 355.712C398.724 357.392 400.07 361.536 398.276 364.896L395.809 369.6C399.061 372.176 401.639 375.424 403.77 379.008L408.816 377.44C410.61 376.88 412.404 377.104 414.086 377.888C415.655 378.784 416.889 380.128 417.449 381.92C418.571 385.504 416.552 389.312 412.964 390.544L407.919 392.112C408.367 396.256 408.031 400.4 406.909 404.32L411.619 406.784C414.983 408.464 416.328 412.608 414.534 415.968C413.637 417.536 412.292 418.768 410.498 419.328C408.703 419.888 406.909 419.664 405.228 418.88L400.518 416.416C397.939 419.664 394.688 422.24 391.1 424.368L392.669 429.408C393.23 431.2 393.006 432.992 392.221 434.672C391.324 436.24 389.978 437.472 388.184 438.032C387.511 438.48 386.727 438.592 386.054 438.592ZM379.55 426.384L381.681 433.216C382.017 434.336 382.802 435.344 383.923 435.904C385.045 436.464 386.278 436.576 387.399 436.24C388.521 435.904 389.53 435.12 390.09 434C390.651 432.88 390.763 431.648 390.427 430.528L388.296 423.696L389.081 423.248C393.006 421.12 396.482 418.32 399.173 414.736L399.733 413.952L406.125 417.2C407.246 417.76 408.479 417.872 409.6 417.536C410.722 417.2 411.731 416.416 412.292 415.296C413.413 413.056 412.628 410.256 410.273 409.136L403.882 405.888L404.106 404.992C405.452 400.736 405.788 396.256 405.228 391.888L405.115 390.992L411.955 388.864C414.422 388.08 415.768 385.504 414.983 383.152C414.646 382.032 413.861 381.024 412.74 380.464C411.619 379.904 410.385 379.792 409.264 380.128L402.424 382.256L401.976 381.472C399.845 377.552 397.042 374.08 393.454 371.392L392.669 370.832L395.921 364.448C397.042 362.208 396.257 359.408 393.903 358.288C391.66 357.168 388.857 357.952 387.736 360.304L384.484 366.688L383.587 366.464C379.326 365.12 374.841 364.784 370.468 365.344L369.571 365.456L367.441 358.624C367.104 357.504 366.319 356.496 365.198 355.936C364.077 355.376 362.843 355.264 361.722 355.6C359.255 356.384 357.91 358.96 358.695 361.312L360.825 368.144L360.04 368.592C356.116 370.72 352.64 373.52 349.949 377.104L349.388 377.888L342.997 374.64C341.876 374.08 340.642 373.968 339.521 374.304C338.4 374.64 337.391 375.424 336.83 376.544C336.269 377.664 336.157 378.896 336.494 380.016C336.83 381.136 337.615 382.144 338.736 382.704L345.127 385.952L344.903 386.848C343.558 391.104 343.221 395.584 343.782 399.952L343.894 400.848L337.054 402.976C335.933 403.312 334.924 404.096 334.363 405.216C333.803 406.336 333.69 407.568 334.027 408.688C334.812 411.152 337.391 412.496 339.745 411.712L346.585 409.584L347.034 410.368C349.164 414.288 351.967 417.76 355.555 420.448L356.34 421.008L353.088 427.392C352.528 428.512 352.416 429.744 352.752 430.864C353.088 431.984 353.873 432.992 354.995 433.552C357.237 434.672 360.04 433.888 361.162 431.536L364.413 425.152L365.31 425.376C369.571 426.72 374.056 427.056 378.429 426.496L379.55 426.384ZM374.617 420.112C370.805 420.112 366.88 419.216 363.404 417.312C357.573 414.288 353.313 409.248 351.406 402.976C349.388 396.816 350.061 390.208 352.976 384.384C356.004 378.56 361.049 374.304 367.329 372.4C373.496 370.384 380.111 371.056 385.942 373.968C391.772 376.992 396.033 382.032 397.939 388.304C399.958 394.464 399.285 401.072 396.369 406.896C393.454 412.72 388.296 416.976 382.017 418.88C379.55 419.776 377.084 420.112 374.617 420.112ZM374.617 373.52C372.374 373.52 370.132 373.856 367.889 374.528C362.283 376.32 357.686 380.24 354.882 385.392C352.191 390.656 351.631 396.592 353.425 402.304C355.219 407.904 359.143 412.496 364.301 415.296C369.571 417.984 375.514 418.544 381.232 416.752C386.839 414.96 391.436 411.04 394.239 405.888C396.93 400.624 397.491 394.688 395.697 388.976C393.903 383.376 389.978 378.784 384.82 375.984C381.681 374.416 378.205 373.52 374.617 373.52Z" fill="white"/>
</g>
</g>
<g opacity="0.66">
<g opacity="0.66">
<path opacity="0.66" d="M444.921 396.816C444.472 396.816 444.024 396.816 443.687 396.704C438.866 396.032 435.502 391.552 436.287 386.736L437.408 379.344C432.026 377.44 427.092 374.528 422.832 370.608L416.889 375.088C414.983 376.544 412.74 377.104 410.385 376.768C408.031 376.432 406.012 375.2 404.555 373.296C401.639 369.376 402.424 363.888 406.349 360.976L412.292 356.496C409.825 351.344 408.367 345.744 408.143 340.032L400.742 338.912C395.921 338.24 392.557 333.76 393.342 328.944C393.678 326.592 394.912 324.576 396.818 323.12C398.724 321.664 401.079 321.104 403.321 321.44L410.722 322.56C412.628 317.184 415.543 312.256 419.468 308L414.983 302.064C413.525 300.16 412.964 297.808 413.301 295.568C413.637 293.216 414.871 291.2 416.777 289.744C418.683 288.288 420.925 287.728 423.28 288.064C425.635 288.4 427.653 289.632 429.111 291.536L433.596 297.472C438.754 295.008 444.36 293.552 450.078 293.328L451.2 285.936C451.872 281.12 456.358 277.76 461.179 278.544C463.534 278.88 465.552 280.112 467.01 282.016C468.467 283.92 469.028 286.272 468.692 288.512L467.57 295.904C472.952 297.808 477.886 300.72 482.147 304.64L488.09 300.16C492.014 297.248 497.508 298.032 500.424 301.952C503.339 305.872 502.554 311.36 498.629 314.272L492.687 318.752C495.154 323.904 496.611 329.504 496.835 335.216L504.236 336.336C509.057 337.008 512.421 341.488 511.636 346.304C510.963 351.12 506.478 354.48 501.657 353.696L494.257 352.576C492.35 357.952 489.435 362.88 485.511 367.136L489.996 373.072C492.911 376.992 492.126 382.48 488.202 385.392C486.295 386.848 483.941 387.408 481.698 387.072C479.344 386.736 477.325 385.504 475.868 383.6L471.383 377.664C466.225 380.128 460.618 381.584 454.9 381.808L453.779 389.2C452.994 393.68 449.294 396.816 444.921 396.816ZM422.832 367.808L423.504 368.48C427.989 372.624 433.147 375.648 438.866 377.664L439.763 378L438.417 387.184C437.857 390.768 440.435 394.128 444.024 394.576C447.612 395.136 450.975 392.56 451.424 388.976L452.769 379.792H453.666C459.721 379.568 465.552 378.112 471.046 375.424L471.831 374.976L477.437 382.48C478.447 383.936 480.016 384.832 481.698 385.056C483.38 385.28 485.174 384.832 486.52 383.824C489.435 381.696 489.996 377.552 487.865 374.64L482.259 367.136L482.932 366.464C487.08 361.984 490.108 356.832 492.126 351.12L492.463 350.224L501.657 351.568C505.245 352.128 508.609 349.552 509.057 345.968C509.618 342.384 507.039 339.024 503.451 338.576L494.257 337.232V336.336C494.032 330.288 492.575 324.464 489.884 318.976L489.435 318.192L496.948 312.592C499.863 310.464 500.424 306.32 498.293 303.408C497.284 301.952 495.714 301.056 494.032 300.832C492.35 300.608 490.556 301.056 489.211 302.064L481.698 307.664L481.026 306.88C476.54 302.736 471.383 299.6 465.664 297.696L464.767 297.36L466.113 288.176C466.337 286.496 465.888 284.704 464.879 283.36C463.87 281.904 462.3 281.008 460.618 280.784C457.03 280.224 453.667 282.8 453.218 286.384L451.872 295.568H450.975C444.921 295.792 439.09 297.248 433.596 299.936L432.811 300.384L427.204 292.88C426.195 291.424 424.626 290.528 422.944 290.304C421.262 290.08 419.468 290.528 418.122 291.536C416.665 292.544 415.768 294.112 415.543 295.792C415.319 297.472 415.768 299.264 416.777 300.608L422.383 308.112L421.71 308.784C417.562 313.264 414.422 318.416 412.516 324.128L412.179 325.024L402.985 323.68C401.303 323.456 399.509 323.904 398.164 324.912C396.706 325.92 395.809 327.488 395.585 329.168C395.024 332.752 397.603 336.112 401.191 336.56L410.385 337.904V338.8C410.61 344.848 412.067 350.672 414.758 356.16L415.207 356.944L407.694 362.544C406.237 363.552 405.34 365.12 405.115 366.8C404.891 368.48 405.34 370.272 406.349 371.616C407.358 373.072 408.928 373.968 410.61 374.192C412.292 374.416 414.086 373.968 415.431 372.96L422.832 367.808ZM452.321 370.048C442.454 370.048 432.699 365.568 426.307 357.056C415.655 342.72 418.571 322.448 432.923 311.696C439.875 306.544 448.397 304.304 457.03 305.648C465.552 306.88 473.177 311.36 478.334 318.304C483.492 325.248 485.735 333.76 484.389 342.384C483.156 350.896 478.671 358.512 471.719 363.664C465.888 367.92 459.049 370.048 452.321 370.048ZM452.209 307.552C445.705 307.552 439.538 309.568 434.268 313.6C420.925 323.568 418.122 342.496 428.101 355.824C438.081 369.152 457.03 371.84 470.373 361.984C476.877 357.168 481.026 350.112 482.147 342.16C483.268 334.208 481.25 326.256 476.428 319.76C471.607 313.264 464.543 309.12 456.582 308C455.124 307.664 453.666 307.552 452.209 307.552Z" fill="white"/>
</g>
</g>
</g>
</g>
<g opacity="0.81">
<path opacity="0.81" d="M299.94 401.296H276.954C276.281 401.296 275.833 400.848 275.833 400.176C275.833 399.504 276.281 399.056 276.954 399.056H299.94C300.613 399.056 301.061 399.504 301.061 400.176C301.061 400.848 300.613 401.296 299.94 401.296Z" fill="white"/>
<path opacity="0.81" d="M299.94 425.264H276.954C276.281 425.264 275.833 424.816 275.833 424.144C275.833 423.472 276.281 423.024 276.954 423.024H299.94C300.613 423.024 301.061 423.472 301.061 424.144C301.061 424.704 300.613 425.264 299.94 425.264Z" fill="white"/>
<g opacity="0.81">
<g opacity="0.81">
<g opacity="0.81">
<path opacity="0.81" d="M317.32 449.456H175.143C173.461 449.456 172.115 448.112 172.115 446.432V372.736C172.115 371.056 173.461 369.712 175.143 369.712H317.32C319.002 369.712 320.347 371.056 320.347 372.736V446.432C320.459 448 319.002 449.456 317.32 449.456ZM175.143 371.84C174.694 371.84 174.358 372.176 174.358 372.624V446.32C174.358 446.768 174.694 447.104 175.143 447.104H317.32C317.768 447.104 318.105 446.768 318.105 446.32V372.624C318.105 372.176 317.768 371.84 317.32 371.84H175.143Z" fill="white"/>
<path opacity="0.66" d="M317.32 449.456H175.143C173.461 449.456 172.115 448.112 172.115 446.432V372.736C172.115 371.056 173.461 369.712 175.143 369.712H317.32C319.002 369.712 320.347 371.056 320.347 372.736V446.432C320.459 448 319.002 449.456 317.32 449.456ZM175.143 371.84C174.694 371.84 174.358 372.176 174.358 372.624V446.32C174.358 446.768 174.694 447.104 175.143 447.104H317.32C317.768 447.104 318.105 446.768 318.105 446.32V372.624C318.105 372.176 317.768 371.84 317.32 371.84H175.143Z" fill="white"/>
</g>
</g>
<path opacity="0.81" d="M299.94 389.76H190.168C189.495 389.76 189.046 389.312 189.046 388.64C189.046 387.968 189.495 387.52 190.168 387.52H299.94C300.613 387.52 301.061 387.968 301.061 388.64C301.061 389.2 300.613 389.76 299.94 389.76Z" fill="white"/>
<path opacity="0.81" d="M299.94 412.944H190.168C189.495 412.944 189.046 412.496 189.046 411.824C189.046 411.152 189.495 410.704 190.168 410.704H299.94C300.613 410.704 301.061 411.152 301.061 411.824C301.061 412.496 300.613 412.944 299.94 412.944Z" fill="white"/>
<path opacity="0.81" d="M249.371 401.296H190.168C189.495 401.296 189.046 400.848 189.046 400.176C189.046 399.504 189.495 399.056 190.168 399.056H249.371C250.044 399.056 250.492 399.504 250.492 400.176C250.492 400.848 250.044 401.296 249.371 401.296Z" fill="white"/>
<path opacity="0.81" d="M249.371 425.264H190.168C189.495 425.264 189.046 424.816 189.046 424.144C189.046 423.472 189.495 423.024 190.168 423.024H249.371C250.044 423.024 250.492 423.472 250.492 424.144C250.492 424.704 250.044 425.264 249.371 425.264Z" fill="white"/>
<path opacity="0.81" d="M230.085 436.352H190.168C189.495 436.352 189.046 435.904 189.046 435.232C189.046 434.56 189.495 434.112 190.168 434.112H230.085C230.758 434.112 231.206 434.56 231.206 435.232C231.206 435.792 230.758 436.352 230.085 436.352Z" fill="white"/>
</g>
</g>
<g opacity="0.81">
<path opacity="0.81" d="M79.6103 329.616H53.7089C53.0362 329.616 52.5876 329.168 52.5876 328.496C52.5876 327.824 53.0362 327.376 53.7089 327.376H79.6103C80.2831 327.376 80.7316 327.824 80.7316 328.496C80.7316 329.168 80.1709 329.616 79.6103 329.616Z" fill="white"/>
<path opacity="0.81" d="M79.6103 302.736H53.7089C53.0362 302.736 52.5876 302.288 52.5876 301.616C52.5876 300.944 53.0362 300.496 53.7089 300.496H79.6103C80.2831 300.496 80.7316 300.944 80.7316 301.616C80.7316 302.288 80.1709 302.736 79.6103 302.736Z" fill="white"/>
<g opacity="0.81">
<g opacity="0.81">
<g opacity="0.81">
<path opacity="0.81" d="M194.316 362.768H33.9745C32.2926 362.768 30.9471 361.424 30.9471 359.744V276.416C30.9471 274.736 32.2926 273.392 33.9745 273.392H194.316C195.998 273.392 197.344 274.736 197.344 276.416V359.744C197.344 361.424 195.998 362.768 194.316 362.768ZM33.9745 275.632C33.526 275.632 33.1896 275.968 33.1896 276.416V359.744C33.1896 360.192 33.526 360.528 33.9745 360.528H194.316C194.765 360.528 195.101 360.192 195.101 359.744V276.416C195.101 275.968 194.765 275.632 194.316 275.632H33.9745Z" fill="white"/>
<path opacity="0.66" d="M194.316 362.768H33.9745C32.2926 362.768 30.9471 361.424 30.9471 359.744V276.416C30.9471 274.736 32.2926 273.392 33.9745 273.392H194.316C195.998 273.392 197.344 274.736 197.344 276.416V359.744C197.344 361.424 195.998 362.768 194.316 362.768ZM33.9745 275.632C33.526 275.632 33.1896 275.968 33.1896 276.416V359.744C33.1896 360.192 33.526 360.528 33.9745 360.528H194.316C194.765 360.528 195.101 360.192 195.101 359.744V276.416C195.101 275.968 194.765 275.632 194.316 275.632H33.9745Z" fill="white"/>
</g>
</g>
<path opacity="0.81" d="M177.049 342.72H53.7089C53.0362 342.72 52.5876 342.272 52.5876 341.6C52.5876 340.928 53.0362 340.48 53.7089 340.48H177.049C177.722 340.48 178.17 340.928 178.17 341.6C178.17 342.16 177.722 342.72 177.049 342.72Z" fill="white"/>
<path opacity="0.81" d="M177.049 316.624H53.7089C53.0362 316.624 52.5876 316.176 52.5876 315.504C52.5876 314.832 53.0362 314.384 53.7089 314.384H177.049C177.722 314.384 178.17 314.832 178.17 315.504C178.17 316.176 177.722 316.624 177.049 316.624Z" fill="white"/>
<path opacity="0.81" d="M177.049 329.616H110.557C109.885 329.616 109.436 329.168 109.436 328.496C109.436 327.824 109.885 327.376 110.557 327.376H177.049C177.722 327.376 178.17 327.824 178.17 328.496C178.17 329.168 177.722 329.616 177.049 329.616Z" fill="white"/>
<path opacity="0.81" d="M177.049 302.736H110.557C109.885 302.736 109.436 302.288 109.436 301.616C109.436 300.944 109.885 300.496 110.557 300.496H177.049C177.722 300.496 178.17 300.944 178.17 301.616C178.17 302.288 177.722 302.736 177.049 302.736Z" fill="white"/>
<path opacity="0.81" d="M177.049 290.304H132.198C131.525 290.304 131.077 289.856 131.077 289.184C131.077 288.512 131.525 288.064 132.198 288.064H177.049C177.722 288.064 178.17 288.512 178.17 289.184C178.17 289.856 177.722 290.304 177.049 290.304Z" fill="white"/>
</g>
</g>
<path opacity="0.14" d="M381.12 408.016L258.453 335.328C257.444 334.768 257.108 333.424 257.78 332.528L356.789 165.648C357.349 164.64 358.695 164.304 359.592 164.976L482.259 237.664C483.268 238.224 483.604 239.568 482.932 240.464L383.923 407.344C383.363 408.352 382.017 408.688 381.12 408.016Z" fill="#3E479B"/>
<path d="M377.869 401.408L255.201 328.72C254.192 328.16 253.856 326.816 254.529 325.92L353.537 159.04C354.098 158.032 355.443 157.696 356.34 158.368L479.007 231.056C480.016 231.616 480.353 232.96 479.68 233.856L380.672 400.736C380.111 401.632 378.878 401.968 377.869 401.408Z" fill="#F7A9B4"/>
<path opacity="0.14" d="M413.189 399.28L272.917 373.408C271.796 373.184 271.011 372.064 271.236 370.944L306.444 180.32C306.668 179.2 307.789 178.416 308.91 178.64L449.181 204.512C450.303 204.736 451.088 205.856 450.863 206.976L415.655 397.712C415.319 398.832 414.31 399.504 413.189 399.28Z" fill="#3E479B"/>
<path d="M303.8 172.952L267.839 367.791L412.177 394.371L448.138 199.532L303.8 172.952Z" fill="white"/>
<path opacity="0.39" d="M410.161 394.016L269.89 368.144C268.769 367.92 267.984 366.8 268.208 365.68L303.416 174.944C303.64 173.824 304.762 173.04 305.883 173.264L446.154 199.136C447.275 199.36 448.06 200.48 447.836 201.6L412.628 392.336C412.292 393.456 411.282 394.128 410.161 394.016Z" fill="#F7A9B4"/>
<path d="M426.307 222.432C426.195 222.432 426.195 222.432 426.083 222.432L390.987 215.936C390.427 215.824 389.978 215.264 390.09 214.592C390.203 214.032 390.763 213.584 391.436 213.696L426.532 220.192C427.092 220.304 427.541 220.864 427.429 221.536C427.317 222.096 426.868 222.432 426.307 222.432Z" fill="white"/>
<path d="M424.177 233.632C424.065 233.632 424.065 233.632 423.953 233.632L388.857 227.136C388.296 227.024 387.848 226.464 387.96 225.792C388.072 225.232 388.633 224.784 389.305 224.896L424.401 231.392C424.962 231.504 425.41 232.064 425.298 232.736C425.186 233.296 424.738 233.632 424.177 233.632Z" fill="white"/>
<path d="M421.934 245.84C421.822 245.84 421.822 245.84 421.71 245.84L386.614 239.344C386.054 239.232 385.605 238.672 385.717 238C385.83 237.44 386.39 236.992 387.063 237.104L422.159 243.6C422.719 243.712 423.168 244.272 423.056 244.944C422.944 245.504 422.495 245.84 421.934 245.84Z" fill="white"/>
<path opacity="0.14" d="M367.665 256.144L307.453 245.056C306.219 244.832 305.434 243.712 305.659 242.48L317.544 177.856C317.768 176.624 318.89 175.84 320.123 176.064L380.335 187.152C381.569 187.376 382.354 188.496 382.129 189.728L370.244 254.352C370.02 255.584 368.898 256.368 367.665 256.144Z" fill="#3E479B"/>
<path d="M365.422 252.448L308.125 241.92C306.892 241.696 306.107 240.576 306.331 239.344L317.656 178.192C317.88 176.96 319.002 176.176 320.235 176.4L377.532 186.928C378.766 187.152 379.55 188.272 379.326 189.504L368.001 250.656C367.777 251.888 366.656 252.672 365.422 252.448Z" fill="#599AF2"/>
<path opacity="0.07" d="M378.317 195.216L316.535 183.792L317.656 177.968C317.88 176.736 319.002 175.952 320.235 176.176L377.756 186.816C378.878 187.04 379.663 188.16 379.438 189.28L378.317 195.216Z" fill="#ECF1F7"/>
<path d="M333.803 214.256C333.354 214.256 332.906 214.256 332.457 214.144L331.56 214.032C327.075 213.248 324.047 208.88 324.832 204.288L326.963 192.64C327.187 191.744 327.972 191.072 328.869 191.296C329.766 191.408 330.439 192.304 330.214 193.2L328.084 204.848C327.636 207.536 329.43 210.224 332.121 210.672L333.018 210.784C335.148 211.232 337.166 209.776 337.503 207.648L343.109 178.08C343.558 175.952 342.1 173.824 339.857 173.376L338.4 173.152C336.045 172.704 333.803 174.272 333.466 176.624L333.354 177.408C333.13 178.304 332.345 178.976 331.448 178.752C330.551 178.64 329.878 177.744 330.102 176.848L330.214 176.064C330.999 171.92 334.924 169.232 339.072 169.904L340.53 170.128C344.567 170.912 347.146 174.72 346.473 178.752L340.979 208.32C340.306 211.792 337.278 214.256 333.803 214.256Z" fill="#3E479B"/>
<path d="M339.633 189.392C339.633 189.392 339.521 189.392 339.633 189.392L317.096 185.248C316.759 185.248 316.535 184.912 316.647 184.576C316.759 184.24 316.984 184.016 317.32 184.128L339.745 188.272C340.082 188.272 340.306 188.608 340.194 188.944C340.082 189.28 339.857 189.392 339.633 189.392Z" fill="white"/>
<path d="M408.143 305.2C408.031 305.2 408.031 305.2 407.919 305.2L300.613 285.488C300.052 285.376 299.604 284.816 299.716 284.144C299.828 283.584 300.389 283.136 301.061 283.248L408.367 302.96C408.928 303.072 409.376 303.632 409.264 304.304C409.152 304.752 408.703 305.2 408.143 305.2Z" fill="white"/>
<path d="M400.518 346.752C400.406 346.752 400.406 346.752 400.294 346.752L292.988 327.04C292.428 326.928 291.979 326.368 292.091 325.696C292.203 325.136 292.764 324.688 293.437 324.8L400.742 344.512C401.303 344.624 401.752 345.184 401.639 345.856C401.527 346.304 401.079 346.752 400.518 346.752Z" fill="white"/>
<path d="M347.706 315.504C347.594 315.504 347.594 315.504 347.482 315.504L296.801 306.208C296.24 306.096 295.791 305.536 295.904 304.864C296.016 304.304 296.576 303.856 297.249 303.968L347.931 313.264C348.491 313.376 348.94 313.936 348.828 314.608C348.715 315.168 348.267 315.504 347.706 315.504Z" fill="white"/>
<path d="M354.77 277.648C354.658 277.648 354.658 277.648 354.546 277.648L303.865 268.352C303.304 268.24 302.855 267.68 302.968 267.008C303.08 266.448 303.64 266 304.313 266.112L354.995 275.408C355.555 275.52 356.004 276.08 355.892 276.752C355.779 277.312 355.331 277.648 354.77 277.648Z" fill="white"/>
<path d="M404.331 325.808C404.218 325.808 404.218 325.808 404.106 325.808L355.779 316.96C355.219 316.848 354.77 316.288 354.882 315.616C354.995 315.056 355.555 314.608 356.228 314.72L404.555 323.568C405.115 323.68 405.564 324.24 405.452 324.912C405.34 325.36 404.891 325.808 404.331 325.808Z" fill="white"/>
<path d="M393.006 105.616H333.354C331.336 105.616 329.654 103.936 329.654 101.92V81.984C329.654 79.968 331.336 78.288 333.354 78.288H393.006C395.024 78.288 396.706 79.968 396.706 81.984V101.92C396.706 103.936 395.024 105.616 393.006 105.616Z" fill="#599AF2"/>
<path d="M437.969 135.52H354.546C352.528 135.52 350.846 133.84 350.846 131.824V102.144C350.846 100.128 352.528 98.448 354.546 98.448H437.969C439.987 98.448 441.669 100.128 441.669 102.144V131.824C441.669 133.84 439.987 135.52 437.969 135.52Z" fill="#F7A9B4"/>
<path d="M372.935 127.68H465.328C468.131 127.68 470.373 129.92 470.373 132.72V160.944C470.373 163.744 468.131 165.984 465.328 165.984H372.935C370.132 165.984 367.889 163.744 367.889 160.944V132.72C367.889 129.92 370.244 127.68 372.935 127.68Z" fill="white"/>
<path opacity="0.74" d="M372.935 127.68H465.328C468.131 127.68 470.373 129.92 470.373 132.72V160.944C470.373 163.744 468.131 165.984 465.328 165.984H372.935C370.132 165.984 367.889 163.744 367.889 160.944V132.72C367.889 129.92 370.244 127.68 372.935 127.68Z" fill="#6D6CD4"/>
<path d="M437.857 151.312C435.39 151.312 433.371 149.296 433.371 146.832C433.371 144.368 435.39 142.352 437.857 142.352C440.323 142.352 442.342 144.368 442.342 146.832C442.342 149.408 440.323 151.312 437.857 151.312ZM437.857 143.584C436.063 143.584 434.493 145.04 434.493 146.944C434.493 148.736 435.95 150.304 437.857 150.304C439.763 150.304 441.22 148.848 441.22 146.944C441.22 145.04 439.763 143.584 437.857 143.584Z" fill="white"/>
<path d="M419.468 151.312C417.001 151.312 414.983 149.296 414.983 146.832C414.983 144.368 417.001 142.352 419.468 142.352C421.935 142.352 423.953 144.368 423.953 146.832C423.953 149.408 421.935 151.312 419.468 151.312ZM419.468 143.584C417.674 143.584 416.104 145.04 416.104 146.944C416.104 148.736 417.562 150.304 419.468 150.304C421.262 150.304 422.832 148.848 422.832 146.944C422.832 145.04 421.374 143.584 419.468 143.584Z" fill="white"/>
<path d="M402.424 151.312C399.958 151.312 397.939 149.296 397.939 146.832C397.939 144.368 399.958 142.352 402.424 142.352C404.891 142.352 406.909 144.368 406.909 146.832C406.797 149.408 404.891 151.312 402.424 151.312ZM402.424 143.584C400.63 143.584 399.061 145.04 399.061 146.944C399.061 148.736 400.518 150.304 402.424 150.304C404.218 150.304 405.788 148.848 405.788 146.944C405.676 145.04 404.218 143.584 402.424 143.584Z" fill="white"/>
<path d="M148.343 80.976H291.418C294.333 80.976 296.688 83.328 296.688 86.24V296.8C296.688 306.768 288.615 314.832 278.635 314.832H179.291C158.099 314.832 140.943 297.696 140.943 276.528V88.368C140.831 84.224 144.195 80.976 148.343 80.976Z" fill="white"/>
<path opacity="0.39" d="M142.738 80.976H293.885C295.455 80.976 296.688 82.208 296.688 83.776V297.584C296.688 307.104 288.952 314.72 279.533 314.72H175.927C156.642 314.72 140.944 299.04 140.944 279.776V82.768C140.832 81.76 141.729 80.976 142.738 80.976Z" fill="#6D6CD4"/>
<path opacity="0.39" d="M155.969 80.976H294.446C295.679 80.976 296.688 81.984 296.688 83.216V298.256C296.688 307.44 289.288 314.832 280.094 314.832H189.159C170.209 314.832 154.735 299.488 154.735 280.448V82.208C154.735 81.536 155.296 80.976 155.969 80.976Z" fill="#3E479B"/>
<path d="M176.488 314.72H301.622C315.974 314.72 327.748 303.072 327.748 288.624V278.768H201.156V288.624C201.156 302.624 190.168 313.936 176.488 314.72Z" fill="#6161B5"/>
<g opacity="0.28">
<path opacity="0.28" d="M193.083 314.72H304.425C317.208 314.72 327.636 303.072 327.636 288.624V278.768H214.948V288.624C214.948 302.624 205.305 313.936 193.083 314.72Z" fill="#3E479B"/>
</g>
<path d="M273.03 251.776H183.104C182.431 251.776 181.982 251.328 181.982 250.656C181.982 249.984 182.431 249.536 183.104 249.536H273.03C273.702 249.536 274.151 249.984 274.151 250.656C274.151 251.328 273.59 251.776 273.03 251.776Z" fill="white"/>
<path d="M274.824 214.032H181.31C180.637 214.032 180.188 213.584 180.188 212.912C180.188 212.24 180.637 211.792 181.31 211.792H274.824C275.496 211.792 275.945 212.24 275.945 212.912C275.945 213.472 275.496 214.032 274.824 214.032Z" fill="white"/>
<path d="M228.067 232.848H180.3C179.628 232.848 179.179 232.4 179.179 231.728C179.179 231.056 179.628 230.608 180.3 230.608H228.067C228.739 230.608 229.188 231.056 229.188 231.728C229.188 232.4 228.627 232.848 228.067 232.848Z" fill="white"/>
<path d="M224.366 232.848H183.889C183.216 232.848 182.767 232.4 182.767 231.728C182.767 231.056 183.216 230.608 183.889 230.608H224.479C225.151 230.608 225.6 231.056 225.6 231.728C225.488 232.4 225.039 232.848 224.366 232.848Z" fill="white"/>
<path d="M243.54 173.6H181.982C181.31 173.6 180.861 173.152 180.861 172.48C180.861 171.808 181.31 171.36 181.982 171.36H243.54C244.213 171.36 244.661 171.808 244.661 172.48C244.661 173.04 244.213 173.6 243.54 173.6Z" fill="white"/>
<path d="M272.133 173.6H253.407C252.735 173.6 252.286 173.152 252.286 172.48C252.286 171.808 252.735 171.36 253.407 171.36H272.133C272.805 171.36 273.254 171.808 273.254 172.48C273.254 173.04 272.693 173.6 272.133 173.6Z" fill="white"/>
<path d="M274.824 192.416H208.22C207.547 192.416 207.099 191.968 207.099 191.296C207.099 190.624 207.547 190.176 208.22 190.176H274.824C275.496 190.176 275.945 190.624 275.945 191.296C275.945 191.968 275.496 192.416 274.824 192.416Z" fill="white"/>
<path d="M201.605 192.416H181.31C180.637 192.416 180.188 191.968 180.188 191.296C180.188 190.624 180.637 190.176 181.31 190.176H201.605C202.277 190.176 202.726 190.624 202.726 191.296C202.726 191.968 202.277 192.416 201.605 192.416Z" fill="white"/>
<path d="M273.03 157.584H183.104C182.431 157.584 181.982 157.136 181.982 156.464C181.982 155.792 182.431 155.344 183.104 155.344H273.03C273.702 155.344 274.151 155.792 274.151 156.464C274.151 157.024 273.59 157.584 273.03 157.584Z" fill="white"/>
<path d="M273.03 119.728H183.104C182.431 119.728 181.982 119.28 181.982 118.608C181.982 117.936 182.431 117.488 183.104 117.488H273.03C273.702 117.488 274.151 117.936 274.151 118.608C274.151 119.28 273.59 119.728 273.03 119.728Z" fill="white"/>
<path d="M216.069 138.656H181.982C181.31 138.656 180.861 138.208 180.861 137.536C180.861 136.864 181.31 136.416 181.982 136.416H216.069C216.742 136.416 217.19 136.864 217.19 137.536C217.19 138.096 216.63 138.656 216.069 138.656Z" fill="white"/>
<path d="M272.357 138.656H231.767C231.094 138.656 230.646 138.208 230.646 137.536C230.646 136.864 231.094 136.416 231.767 136.416H272.357C273.03 136.416 273.478 136.864 273.478 137.536C273.478 138.096 272.917 138.656 272.357 138.656Z" fill="white"/>
<path opacity="0.21" d="M343.109 290.304C382.308 290.304 414.086 258.563 414.086 219.408C414.086 180.253 382.308 148.512 343.109 148.512C303.91 148.512 272.133 180.253 272.133 219.408C272.133 258.563 303.91 290.304 343.109 290.304Z" fill="white"/>
<path opacity="0.76" d="M287.494 224.448C285.027 224.448 283.009 222.432 283.009 219.968C283.009 184.24 312.162 155.12 347.931 155.12C350.397 155.12 352.416 157.136 352.416 159.6C352.416 162.064 350.397 164.08 347.931 164.08C317.096 164.08 291.979 189.168 291.979 219.968C291.979 222.432 289.961 224.448 287.494 224.448Z" fill="white"/>
<path opacity="0.58" d="M343.109 292.544C302.743 292.544 269.89 259.728 269.89 219.408C269.89 179.088 302.743 146.272 343.109 146.272C383.475 146.272 416.328 179.088 416.328 219.408C416.328 259.728 383.475 292.544 343.109 292.544ZM343.109 150.752C305.21 150.752 274.375 181.552 274.375 219.408C274.375 257.264 305.21 288.064 343.109 288.064C381.008 288.064 411.843 257.264 411.843 219.408C411.843 181.552 381.008 150.752 343.109 150.752Z" fill="#3E479B"/>
<path d="M408.255 270.144C408.367 270.032 408.479 269.92 408.591 269.92C419.356 255.92 425.859 238.448 425.859 219.408C425.859 173.712 388.745 136.64 342.997 136.64C297.249 136.64 260.135 173.712 260.135 219.408C260.135 265.104 297.249 302.176 342.997 302.176C361.946 302.176 379.438 295.792 393.342 285.04L402.873 275.52L408.255 270.144ZM343.109 290.304C303.865 290.304 272.133 258.608 272.133 219.408C272.133 180.208 303.865 148.512 343.109 148.512C382.354 148.512 414.086 180.208 414.086 219.408C414.086 258.496 382.241 290.304 343.109 290.304Z" fill="#3E479B"/>
<path d="M343.109 303.184C296.801 303.184 259.126 265.552 259.126 219.296C259.126 173.04 296.801 135.408 343.109 135.408C389.418 135.408 427.092 173.04 427.092 219.296C427.092 238 421.037 255.696 409.6 270.48L409.376 270.704C409.264 270.816 409.152 270.816 409.152 270.928L394.239 285.824C379.326 297.248 361.722 303.184 343.109 303.184ZM343.109 137.76C298.034 137.76 261.368 174.384 261.368 219.408C261.368 264.432 298.034 301.056 343.109 301.056C361.162 301.056 378.429 295.232 392.781 284.256L407.582 269.472C407.694 269.36 407.806 269.248 407.919 269.136C419.019 254.8 424.85 237.552 424.85 219.408C424.738 174.384 388.072 137.76 343.109 137.76ZM343.109 291.424C303.304 291.424 271.011 259.168 271.011 219.408C271.011 179.648 303.304 147.392 343.109 147.392C382.914 147.392 415.207 179.648 415.207 219.408C415.207 259.168 382.802 291.424 343.109 291.424ZM343.109 149.632C304.649 149.632 273.254 180.88 273.254 219.408C273.254 257.824 304.537 289.184 343.109 289.184C381.569 289.184 412.964 257.936 412.964 219.408C412.964 180.88 381.569 149.632 343.109 149.632Z" fill="#3E479B"/>
<path d="M406.237 283.136L402.985 279.888C401.752 278.656 401.752 276.64 402.985 275.408L393.454 284.928L393.342 285.04C392.109 286.272 392.109 288.288 393.342 289.52L397.266 293.44C398.5 291.312 402.312 287.168 406.237 283.136Z" fill="#4C65BA"/>
<path d="M403.097 275.408C401.864 276.64 401.864 278.656 403.097 279.888L406.349 283.136C410.273 279.216 414.31 275.52 416.552 273.952L412.852 270.256C411.731 269.136 409.937 269.024 408.703 270.032C408.591 270.144 408.479 270.256 408.367 270.256L403.097 275.408Z" fill="#4C65BA"/>
<path opacity="0.43" d="M403.097 275.408C401.864 276.64 401.864 278.656 403.097 279.888L406.349 283.136C410.273 279.216 414.31 275.52 416.552 273.952L412.852 270.256C411.731 269.136 409.937 269.024 408.703 270.032C408.591 270.144 408.479 270.256 408.367 270.256L403.097 275.408Z" fill="#3E479B"/>
<path d="M476.653 332.08L418.346 273.168C418.122 272.944 417.449 273.28 416.552 273.84C414.31 275.408 410.161 279.104 406.349 283.024C402.312 287.056 398.612 291.312 397.267 293.44C396.818 294.112 396.706 294.672 396.818 294.784L455.124 353.696C461.067 359.632 470.71 359.632 476.54 353.696C482.483 347.76 482.483 338.128 476.653 332.08Z" fill="#599AF2"/>
<path opacity="0.14" d="M476.653 332.08L418.346 273.168C417.562 272.384 410.946 278.32 405.228 284.144C400.406 289.184 470.71 359.632 476.653 353.696C482.483 347.76 482.483 338.128 476.653 332.08Z" fill="#3E479B"/>
<path d="M261.256 258.944H69.5188C58.3061 258.944 49.2238 249.872 49.2238 238.672C49.2238 227.472 58.3061 218.4 69.5188 218.4H261.256C272.469 218.4 281.551 227.472 281.551 238.672C281.551 249.872 272.469 258.944 261.256 258.944Z" fill="white"/>
<path d="M261.256 258.944H230.085L229.973 218.4H261.256C272.469 218.4 281.551 227.472 281.551 238.672C281.551 249.872 272.469 258.944 261.256 258.944Z" fill="#599AF2"/>
<path d="M253.407 245.84C248.474 245.84 244.549 241.92 244.549 236.992C244.549 232.064 248.474 228.144 253.407 228.144C258.341 228.144 262.265 232.064 262.265 236.992C262.265 239.344 261.368 241.584 259.687 243.264C258.005 244.944 255.762 245.84 253.407 245.84ZM253.407 230.384C249.707 230.384 246.792 233.408 246.792 236.992C246.792 240.688 249.819 243.6 253.407 243.6C255.201 243.6 256.883 242.928 258.117 241.696C259.35 240.464 260.023 238.784 260.023 236.992C260.023 233.296 256.995 230.384 253.407 230.384Z" fill="white"/>
<path d="M265.854 250.656C265.517 250.656 265.293 250.544 265.069 250.32L258.005 243.264C257.556 242.816 257.556 242.144 258.005 241.696C258.453 241.248 259.126 241.248 259.574 241.696L266.638 248.752C267.087 249.2 267.087 249.872 266.638 250.32C266.414 250.544 266.078 250.656 265.854 250.656Z" fill="white"/>
<path d="M263.947 300.832H168.527C161.799 300.832 156.417 295.456 156.417 288.736V280.784C156.417 274.064 151.035 268.688 144.308 268.688H100.242C93.514 268.688 88.1319 274.064 88.1319 280.784V312.032V347.984V406.56C88.1319 412.832 93.1776 417.872 99.4568 417.872H264.059C270.339 417.872 275.384 412.832 275.384 406.56V312.032C275.272 305.872 270.226 300.832 263.947 300.832Z" fill="#F28393"/>
<path d="M253.52 300.832H158.099C151.372 300.832 145.99 295.456 145.99 288.736V280.784C145.99 274.064 140.607 268.688 133.88 268.688H89.7017C82.9741 268.688 77.592 274.064 77.592 280.784V312.032V347.984V406.56C77.592 412.832 82.6377 417.872 88.9168 417.872H253.52C259.799 417.872 264.844 412.832 264.844 406.56V312.032C264.732 305.872 259.686 300.832 253.52 300.832Z" fill="#F28393"/>
<path opacity="0.12" d="M253.52 300.832H158.099C151.372 300.832 145.99 295.456 145.99 288.736V280.784C145.99 274.064 140.607 268.688 133.88 268.688H89.7017C82.9741 268.688 77.592 274.064 77.592 280.784V312.032V347.984V406.56C77.592 412.832 82.6377 417.872 88.9168 417.872H253.52C259.799 417.872 264.844 412.832 264.844 406.56V312.032C264.732 305.872 259.686 300.832 253.52 300.832Z" fill="white"/>
<path opacity="0.12" d="M229.3 300.832H146.999C141.28 300.832 136.571 295.456 136.571 288.736V280.784C136.571 274.064 131.862 268.688 126.143 268.688H88.1319C82.3013 268.688 77.7041 274.064 77.7041 280.784V312.032V347.984V406.56C77.7041 412.832 82.0771 417.872 87.4592 417.872H229.412C234.794 417.872 239.167 412.832 239.167 406.56V312.032C239.055 305.872 234.682 300.832 229.3 300.832Z" fill="white"/>
<path d="M86.45 313.376C85.7772 313.376 85.3287 312.928 85.3287 312.256V284.816C85.3287 280.56 88.8047 277.088 93.0655 277.088H125.582C126.255 277.088 126.704 277.536 126.704 278.208C126.704 278.88 126.255 279.328 125.582 279.328H93.0655C90.0381 279.328 87.5713 281.792 87.5713 284.816V312.256C87.5713 312.928 87.0106 313.376 86.45 313.376Z" fill="white"/>
</g>
<defs>
<clipPath id="clip0">
<rect width="515" height="490" fill="white"/>
</clipPath>
</defs>
</svg>
