<svg width="677" height="408" viewBox="0 0 677 408" fill="none" xmlns="http://www.w3.org/2000/svg">
<g clip-path="url(#clip0)">
<g opacity="0.34">
<g opacity="0.34">
<g opacity="0.6">
<path opacity="0.6" d="M587.5 262.5C592.3 283.6 591.5 303 585.1 323.7C577.1 349.6 559.1 373.7 533.3 388.5C524.3 393.7 514.6 397.6 504.5 400.4C502.9 403 501.1 405.6 499.2 408H585.4C607.3 381.9 619.9 348.4 621.9 314.4C622.4 305.2 622.2 295.9 621.2 286.8C617.2 251.3 601.4 217.5 577.8 190.6C577.5 192.5 577.2 194.4 576.9 196.3C574.2 218.9 582.5 240.8 587.5 262.5Z" fill="#53D0F7"/>
</g>
<g opacity="0.41">
<path opacity="0.41" d="M320.5 402.8C315.4 395.8 311.5 386.9 306.1 379.8C294.6 382.1 283.3 385.5 271.8 388.5C248.3 394.5 224.1 399 199.9 399.3C173 399.7 145.5 394.5 122.1 380.6C104.2 370 88.5 353.9 80 334.7C82.4 361.2 92 387.1 108.2 408.1H324.6C323.1 406.3 321.8 404.6 320.5 402.8Z" fill="#53D0F7"/>
</g>
<g opacity="0.41">
<path opacity="0.41" d="M354.6 38.5C361.1 38.3 368.2 37.9 375.9 37.3C411.7 34.6 447.2 42.8 481.6 54C484.9 55.1 488.2 56.3 491.5 57.5C476.7 41.2 457.8 28.5 437 21.3C395.8 7 345.9 12.7 309.7 35.2C324.6 35.3 339.6 36.4 354.6 38.5Z" fill="#53D0F7"/>
</g>
<g opacity="0.35">
<path opacity="0.35" d="M121.2 380.9C144.6 394.4 172 399.6 198.9 399.4C223.1 399.2 247.4 395 270.9 389.3C282.4 386.5 293.8 383.3 305.3 381.1C300.6 375 294.8 370.2 286.2 369.2C252.8 365.2 217.7 379 184.5 381.3C162.2 382.9 138.5 379.8 120.4 366.5C108.7 357.8 100.2 345.4 94.3 332C82.2 304.2 81.9 272.3 92.1 243.8C99 224.6 115.8 209.9 121.6 190.3C126.5 173.9 120.8 156.8 122.4 140.3C122.7 136.9 123.4 133.6 124.4 130.3C130.1 112.7 157.7 87.3 174.6 78.8C215.1 58.4 257.4 48.5 300.6 47.5C276.1 43.4 252.9 36 211.8 27.3C163.1 16.7 108.2 52.5 79.4 94.2C76.5 98.5 73.9 102.9 71.7 107.5C61.7 128.2 58.9 152.1 63.5 174.5C68.9 200.8 85.7 221.1 79.7 249.1C76 266.2 75.1 282 73.2 298.9C71.7 312.1 74.2 324.7 79.3 336.2C87.7 354.8 103.4 370.5 121.2 380.9Z" fill="#53D0F7"/>
</g>
<g opacity="0.47">
<path opacity="0.47" d="M375.9 37.3C368.2 37.9 361.2 38.3 354.6 38.5C376.8 41.6 399.2 47 421.5 54.3L505 81.8C544.3 94.7 570.3 132.3 567.8 173.6C567.8 173.9 567.8 174.1 567.7 174.4C566.1 198.3 558.2 221.8 545 241.4C533.1 259.2 516.6 279.1 512.5 301C509.2 318.4 516.3 336 517.2 353.7C518 370.5 513 386.5 504.3 400.3C514.4 397.5 524.1 393.6 533.1 388.4C558.8 373.6 576.9 349.5 584.9 323.6C591.3 302.9 592.1 283.5 587.3 262.4C582.4 240.7 574.1 218.8 576.7 196.2C576.9 194.3 577.2 192.4 577.6 190.5C580.1 176.7 585.6 163.3 584.4 149.4C583.5 138.9 578.9 129 573.2 120.2C554.4 90.7 524.2 70 491.3 57.5C488 56.3 484.7 55.1 481.4 54C447.2 42.8 411.7 34.6 375.9 37.3Z" fill="#53D0F7"/>
</g>
<g opacity="0.7">
<path opacity="0.7" d="M124.1 121.7C123 125.1 122.4 128.6 122.1 132.1C120.6 149.2 126.3 166.8 121.5 183.7C115.7 204 99 219.1 92.2 239C82.1 268.4 82.6 301.3 94.8 330C100.7 343.8 109.3 356.6 121 365.5C139.1 379.2 162.8 382.2 185.1 380.4C218.3 377.8 253.3 363.4 286.7 367.4C295.3 368.4 301.2 373.3 305.9 379.6C311.3 386.7 315.2 395.6 320.3 402.6C321.6 404.4 323 406.2 324.4 407.9H499C500.9 405.4 502.7 402.9 504.3 400.3C513 386.5 518 370.5 517.2 353.7C516.3 336 509.2 318.4 512.5 301C516.6 279.2 533.1 259.2 545 241.4C558.2 221.7 566.1 198.3 567.7 174.4C567.7 174.1 567.7 173.9 567.8 173.6C570.2 132.3 544.2 94.7 505 81.8L421.5 54.2999C399.1 46.9 376.8 41.6 354.6 38.5C339.6 36.4 324.6 35.2 309.7 35.2C306.4 35.2 303.2 35.1999 299.9 35.2999C256.8 36.5999 214.5 46.9999 174.1 68.1999C157.2 77.1999 129.8 103.6 124.1 121.7Z" fill="#53D0F7"/>
</g>
<g opacity="0.35">
<path opacity="0.35" d="M278.4 27.2C285.911 27.2 292 21.1111 292 13.6C292 6.08893 285.911 0 278.4 0C270.889 0 264.8 6.08893 264.8 13.6C264.8 21.1111 270.889 27.2 278.4 27.2Z" fill="#53D0F7"/>
</g>
<g opacity="0.35">
<path opacity="0.35" d="M645.6 205.8C662.555 205.8 676.3 192.055 676.3 175.1C676.3 158.145 662.555 144.4 645.6 144.4C628.645 144.4 614.9 158.145 614.9 175.1C614.9 192.055 628.645 205.8 645.6 205.8Z" fill="#53D0F7"/>
</g>
<g opacity="0.35">
<path opacity="0.35" d="M30.7 264.6C47.6551 264.6 61.4 250.855 61.4 233.9C61.4 216.945 47.6551 203.2 30.7 203.2C13.7449 203.2 0 216.945 0 233.9C0 250.855 13.7449 264.6 30.7 264.6Z" fill="#53D0F7"/>
</g>
<g opacity="0.35">
<path opacity="0.35" d="M524.643 48.7562C528.274 45.1244 528.274 39.236 524.643 35.6041C521.011 31.9723 515.122 31.9723 511.49 35.6042C507.859 39.236 507.859 45.1244 511.49 48.7562C515.122 52.388 521.011 52.3881 524.643 48.7562Z" fill="#53D0F7"/>
</g>
</g>
</g>
<path d="M630.2 404.2H53.1C52.5 404.2 51.9 403.7 51.9 403V402.6C51.9 402 52.4 401.4 53.1 401.4H630.2C630.8 401.4 631.4 401.9 631.4 402.6V403C631.3 403.7 630.8 404.2 630.2 404.2Z" fill="#FDFDFE" stroke="#D9E3F9" stroke-width="3" stroke-miterlimit="10"/>
<g opacity="0.57">
<g opacity="0.57">
<path opacity="0.57" d="M217.9 315.9C217.3 315.9 216.9 315.5 216.9 314.9C216.9 280.7 231.2 247.6 256.2 224.2C260.6 220.1 265.4 216.2 270.3 212.8C270.8 212.5 271.4 212.6 271.7 213.1C272 213.6 271.9 214.2 271.4 214.5C266.5 217.9 261.8 221.7 257.5 225.8C232.9 248.8 218.8 281.4 218.8 315C218.9 315.4 218.4 315.9 217.9 315.9Z" fill="#3AAED5"/>
<path opacity="0.57" d="M464.5 315.9C463.9 315.9 463.5 315.5 463.5 314.9C463.5 300.9 461.2 287.2 456.6 274.2C456.4 273.7 456.7 273.1 457.2 272.9C457.7 272.7 458.3 273 458.5 273.5C463.2 286.8 465.5 300.7 465.5 314.9C465.5 315.4 465.1 315.9 464.5 315.9Z" fill="#3AAED5"/>
<path opacity="0.57" d="M454.9 268C454.5 268 454.1 267.8 454 267.4C444.4 244.6 428.3 225.5 407.4 212C406.9 211.7 406.8 211.1 407.1 210.6C407.4 210.1 408 210 408.5 210.3C429.7 224 446 243.4 455.8 266.6C456 267.1 455.8 267.7 455.3 267.9C455.1 267.9 455 268 454.9 268Z" fill="#3AAED5"/>
<path opacity="0.57" d="M279 209.4C278.7 209.4 278.3 209.2 278.1 208.9C277.8 208.4 278 207.8 278.5 207.5C297.4 196.4 319.1 190.5 341.2 190.5C359.6 190.5 377.3 194.4 393.8 202.2C394.3 202.4 394.5 203 394.3 203.5C394.1 204 393.5 204.2 393 204C376.7 196.4 359.3 192.5 341.2 192.5C319.5 192.5 298.1 198.3 279.5 209.2C279.3 209.3 279.2 209.4 279 209.4Z" fill="#3AAED5"/>
<path opacity="0.57" d="M195.9 315.9C195.3 315.9 194.9 315.5 194.9 314.9C194.9 256.9 229.2 204.3 282.3 181C282.8 180.8 283.4 181 283.6 181.5C283.8 182 283.6 182.6 283.1 182.8C230.7 205.9 196.9 257.7 196.9 314.9C196.9 315.4 196.5 315.9 195.9 315.9Z" fill="#3AAED5"/>
<path opacity="0.57" d="M486.5 315.9C485.9 315.9 485.5 315.5 485.5 314.9C485.5 269.4 463.7 226.1 427.1 198.9C426.7 198.6 426.6 197.9 426.9 197.5C427.2 197.1 427.9 197 428.3 197.3C446.3 210.6 461.2 228.2 471.4 248C482.1 268.8 487.5 291.3 487.5 314.9C487.5 315.4 487 315.9 486.5 315.9Z" fill="#3AAED5"/>
<path opacity="0.57" d="M419 193.2C418.8 193.2 418.6 193.1 418.5 193C415.5 191.1 412.5 189.3 409.4 187.7C408.9 187.4 408.7 186.8 409 186.3C409.3 185.8 409.9 185.6 410.4 185.9C413.5 187.6 416.6 189.4 419.6 191.3C420.1 191.6 420.2 192.2 419.9 192.7C419.6 193 419.3 193.2 419 193.2Z" fill="#3AAED5"/>
<path opacity="0.57" d="M403.4 184.6C403.3 184.6 403.1 184.6 403 184.5C383.6 175.3 362.8 170.6 341.2 170.6C325.4 170.6 309.9 173.1 295 178.2C294.5 178.4 293.9 178.1 293.7 177.6C293.5 177.1 293.8 176.5 294.3 176.3C309.3 171.2 325.1 168.6 341.1 168.6C363 168.6 384.1 173.3 403.7 182.7C404.2 182.9 404.4 183.5 404.2 184C404.1 184.4 403.8 184.6 403.4 184.6Z" fill="#3AAED5"/>
<path opacity="0.57" d="M510.8 315.9C510.2 315.9 509.8 315.5 509.8 314.9C509.8 296.3 506.8 278.1 500.9 260.7C500.7 260.2 501 259.6 501.5 259.4C502 259.2 502.6 259.5 502.8 260C508.8 277.6 511.8 296.1 511.8 314.9C511.8 315.4 511.3 315.9 510.8 315.9Z" fill="#3AAED5"/>
<path opacity="0.57" d="M498.3 251.9C497.9 251.9 497.5 251.7 497.4 251.3C485.5 222.1 465.7 196.9 440 178.3C439.6 178 439.5 177.4 439.8 176.9C440.1 176.5 440.7 176.4 441.2 176.7C467.1 195.5 487.2 221 499.3 250.6C499.5 251.1 499.3 251.7 498.8 251.9C498.5 251.8 498.4 251.9 498.3 251.9Z" fill="#3AAED5"/>
<path opacity="0.57" d="M430.8 171.9C430.6 171.9 430.4 171.9 430.3 171.7C403.6 155 372.8 146.2 341.2 146.2C326.9 146.2 312.8 148 299.1 151.5C298.6 151.6 298 151.3 297.9 150.8C297.8 150.3 298.1 149.7 298.6 149.6C312.4 146 326.8 144.2 341.2 144.2C373.2 144.2 404.4 153.1 431.4 170C431.9 170.3 432 170.9 431.7 171.4C431.5 171.7 431.2 171.9 430.8 171.9Z" fill="#3AAED5"/>
<path opacity="0.57" d="M266.6 163.5C266.2 163.5 265.9 163.3 265.7 162.9C265.5 162.4 265.7 161.8 266.2 161.6C271.4 159 276.8 156.7 282.3 154.7C282.8 154.5 283.4 154.8 283.6 155.3C283.8 155.8 283.5 156.4 283 156.6C277.6 158.6 272.3 160.9 267.1 163.4C266.9 163.5 266.8 163.5 266.6 163.5Z" fill="#3AAED5"/>
<path opacity="0.57" d="M171.6 315.9C171 315.9 170.6 315.5 170.6 314.9C170.6 284.6 178.6 254.9 193.9 228.9C208.7 203.7 229.8 182.5 255 167.7C255.5 167.4 256.1 167.6 256.4 168.1C256.7 168.6 256.5 169.2 256 169.5C204.6 199.7 172.6 255.4 172.6 315C172.6 315.4 172.1 315.9 171.6 315.9Z" fill="#3AAED5"/>
</g>
</g>
<g opacity="0.22">
<g opacity="0.22">
<path opacity="0.22" d="M153.7 307.5C152.9 307.5 152.2 306.8 152.2 306C152.2 279.4 157.6 253.7 168.3 229.6C178.6 206.3 193.3 185.6 212 168.1C218.7 161.8 226 155.9 233.5 150.7C234.2 150.2 235.1 150.4 235.6 151.1C236.1 151.8 235.9 152.7 235.2 153.2C227.8 158.4 220.6 164.1 214 170.3C176.6 205.3 155.2 254.8 155.2 306C155.2 306.8 154.5 307.5 153.7 307.5Z" fill="#3AAED5"/>
<path opacity="0.22" d="M528.7 307.5C527.9 307.5 527.2 306.8 527.2 306C527.2 284.8 523.7 263.9 516.7 244.1C516.4 243.3 516.8 242.5 517.6 242.2C518.4 241.9 519.2 242.3 519.5 243.1C526.6 263.3 530.2 284.4 530.2 306C530.2 306.8 529.5 307.5 528.7 307.5Z" fill="#3AAED5"/>
<path opacity="0.22" d="M514 234.6C513.4 234.6 512.9 234.3 512.6 233.7C498 199.1 473.5 170 441.8 149.5C441.1 149.1 440.9 148.1 441.4 147.4C441.9 146.7 442.8 146.5 443.5 147C475.7 167.8 500.6 197.3 515.4 232.5C515.7 233.3 515.4 234.1 514.6 234.5C514.4 234.6 514.2 234.6 514 234.6Z" fill="#3AAED5"/>
<path opacity="0.22" d="M246.6 145.5C246.1 145.5 245.6 145.2 245.3 144.8C244.9 144.1 245.1 143.2 245.8 142.7C274.6 125.8 307.6 116.9 341.1 116.9C369.1 116.9 396 122.9 421.1 134.6C421.9 135 422.2 135.8 421.8 136.6C421.4 137.4 420.6 137.7 419.8 137.3C395.1 125.7 368.6 119.9 341.1 119.9C308.1 119.9 275.6 128.7 247.3 145.3C247.1 145.5 246.9 145.5 246.6 145.5Z" fill="#3AAED5"/>
<path opacity="0.22" d="M120.3 307.5C119.5 307.5 118.8 306.8 118.8 306C118.8 217.8 171 137.9 251.7 102.4C252.5 102.1 253.3 102.4 253.7 103.2C254 104 253.7 104.8 252.9 105.2C173.3 140.1 121.8 219 121.8 306C121.8 306.8 121.1 307.5 120.3 307.5Z" fill="#3AAED5"/>
<path opacity="0.22" d="M562.1 307.5C561.3 307.5 560.6 306.8 560.6 306C560.6 236.8 527.4 170.9 471.8 129.7C471.1 129.2 471 128.3 471.5 127.6C472 126.9 472.9 126.8 473.6 127.3C500.9 147.6 523.6 174.2 539.1 204.4C555.4 236 563.6 270.2 563.6 306C563.6 306.8 562.9 307.5 562.1 307.5Z" fill="#3AAED5"/>
<path opacity="0.22" d="M459.5 120.9C459.2 120.9 458.9 120.8 458.7 120.7C454.2 117.8 449.5 115.1 444.8 112.6C444.1 112.2 443.8 111.3 444.2 110.6C444.6 109.9 445.5 109.6 446.2 110C451 112.6 455.7 115.3 460.2 118.2C460.9 118.6 461.1 119.6 460.7 120.3C460.4 120.6 460 120.9 459.5 120.9Z" fill="#3AAED5"/>
<path opacity="0.22" d="M435.8 107.8C435.6 107.8 435.4 107.8 435.2 107.7C405.7 93.7 374.1 86.6 341.3 86.6C317.3 86.6 293.6 90.5 271.1 98.1C270.3 98.4 269.5 97.9 269.2 97.2C268.9 96.4 269.4 95.6 270.1 95.3C293 87.6 316.9 83.7 341.3 83.7C374.6 83.7 406.7 90.9 436.5 105.1C437.2 105.5 437.6 106.3 437.2 107.1C436.9 107.5 436.3 107.8 435.8 107.8Z" fill="#3AAED5"/>
<path opacity="0.22" d="M599.1 307.5C598.3 307.5 597.6 306.8 597.6 306C597.6 277.8 593 250 584.1 223.5C583.8 222.7 584.3 221.9 585 221.6C585.8 221.3 586.6 221.8 586.9 222.5C596 249.3 600.6 277.4 600.6 305.9C600.6 306.8 599.9 307.5 599.1 307.5Z" fill="#3AAED5"/>
<path opacity="0.22" d="M580.1 210.1C579.5 210.1 578.9 209.7 578.7 209.2C560.6 164.8 530.4 126.4 491.5 98.1999C490.8 97.6999 490.7 96.7999 491.2 96.0999C491.7 95.3999 492.6 95.2999 493.3 95.7999C532.7 124.4 563.2 163.2 581.6 208.1C581.9 208.9 581.5 209.7 580.8 210.1C580.4 210.1 580.2 210.1 580.1 210.1Z" fill="#3AAED5"/>
<path opacity="0.22" d="M477.5 88.5C477.2 88.5 477 88.4 476.7 88.3C436.1 63 389.3 49.6 341.2 49.6C319.5 49.6 298 52.3 277.2 57.6C276.4 57.8 275.6 57.3 275.4 56.5C275.2 55.7 275.7 54.9 276.5 54.7C297.5 49.3 319.3 46.6 341.2 46.6C389.8 46.6 437.3 60.1 478.3 85.8C479 86.2 479.2 87.2 478.8 87.9C478.5 88.3 478 88.5 477.5 88.5Z" fill="#3AAED5"/>
<path opacity="0.22" d="M227.8 75.8C227.2 75.8 226.7 75.5 226.5 75C226.1 74.3 226.4 73.4 227.2 73C235.1 69.1 243.3 65.6 251.6 62.6C252.4 62.3 253.2 62.7 253.5 63.5C253.8 64.3 253.4 65.1 252.6 65.4C244.4 68.4 236.3 71.9 228.5 75.7C228.3 75.7 228 75.8 227.8 75.8Z" fill="#3AAED5"/>
<path opacity="0.22" d="M83.3 307.5C82.5 307.5 81.8 306.8 81.8 306C81.8 259.9 94 214.7 117.2 175.2C139.7 136.8 171.8 104.7 210.1 82.2C210.8 81.8 211.7 82 212.2 82.7C212.6 83.4 212.4 84.3 211.7 84.8C133.4 130.6 84.8 215.4 84.8 306C84.8 306.8 84.2 307.5 83.3 307.5Z" fill="#3AAED5"/>
</g>
</g>
<path d="M391.4 327.8C390.3 327.8 389.1 327.6 388 327.1C386 326.2 384.5 324.6 383.7 322.5L381.3 315.9C375.9 316.8 370.5 316.6 365.3 315.4L362.4 321.9C361.5 323.9 359.9 325.5 357.8 326.2C355.7 327 353.5 326.9 351.5 326C347.4 324.1 345.6 319.2 347.5 315.1L350.4 308.6C346 305.4 342.3 301.5 339.5 296.8L332.9 299.3C330.8 300.1 328.6 300 326.6 299.1C324.6 298.2 323.1 296.6 322.3 294.5C320.7 290.2 322.9 285.5 327.1 283.8L333.7 281.3C332.8 275.9 333 270.5 334.3 265.1L327.9 262.2C323.8 260.3 322 255.4 323.9 251.3C324.8 249.3 326.4 247.7 328.5 247C330.6 246.2 332.8 246.3 334.8 247.2L341.2 250.1C344.4 245.6 348.3 241.9 353 239L350.5 232.4C348.9 228.1 351.1 223.4 355.3 221.7C357.4 220.9 359.6 221 361.6 221.9C363.6 222.8 365.1 224.4 365.9 226.5L368.3 233.1C373.7 232.2 379 232.4 384.3 233.6L387.2 227.1C389.1 222.9 394 221.1 398.1 222.9C400.1 223.8 401.6 225.4 402.4 227.5C403.2 229.6 403.1 231.8 402.2 233.8L399.3 240.3C403.7 243.5 407.4 247.4 410.2 252.1L416.8 249.6C418.9 248.8 421.1 248.9 423.1 249.8C425.1 250.7 426.6 252.3 427.4 254.4C429 258.7 426.8 263.4 422.6 265.1L416 267.6C416.9 273 416.7 278.4 415.4 283.8L421.8 286.7C425.9 288.6 427.7 293.5 425.8 297.6C423.9 301.8 419 303.6 414.9 301.8L408.5 298.9C405.3 303.4 401.4 307.1 396.7 310L399.2 316.6C400.8 320.9 398.6 325.6 394.4 327.3C393.4 327.6 392.4 327.8 391.4 327.8ZM382.6 313.6L385.6 321.8C386.2 323.4 387.3 324.6 388.8 325.3C390.3 326 392 326 393.5 325.4C396.7 324.2 398.4 320.5 397.2 317.3L394.2 309.1L394.9 308.7C399.8 305.7 404 301.8 407.2 297.1L407.7 296.4L415.6 300C418.7 301.4 422.4 300 423.8 296.8C425.2 293.6 423.9 289.9 420.7 288.5L412.8 284.9L413 284.1C414.4 278.5 414.6 272.8 413.6 267.1L413.5 266.3L421.7 263.2C424.9 262 426.6 258.3 425.4 255.1C424.8 253.5 423.7 252.3 422.2 251.6C420.7 250.9 419 250.9 417.5 251.5L409.3 254.6L408.9 253.9C406 249 402.1 244.8 397.5 241.6L396.8 241.1L400.4 233.1C401.1 231.6 401.2 229.9 400.6 228.3C400 226.7 398.9 225.5 397.4 224.8C394.3 223.4 390.6 224.8 389.2 228L385.6 236L384.8 235.8C379.3 234.4 373.6 234.2 368 235.3L367.2 235.5L364.2 227.3C363.6 225.7 362.5 224.5 361 223.8C359.5 223.1 357.8 223.1 356.3 223.7C353.1 224.9 351.4 228.6 352.6 231.8L355.6 240L354.9 240.4C350 243.4 345.8 247.3 342.6 252L342.1 252.7L334.2 249.1C332.7 248.4 331 248.4 329.4 249C327.8 249.6 326.6 250.8 325.9 252.3C324.5 255.5 325.8 259.2 329 260.6L336.9 264.2L336.7 265C335.3 270.6 335.1 276.3 336.1 282L336.2 282.8L328 285.9C324.8 287.1 323.1 290.8 324.3 294C324.9 295.6 326 296.8 327.5 297.5C329 298.2 330.7 298.2 332.2 297.6L340.4 294.5L340.8 295.2C343.7 300.1 347.6 304.3 352.2 307.5L352.9 308L349.3 316C347.9 319.2 349.2 322.9 352.4 324.3C353.9 325 355.6 325 357.2 324.4C358.8 323.8 360 322.6 360.7 321.1L364.3 313.1L365.1 313.3C370.6 314.7 376.3 314.9 381.9 313.8L382.6 313.6ZM374.5 305.1C370.3 305.1 366.1 304.2 362.1 302.4C354.7 299 349.1 293 346.3 285.3C343.5 277.7 343.8 269.3 347.2 261.9C350.6 254.4 356.6 248.7 364.3 245.8C371.9 242.9 380.2 243.1 387.6 246.5C402.8 253.4 409.5 271.6 402.6 287C397.3 298.4 386.1 305.1 374.5 305.1ZM375.1 245.8C371.7 245.8 368.3 246.4 365 247.7C357.9 250.4 352.2 255.8 349.1 262.7C345.9 269.7 345.6 277.5 348.3 284.6C350.9 291.7 356.2 297.4 363.1 300.5C377.3 307 394.2 300.5 400.8 286.1C407.3 271.7 401.1 254.7 386.8 248.3C383 246.7 379 245.8 375.1 245.8Z" fill="#2E37A4"/>
<path d="M292.6 313.1C291.1 313.1 289.7 312.5 288.6 311.5C287.5 310.4 286.9 309 286.9 307.4V303C283.5 302.3 280.4 301.1 277.5 299.3L274.4 302.4C273.3 303.5 271.9 304.1 270.3 304.1C268.7 304.2 267.3 303.5 266.2 302.5C265.1 301.4 264.5 300 264.5 298.4C264.5 296.9 265.1 295.4 266.2 294.3L269.3 291.2C267.4 288.4 266.1 285.2 265.4 281.9L261 282C259.5 282 258 281.4 256.9 280.4C255.8 279.3 255.2 277.9 255.2 276.3C255.2 273.1 257.8 270.5 260.9 270.5L265.3 270.4C266 267 267.3 263.8 269.1 260.9L266 257.9C264.9 256.8 264.3 255.4 264.3 253.8C264.3 252.3 264.9 250.8 266 249.7C267.1 248.6 268.5 248 270.1 248C271.7 248 273.1 248.6 274.2 249.6L277.3 252.6C280.2 250.7 283.3 249.3 286.7 248.6V244.2C286.7 241 289.3 238.4 292.4 238.4C294 238.4 295.4 239 296.5 240C297.6 241.1 298.2 242.5 298.2 244.1V248.5C301.6 249.2 304.7 250.4 307.6 252.2L310.7 249.1C311.8 248 313.2 247.4 314.8 247.4C316.3 247.4 317.8 248 318.9 249C321.2 251.2 321.2 254.9 318.9 257.1L315.8 260.2C317.7 263 319 266.2 319.7 269.5L324.1 269.4C325.7 269.4 327.1 270 328.2 271C329.3 272.1 329.9 273.5 329.9 275.1C329.9 278.3 327.3 280.9 324.2 280.9L319.8 281C319.1 284.4 317.8 287.6 316 290.5L319.1 293.5C321.4 295.7 321.4 299.4 319.1 301.6C318 302.7 316.6 303.3 315 303.3C313.5 303.3 312 302.7 310.9 301.7L307.8 298.7C304.9 300.6 301.8 302 298.4 302.7V307.1C298.5 310.5 295.9 313.1 292.6 313.1C292.7 313.1 292.7 313.1 292.6 313.1ZM277.2 296.8L277.9 297.3C281 299.4 284.4 300.7 288 301.3L288.8 301.4V307.4C288.8 308.4 289.2 309.3 289.9 310C290.6 310.7 291.5 311.1 292.5 311.1C292.5 311.1 292.5 311.1 292.6 311.1C294.7 311.1 296.4 309.3 296.4 307.3V301.3L297.2 301.1C300.9 300.4 304.3 298.9 307.3 296.7L308 296.2L312.3 300.4C313 301.1 313.9 301.5 315 301.5C316 301.5 317 301.1 317.7 300.4C319.2 298.9 319.2 296.5 317.7 295.1L313.4 290.9L313.9 290.2C316 287.1 317.4 283.7 318 280L318.1 279.2L324.1 279.1C326.2 279.1 327.9 277.3 327.9 275.3C327.9 274.3 327.5 273.4 326.8 272.7C326.1 272 325.2 271.6 324.2 271.6C324.2 271.6 324.2 271.6 324.1 271.6L318.1 271.7L317.9 270.9C317.2 267.2 315.8 263.9 313.7 260.9L313.2 260.2L317.4 255.9C318.9 254.4 318.9 252 317.4 250.6C316.7 249.9 315.8 249.5 314.7 249.5C313.7 249.5 312.7 249.9 312 250.6L307.8 254.9L307.1 254.4C304 252.3 300.6 251 297 250.4L296.2 250.3V244.3C296.2 243.3 295.8 242.4 295.1 241.7C294.4 241 293.5 240.6 292.5 240.6C292.5 240.6 292.5 240.6 292.4 240.6C290.3 240.6 288.6 242.4 288.6 244.4V250.4L287.8 250.6C284.1 251.3 280.7 252.8 277.7 255L277 255.5L272.7 251.3C272 250.6 271.1 250.2 270 250.2C269 250.2 268 250.6 267.3 251.3C266.6 252 266.2 253 266.2 254C266.2 255 266.6 255.9 267.3 256.6L271.6 260.8L271.1 261.5C269 264.6 267.6 268 267 271.7L266.9 272.5L260.9 272.6C258.8 272.6 257.1 274.4 257.1 276.4C257.1 277.4 257.5 278.3 258.2 279C258.9 279.7 259.8 280.1 260.9 280.1L266.9 280L267.1 280.8C267.8 284.5 269.2 287.8 271.3 290.8L271.8 291.5L267.6 295.8C266.9 296.5 266.5 297.5 266.5 298.5C266.5 299.5 266.9 300.4 267.6 301.1C268.3 301.8 269.2 302.2 270.3 302.2C271.3 302.2 272.3 301.8 273 301.1L277.2 296.8ZM292.3 296.2C287 296.2 282 294.2 278.2 290.5C270.2 282.7 270.2 269.7 278.1 261.7C281.9 257.8 287 255.6 292.5 255.5C298 255.4 303.1 257.5 306.9 261.2C310.8 265 312.9 270.1 312.9 275.5C312.9 280.9 310.8 286.1 307 290C303.2 293.9 298.1 296.1 292.6 296.2C292.5 296.2 292.4 296.2 292.3 296.2ZM292.8 257.4C292.7 257.4 292.6 257.4 292.5 257.4C287.6 257.5 283 259.5 279.5 263C272.4 270.3 272.4 282 279.6 289C283.1 292.4 287.7 294.2 292.6 294.2C297.5 294.1 302.1 292.1 305.6 288.6C309.1 285.1 311 280.4 310.9 275.5C310.9 270.6 308.9 266 305.5 262.6C302.1 259.3 297.6 257.4 292.8 257.4Z" fill="#2E37A4"/>
<path d="M309.8 394.9C309 394.9 308.2 394.8 307.4 394.5C305.6 393.9 304.2 392.6 303.4 390.8C302.6 389.1 302.6 387.2 303.2 385.4L305.2 380C301.4 377.6 298.1 374.6 295.5 371L290.2 373.4C286.6 375 282.4 373.5 280.8 370C280 368.3 280 366.4 280.6 364.6C281.3 362.8 282.6 361.4 284.3 360.6L289.6 358.2C288.6 353.8 288.5 349.4 289.2 345L283.8 343C282 342.4 280.6 341.1 279.8 339.3C279 337.6 279 335.7 279.6 333.9C281 330.3 285.1 328.4 288.7 329.7L294.1 331.7C296.5 327.9 299.6 324.6 303.2 322L300.8 316.8C300 315.1 300 313.2 300.6 311.4C301.3 309.6 302.6 308.2 304.3 307.4C307.9 305.8 312.1 307.3 313.7 310.8L316.1 316C320.5 315 325 314.8 329.4 315.5L331.5 310.1C332.9 306.5 337 304.6 340.6 305.9C342.4 306.5 343.8 307.8 344.6 309.6C345.4 311.3 345.4 313.2 344.8 315L342.8 320.4C346.6 322.8 349.9 325.8 352.5 329.4L357.8 327C359.5 326.2 361.4 326.1 363.2 326.8C365 327.4 366.4 328.7 367.2 330.5C368 332.2 368 334.1 367.4 335.9C366.7 337.7 365.4 339.1 363.7 339.9L358.4 342.3C359.4 346.7 359.5 351.1 358.8 355.5L364.2 357.5C366 358.2 367.4 359.4 368.2 361.2C369 362.9 369 364.8 368.4 366.6C367 370.2 362.9 372.1 359.3 370.8L353.9 368.8C351.5 372.6 348.4 375.9 344.8 378.5L347.2 383.7C348 385.4 348 387.3 347.4 389.1C346.7 390.9 345.4 392.3 343.7 393.1C342 393.9 340.1 394 338.3 393.3C336.5 392.7 335.1 391.4 334.3 389.6L331.9 384.4C327.5 385.4 323 385.6 318.6 384.9L316.5 390.3C315.4 393.1 312.7 394.9 309.8 394.9ZM296.2 368.5L296.7 369.2C299.4 373.1 302.9 376.3 307 378.7L307.7 379.1L305.1 386.1C304.6 387.4 304.7 388.7 305.2 390C305.8 391.2 306.8 392.1 308 392.6C310.6 393.6 313.6 392.2 314.6 389.6L317.2 382.6L318 382.7C322.7 383.5 327.5 383.3 332.1 382.1L332.9 381.9L336 388.6C336.6 389.8 337.6 390.7 338.8 391.2C340.1 391.7 341.5 391.6 342.7 391C343.9 390.4 344.9 389.4 345.4 388.2C345.9 386.9 345.8 385.6 345.3 384.4L342.2 377.7L342.9 377.2C346.9 374.5 350.1 371 352.6 366.9L353 366.2L360 368.8C362.6 369.8 365.6 368.4 366.6 365.8C367.1 364.5 367 363.2 366.5 362C365.9 360.8 364.9 359.9 363.7 359.4L356.7 356.8L356.9 356C357.8 351.3 357.6 346.6 356.5 342L356.3 341.2L363.1 338.1C364.3 337.5 365.3 336.5 365.8 335.3C366.3 334 366.2 332.7 365.7 331.5C365.1 330.3 364.1 329.4 362.9 328.9C361.6 328.4 360.2 328.5 359 329.1L352.2 332.2L351.7 331.5C349 327.6 345.5 324.4 341.4 322L340.7 321.6L343.3 314.6C343.8 313.3 343.7 312 343.2 310.8C342.6 309.6 341.6 308.7 340.4 308.2C337.8 307.2 334.8 308.6 333.8 311.2L331.2 318.2L330.4 318.1C325.7 317.3 320.9 317.5 316.3 318.7L315.5 318.9L312.4 312.2C311.2 309.7 308.2 308.6 305.7 309.7C304.5 310.3 303.5 311.3 303 312.5C302.5 313.8 302.6 315.1 303.1 316.3L306.2 323L305.5 323.5C301.5 326.2 298.3 329.7 295.8 333.8L295.4 334.5L288.4 331.9C285.8 330.9 282.8 332.3 281.8 334.9C281.3 336.2 281.4 337.5 281.9 338.8C282.5 340 283.5 340.9 284.7 341.4L291.7 344L291.5 344.8C290.6 349.5 290.8 354.2 291.9 358.8L292.1 359.6L285.3 362.7C284.1 363.3 283.1 364.3 282.6 365.5C282.1 366.8 282.2 368.1 282.7 369.3C283.9 371.8 286.9 372.9 289.4 371.8L296.2 368.5ZM323.9 375.8C314.1 375.8 304.8 370.3 300.6 360.9C294.7 348.1 300.5 332.8 313.5 326.9C326.5 321 341.8 326.6 347.6 339.4C350.4 345.6 350.7 352.6 348.2 359C345.8 365.4 341 370.5 334.7 373.4C331.2 375.1 327.5 375.8 323.9 375.8ZM324.3 326.6C321 326.6 317.6 327.3 314.3 328.8C302.3 334.3 297 348.3 302.4 360.1C307.8 371.9 321.9 377.1 333.9 371.6C339.7 369 344.1 364.2 346.4 358.3C348.6 352.4 348.4 346 345.8 340.2C341.8 331.7 333.3 326.6 324.3 326.6Z" fill="#2E37A4"/>
<path d="M234.3 137L205 130C203.6 129.7 202.8 128.3 203.1 126.9L208.6 103.7C208.9 102.3 210.3 101.5 211.7 101.8L240.9 108.7C242.3 109 243.1 110.4 242.8 111.8L237.3 135C237 136.4 235.6 137.3 234.3 137Z" fill="#FFB44F"/>
<path d="M234.8 138.5C234.5 138.5 234.2 138.5 233.9 138.4L204.7 131.5C202.5 131 201.2 128.8 201.7 126.6L207.2 103.4C207.7 101.2 209.9 99.9 212.1 100.4L241.3 107.3C243.5 107.8 244.8 110 244.3 112.2L238.8 135.4C238.4 137.3 236.7 138.5 234.8 138.5ZM234.6 135.5C235.2 135.6 235.8 135.3 235.9 134.7L241.4 111.5C241.5 110.9 241.2 110.3 240.6 110.2L211.4 103.3C210.8 103.2 210.2 103.5 210.1 104.1L204.6 127.3C204.5 127.9 204.8 128.5 205.4 128.6L234.6 135.5Z" fill="#233863"/>
<path d="M220.6 124.9C220.4 124.9 220.3 124.9 220.1 124.8C219.5 124.7 219 124.3 218.6 123.8L214.9 118C214.5 117.3 214.7 116.4 215.4 115.9C216.1 115.5 217 115.7 217.5 116.4L220.8 121.6L233.2 113.6C233.9 113.2 234.8 113.4 235.3 114C235.7 114.7 235.5 115.6 234.9 116.1L222 124.4C221.5 124.7 221.1 124.9 220.6 124.9Z" fill="white"/>
<path d="M486.2 139.2L456.3 142.5C454.9 142.7 453.6 141.6 453.4 140.2L450.8 116.5C450.6 115.1 451.7 113.8 453.1 113.6L483 110.3C484.4 110.1 485.7 111.2 485.9 112.6L488.5 136.3C488.6 137.7 487.6 139 486.2 139.2Z" fill="#3AAED5"/>
<path d="M456.1 144C455.2 144 454.3 143.7 453.6 143.1C452.7 142.4 452.2 141.4 452.1 140.4L449.5 116.7C449.3 114.5 450.9 112.4 453.1 112.2L483 108.9C485.2 108.6 487.3 110.3 487.5 112.5L490.1 136.2C490.3 138.4 488.7 140.5 486.5 140.7L456.6 144C456.4 144 456.2 144 456.1 144ZM483.3 111.8H483.2L453.3 115.1C452.7 115.2 452.3 115.7 452.3 116.3L455 140C455 140.3 455.2 140.5 455.4 140.7C455.6 140.9 455.9 141 456.2 140.9L486.1 137.6C486.7 137.5 487.1 137 487.1 136.4L484.5 112.7C484.3 112.2 483.8 111.8 483.3 111.8Z" fill="#233863"/>
<path d="M468.5 132.5C468 132.5 467.5 132.3 467.1 132L461.7 127.8C461 127.3 460.9 126.3 461.4 125.7C461.9 125 462.9 124.9 463.5 125.4L468.4 129.2L477.4 117.5C477.9 116.8 478.8 116.7 479.5 117.2C480.2 117.7 480.3 118.6 479.8 119.3L470.4 131.5C470 132 469.5 132.3 468.8 132.4C468.7 132.5 468.6 132.5 468.5 132.5Z" fill="white"/>
<path d="M126.8 169.1C131.329 169.1 135 165.429 135 160.9C135 156.371 131.329 152.7 126.8 152.7C122.271 152.7 118.6 156.371 118.6 160.9C118.6 165.429 122.271 169.1 126.8 169.1Z" fill="#3AAED5"/>
<path d="M340.7 56.3C345.229 56.3 348.9 52.6288 348.9 48.1C348.9 43.5713 345.229 39.9 340.7 39.9C336.171 39.9 332.5 43.5713 332.5 48.1C332.5 52.6288 336.171 56.3 340.7 56.3Z" fill="#3AAED5"/>
<path d="M175.9 162.1C177.612 162.1 179 160.712 179 159C179 157.288 177.612 155.9 175.9 155.9C174.188 155.9 172.8 157.288 172.8 159C172.8 160.712 174.188 162.1 175.9 162.1Z" fill="#3D85FD"/>
<path d="M532.9 135C534.612 135 536 133.612 536 131.9C536 130.188 534.612 128.8 532.9 128.8C531.188 128.8 529.8 130.188 529.8 131.9C529.8 133.612 531.188 135 532.9 135Z" fill="#3D85FD"/>
<path d="M238.2 73.4001C239.912 73.4001 241.3 72.0122 241.3 70.3001C241.3 68.588 239.912 67.2001 238.2 67.2001C236.488 67.2001 235.1 68.588 235.1 70.3001C235.1 72.0122 236.488 73.4001 238.2 73.4001Z" fill="#3D85FD"/>
<path d="M136.2 220C137.912 220 139.3 218.612 139.3 216.9C139.3 215.188 137.912 213.8 136.2 213.8C134.488 213.8 133.1 215.188 133.1 216.9C133.1 218.612 134.488 220 136.2 220Z" fill="#FFB44F"/>
<path d="M552.7 246.7C554.412 246.7 555.8 245.312 555.8 243.6C555.8 241.888 554.412 240.5 552.7 240.5C550.988 240.5 549.6 241.888 549.6 243.6C549.6 245.312 550.988 246.7 552.7 246.7Z" fill="#FFB44F"/>
<path d="M598.7 287.8C601.848 287.8 604.4 285.248 604.4 282.1C604.4 278.952 601.848 276.4 598.7 276.4C595.552 276.4 593 278.952 593 282.1C593 285.248 595.552 287.8 598.7 287.8Z" fill="#FFB44F"/>
<path d="M416.9 104.6C420.656 104.6 423.7 101.556 423.7 97.8C423.7 94.0445 420.656 91 416.9 91C413.144 91 410.1 94.0445 410.1 97.8C410.1 101.556 413.144 104.6 416.9 104.6Z" fill="#FFB44F"/>
<path d="M252.1 382.5L145 382.7C136.8 382.7 130 376 130 367.8L129.9 298.1C129.9 289.9 136.6 283.1 144.8 283.1L251.9 282.9C260.1 282.9 266.9 289.6 266.9 297.8L267 367.5C267 375.7 260.3 382.5 252.1 382.5Z" fill="#3D85FD"/>
<path d="M145 384.2C135.9 384.2 128.6 376.8 128.6 367.8L128.5 298.1C128.5 289 135.8 281.6 144.9 281.6L252 281.4C261.1 281.4 268.4 288.8 268.4 297.8L268.5 367.5C268.5 371.9 266.8 376 263.7 379.1C260.6 382.2 256.5 383.9 252.1 384L145 384.2ZM251.9 284.4L144.8 284.6C137.4 284.6 131.4 290.7 131.4 298.1L131.5 367.8C131.5 375.2 137.5 381.2 144.9 381.2L252 381C255.6 381 258.9 379.6 261.5 377C264 374.4 265.4 371.1 265.4 367.5L265.3 297.8C265.3 290.4 259.3 284.4 251.9 284.4Z" fill="#233863"/>
<path opacity="0.24" d="M252.1 382.5L145 382.7C136.8 382.7 130 376 130 367.8L129.9 298.1C129.9 289.9 136.6 283.1 144.8 283.1L251.9 282.9C260.1 282.9 266.9 289.6 266.9 297.8L267 367.5C267 375.7 260.3 382.5 252.1 382.5Z" fill="#233863"/>
<path d="M246.1 366.9L198.9 321.7C198.4 321.2 198.4 320.4 198.9 319.9L260.1 256.1C260.6 255.6 261.4 255.6 261.9 256.1L309.1 301.3C309.6 301.8 309.6 302.6 309.1 303.1L247.9 366.9C247.4 367.4 246.6 367.4 246.1 366.9Z" fill="white"/>
<path d="M246.9 368.8C246.2 368.8 245.5 368.5 245 368L197.8 322.8C197.3 322.3 197 321.6 196.9 320.9C196.9 320.2 197.2 319.5 197.7 318.9L259 255C260.1 253.9 261.8 253.9 262.9 254.9L310.1 300.1C311.2 301.2 311.2 302.9 310.2 304L249 367.8C248.4 368.5 247.7 368.8 246.9 368.8C247 368.8 247 368.8 246.9 368.8ZM200.1 320.8L246.9 365.7L307.8 302.2L261 257.3L200.1 320.8Z" fill="#233863"/>
<path d="M295.1 302.7C294.9 302.7 294.6 302.6 294.4 302.4L276.6 285.4C276.2 285 276.2 284.4 276.6 284C277 283.6 277.6 283.6 278 284L295.8 301C296.2 301.4 296.2 302 295.8 302.4C295.6 302.6 295.4 302.7 295.1 302.7Z" fill="#FFB44F"/>
<path d="M286.2 314.4C286 314.4 285.7 314.3 285.5 314.1L250 280.1C249.6 279.7 249.6 279.1 250 278.7C250.4 278.3 251 278.3 251.4 278.7L286.9 312.7C287.3 313.1 287.3 313.7 286.9 314.1C286.7 314.3 286.4 314.4 286.2 314.4Z" fill="#233863"/>
<path d="M274.6 326.5C274.4 326.5 274.1 326.4 273.9 326.2L238.4 292.2C238 291.8 238 291.2 238.4 290.8C238.8 290.4 239.4 290.4 239.8 290.8L275.3 324.8C275.7 325.2 275.7 325.8 275.3 326.2C275.1 326.4 274.9 326.5 274.6 326.5Z" fill="#233863"/>
<path d="M263.7 337.8C263.5 337.8 263.2 337.7 263 337.5L227.5 303.5C227.1 303.1 227.1 302.5 227.5 302.1C227.9 301.7 228.5 301.7 228.9 302.1L264.4 336.1C264.8 336.5 264.8 337.1 264.4 337.5C264.2 337.7 264 337.8 263.7 337.8Z" fill="#233863"/>
<path d="M252.1 349.9C251.9 349.9 251.6 349.8 251.4 349.6L215.9 315.6C215.5 315.2 215.5 314.6 215.9 314.2C216.3 313.8 216.9 313.8 217.3 314.2L252.8 348.2C253.2 348.6 253.2 349.2 252.8 349.6C252.7 349.8 252.4 349.9 252.1 349.9Z" fill="#233863"/>
<path d="M218.9 309.3L158.4 334C157.7 334.3 157 334 156.7 333.3L123.3 251.4C123 250.7 123.3 250 124 249.7L184.5 225C185.2 224.7 185.9 225 186.2 225.7L219.6 307.6C219.9 308.3 219.6 309 218.9 309.3Z" fill="white"/>
<path d="M157.9 335.6C157.5 335.6 157.2 335.5 156.8 335.4C156.1 335.1 155.6 334.6 155.3 333.9L121.9 252C121.6 251.3 121.6 250.6 121.9 249.9C122.2 249.2 122.7 248.7 123.4 248.4L183.9 223.7C185.3 223.1 186.9 223.8 187.5 225.2L220.9 307.1C221.5 308.5 220.8 310.1 219.4 310.7L159 335.4C158.7 335.5 158.3 335.6 157.9 335.6ZM124.8 251.1L158.1 332.6L218.2 308.1L184.9 226.6L124.8 251.1Z" fill="#233863"/>
<path d="M175.9 256.1C175.5 256.1 175.1 255.9 175 255.5C174.8 255 175 254.4 175.5 254.2L185.9 250C186.4 249.8 187 250 187.2 250.5C187.4 251 187.2 251.6 186.7 251.8L176.3 256C176.2 256.1 176 256.1 175.9 256.1Z" fill="#233863"/>
<path d="M147.1 286C146.7 286 146.3 285.8 146.2 285.4C146 284.9 146.2 284.3 146.7 284.1L192.2 265.5C192.7 265.3 193.3 265.5 193.5 266C193.7 266.5 193.5 267.1 193 267.3L147.5 285.9C147.4 285.9 147.2 286 147.1 286Z" fill="#233863"/>
<path d="M178.8 285.3C178.4 285.3 178 285.1 177.9 284.7C177.7 284.2 177.9 283.6 178.4 283.4L196.5 276C197 275.8 197.6 276 197.8 276.5C198 277 197.8 277.6 197.3 277.8L179.2 285.2C179.1 285.3 179 285.3 178.8 285.3Z" fill="#FFB44F"/>
<path d="M151.4 296.5C151 296.5 150.6 296.3 150.5 295.9C150.3 295.4 150.5 294.8 151 294.6L162.1 290.1C162.6 289.9 163.2 290.1 163.4 290.6C163.6 291.1 163.4 291.7 162.9 291.9L151.8 296.4C151.7 296.5 151.5 296.5 151.4 296.5Z" fill="#FFB44F"/>
<path d="M155 308.8C154.6 308.8 154.2 308.6 154.1 308.2C153.9 307.7 154.1 307.1 154.6 306.9L182.6 295.4C183.1 295.2 183.7 295.4 183.9 295.9C184.1 296.4 183.9 297 183.4 297.2L155.4 308.7C155.2 308.7 155.1 308.8 155 308.8Z" fill="#233863"/>
<path d="M170.8 263.7L146.6 274.2C145.6 274.6 144.4 274.2 144 273.2L132.8 247.3C132.4 246.3 132.8 245.1 133.8 244.7L158 234.2C159 233.8 160.2 234.2 160.6 235.2L171.8 261.1C172.3 262.1 171.8 263.3 170.8 263.7Z" fill="#FFB44F"/>
<path d="M145.8 275.3C145.4 275.3 145.1 275.2 144.7 275.1C144 274.8 143.4 274.2 143 273.5L131.8 247.6C131.5 246.9 131.5 246 131.8 245.3C132.1 244.6 132.7 244 133.4 243.6L157.6 233.1C159.1 232.4 160.9 233.1 161.6 234.7L172.8 260.6C173.1 261.3 173.1 262.2 172.8 262.9C172.5 263.6 171.9 264.2 171.2 264.6L147 275.1C146.6 275.3 146.2 275.3 145.8 275.3ZM158.8 234.9C158.7 234.9 158.5 234.9 158.4 235L134.2 245.5C134 245.6 133.8 245.8 133.7 246.1C133.6 246.3 133.6 246.6 133.7 246.9L144.9 272.8C145 273 145.2 273.2 145.5 273.3C145.7 273.4 146 273.4 146.3 273.3L170.5 262.8C170.7 262.7 170.9 262.5 171 262.2C171.1 262 171.1 261.7 171 261.4L159.8 235.5C159.5 235.1 159.2 234.9 158.8 234.9Z" fill="#233863"/>
<path d="M145 250C144.7 250 144.4 249.9 144.1 249.8C143.5 249.6 143.1 249.1 142.8 248.5L141.5 245.5C141.4 245.2 141.5 245 141.8 244.8C142.1 244.7 142.3 244.8 142.5 245.1L143.8 248.1C143.9 248.4 144.2 248.7 144.6 248.8C144.9 248.9 145.3 248.9 145.6 248.8L145.8 248.7C146.3 248.5 146.6 247.8 146.3 247.3L143 239.6C142.8 239 142.1 238.8 141.6 239L141.2 239.2C140.6 239.5 140.3 240.1 140.6 240.7L140.7 240.9C140.8 241.2 140.7 241.4 140.4 241.6C140.1 241.7 139.9 241.6 139.7 241.3L139.6 241.1C139.1 240 139.6 238.7 140.7 238.3L141.1 238.1C142.2 237.6 143.4 238.1 143.8 239.2L147.1 246.9C147.5 247.9 147.1 249.2 146 249.6L145.8 249.7C145.7 249.9 145.3 250 145 250Z" fill="#233863"/>
<path d="M159.184 241.597C160.012 240.785 160.025 239.455 159.213 238.627C158.4 237.8 157.071 237.787 156.243 238.599C155.415 239.412 155.402 240.741 156.215 241.569C157.027 242.397 158.357 242.41 159.184 241.597Z" fill="white"/>
<path d="M276.1 243.6L216 269.1C215.4 269.4 214.6 269.1 214.3 268.4L179.7 187C179.4 186.4 179.7 185.6 180.4 185.3L240.5 159.8C241.1 159.5 241.9 159.8 242.2 160.5L276.8 241.9C277 242.6 276.7 243.4 276.1 243.6Z" fill="white"/>
<path d="M215.4 270.8C215 270.8 214.7 270.7 214.4 270.6C213.7 270.3 213.2 269.8 212.9 269.1L178.3 187.7C177.7 186.3 178.4 184.7 179.8 184.1L239.9 158.6C240.6 158.3 241.3 158.3 242 158.6C242.7 158.9 243.2 159.4 243.5 160.1L278.1 241.5C278.4 242.2 278.4 242.9 278.1 243.6C277.8 244.3 277.3 244.8 276.6 245.1L216.5 270.6C216.2 270.7 215.8 270.8 215.4 270.8ZM181.2 186.7L215.6 267.7L275.3 242.3L240.9 161.3L181.2 186.7Z" fill="#233863"/>
<path d="M232.3 191.1C231.9 191.1 231.5 190.9 231.4 190.5C231.2 190 231.4 189.4 231.9 189.2L242.2 184.8C242.7 184.6 243.3 184.8 243.5 185.3C243.7 185.8 243.5 186.4 243 186.6L232.7 191C232.6 191 232.5 191.1 232.3 191.1Z" fill="#233863"/>
<path d="M203.9 221.3C203.5 221.3 203.1 221.1 203 220.7C202.8 220.2 203 219.6 203.5 219.4L248.8 200.2C249.3 200 249.9 200.2 250.1 200.7C250.3 201.2 250.1 201.8 249.6 202L204.3 221.2C204.2 221.3 204.1 221.3 203.9 221.3Z" fill="#233863"/>
<path d="M235.7 220.2C235.3 220.2 234.9 220 234.8 219.6C234.6 219.1 234.8 218.5 235.3 218.3L253.3 210.7C253.8 210.5 254.4 210.7 254.6 211.2C254.8 211.7 254.6 212.3 254.1 212.5L236.1 220.1C235.9 220.2 235.8 220.2 235.7 220.2Z" fill="#FFB44F"/>
<path d="M208.4 231.8C208 231.8 207.6 231.6 207.5 231.2C207.3 230.7 207.5 230.1 208 229.9L219 225.2C219.5 225 220.1 225.2 220.3 225.7C220.5 226.2 220.3 226.8 219.8 227L208.8 231.7C208.6 231.7 208.5 231.8 208.4 231.8Z" fill="#FFB44F"/>
<path d="M212.1 244C211.7 244 211.3 243.8 211.2 243.4C211 242.9 211.2 242.3 211.7 242.1L239.6 230.3C240.1 230.1 240.7 230.3 240.9 230.8C241.1 231.3 240.9 231.9 240.4 232.1L212.5 243.9C212.4 244 212.3 244 212.1 244Z" fill="#233863"/>
<path d="M245.3 330.5L180.7 320.7C180 320.6 179.5 319.9 179.6 319.2L192.9 231.8C193 231.1 193.7 230.6 194.4 230.7L259 240.5C259.7 240.6 260.2 241.3 260.1 242L246.8 329.4C246.7 330.1 246 330.6 245.3 330.5Z" fill="#3AAED5"/>
<path d="M245.5 332C245.4 332 245.2 332 245.1 332L180.5 322.2C179.8 322.1 179.1 321.7 178.7 321.1C178.3 320.5 178.1 319.8 178.2 319L191.5 231.6C191.6 230.9 192 230.2 192.6 229.8C193.2 229.4 193.9 229.2 194.7 229.3L259.3 239.1C260 239.2 260.7 239.6 261.1 240.2C261.5 240.8 261.7 241.5 261.6 242.3L248.3 329.7C248.2 330.4 247.8 331.1 247.2 331.5C246.7 331.8 246.1 332 245.5 332ZM181.2 319.2L245.3 328.9L258.5 241.9L194.4 232.2L181.2 319.2Z" fill="#233863"/>
<path d="M215.1 246.3C215.1 246.3 215 246.3 214.9 246.3L202.5 244.4C202 244.3 201.6 243.8 201.7 243.3C201.8 242.8 202.3 242.4 202.8 242.5L215.2 244.4C215.7 244.5 216.1 245 216 245.5C216 245.9 215.6 246.3 215.1 246.3Z" fill="white"/>
<path d="M247.3 264.6C247.3 264.6 247.2 264.6 247.1 264.6L232.9 262.4C232.4 262.3 232 261.8 232.1 261.3C232.2 260.8 232.7 260.4 233.2 260.5L247.4 262.7C247.9 262.8 248.3 263.3 248.2 263.8C248.2 264.2 247.8 264.6 247.3 264.6Z" fill="#233863"/>
<path d="M223 260.9C223 260.9 222.9 260.9 222.8 260.9L198.5 257.2C198 257.1 197.6 256.6 197.7 256.1C197.8 255.6 198.3 255.2 198.8 255.3L223.1 259C223.6 259.1 224 259.6 223.9 260.1C223.9 260.6 223.5 260.9 223 260.9Z" fill="white"/>
<path d="M223.9 278C223.9 278 223.8 278 223.7 278L196 273.8C195.5 273.7 195.1 273.2 195.2 272.7C195.3 272.2 195.8 271.8 196.3 271.9L224 276C224.5 276.1 224.9 276.6 224.8 277.1C224.8 277.6 224.4 278 223.9 278Z" fill="#233863"/>
<path d="M242.4 296.7C242.4 296.7 242.3 296.7 242.2 296.7L193.6 289.3C193.1 289.2 192.7 288.7 192.8 288.2C192.9 287.7 193.4 287.3 193.9 287.4L242.5 294.8C243 294.9 243.4 295.4 243.3 295.9C243.3 296.3 242.9 296.7 242.4 296.7Z" fill="white"/>
<path d="M218.6 310C218.6 310 218.5 310 218.4 310L191.1 305.9C190.6 305.8 190.2 305.3 190.3 304.8C190.4 304.3 190.9 303.9 191.4 304L218.7 308.1C219.2 308.2 219.6 308.7 219.5 309.2C219.6 309.7 219.1 310 218.6 310Z" fill="white"/>
<path d="M256 394.9L141 395.1C135 395.1 130 390.2 130 384.1L129.8 306.5C129.8 300.5 134.7 295.5 140.8 295.5L255.8 295.3C261.8 295.3 266.8 300.2 266.8 306.3L267 383.9C267 390 262.1 394.9 256 394.9Z" fill="white"/>
<path d="M141 396.2C137.8 396.2 134.8 395 132.6 392.7C130.3 390.4 129.1 387.4 129.1 384.2L128.9 306.6C128.9 303.4 130.1 300.4 132.4 298.1C134.7 295.8 137.7 294.6 140.9 294.6L255.9 294.4C262.5 294.4 267.9 299.8 267.9 306.4L268.1 384C268.1 390.6 262.7 396 256.1 396V395V396L141 396.2ZM255.8 296.3L140.8 296.5C138.1 296.5 135.6 297.6 133.8 299.4C131.9 301.3 130.9 303.8 130.9 306.5L131.1 384.1C131.1 386.8 132.2 389.3 134 391.1C135.9 393 138.4 394 141 394L256 393.8C261.5 393.8 266 389.3 266 383.8L265.8 306.2C265.8 300.8 261.3 296.3 255.8 296.3Z" fill="#233863"/>
<path d="M257 276.6L228 276.7C222.6 276.7 218.2 281.1 218.2 286.5V300.4L144.7 300.6C136.5 300.6 129.8 307.4 129.8 315.6L129.9 385.3C129.9 393.5 136.7 400.2 144.9 400.2L252 400C260.2 400 266.9 393.2 266.9 385L266.8 316.7V315.3L266.7 286.5C266.8 281 262.3 276.6 257 276.6Z" fill="#3D85FD"/>
<path d="M144.9 401.6C135.8 401.6 128.5 394.2 128.5 385.2L128.4 315.5C128.4 306.4 135.7 299 144.8 299L216.8 298.8V286.4C216.8 283.4 218 280.6 220.1 278.4C222.2 276.3 225.1 275.1 228.1 275.1L257.1 275C263.3 275 268.4 280 268.4 286.3L268.6 384.9C268.6 394 261.3 401.4 252.2 401.4L144.9 401.6C145 401.6 145 401.6 144.9 401.6ZM257 278.1L228 278.2C225.8 278.2 223.7 279.1 222.2 280.6C220.6 282.2 219.8 284.3 219.8 286.5V300.4C219.8 300.8 219.6 301.2 219.4 301.5C219.1 301.8 218.7 301.9 218.3 301.9L144.8 302.1C137.4 302.1 131.4 308.2 131.4 315.6L131.5 385.3C131.5 392.7 137.5 398.7 144.9 398.7L252 398.5C259.4 398.5 265.4 392.4 265.4 385L265.2 286.4C265.3 281.8 261.5 278.1 257 278.1Z" fill="#233863"/>
<path opacity="0.12" d="M256 287.8L230 287.9C225.2 287.9 221.3 291.9 221.3 296.7V309.1L155.6 309.2C148.2 309.2 142.2 315.2 142.3 322.6L142.4 385C142.4 392.4 148.4 398.4 155.8 398.3L251.6 398.1C259 398.1 265 392.1 264.9 384.7L264.8 323.6V322.3L264.7 296.5C264.7 291.7 260.8 287.7 256 287.8Z" fill="white"/>
<path d="M252.6 390.4C255.306 390.4 257.5 388.206 257.5 385.5C257.5 382.794 255.306 380.6 252.6 380.6C249.894 380.6 247.7 382.794 247.7 385.5C247.7 388.206 249.894 390.4 252.6 390.4Z" fill="white"/>
<path d="M260.9 303C260.3 303 259.9 302.6 259.9 302V288.7C259.9 286.5 257.9 284.7 255.5 284.7H245.8C245.2 284.7 244.8 284.3 244.8 283.7C244.8 283.1 245.2 282.7 245.8 282.7H255.5C259 282.7 261.9 285.4 261.9 288.7V302C261.9 302.6 261.4 303 260.9 303Z" fill="white"/>
<path d="M189.4 342.4C188.8 342.4 188.1 342.1 187.6 341.7C186.6 340.7 186.6 339.1 187.6 338.2L199.4 326.6L211 338.2C212 339.2 212 340.8 211 341.7C210 342.7 208.4 342.7 207.5 341.7L199.4 333.6L191.2 341.7C190.6 342.2 190 342.4 189.4 342.4Z" fill="white"/>
<path d="M199.3 357.9C197.9 357.9 196.8 356.8 196.8 355.4V330.1C196.8 328.7 197.9 327.6 199.3 327.6C200.7 327.6 201.8 328.7 201.8 330.1V355.4C201.8 356.8 200.6 357.9 199.3 357.9Z" fill="white"/>
<path d="M217.7 369.9H180.6C177.6 369.9 175.2 367.5 175.2 364.5V351C175.2 349.6 176.3 348.5 177.7 348.5C179.1 348.5 180.2 349.6 180.2 351V364.5C180.2 364.7 180.4 364.9 180.6 364.9H217.7C218.1 364.9 218.4 364.6 218.4 364.2V351C218.4 349.6 219.5 348.5 220.9 348.5C222.3 348.5 223.4 349.6 223.4 351V364.2C223.3 367.4 220.8 369.9 217.7 369.9Z" fill="white"/>
<path d="M529 382.5L422 382.7C413.8 382.7 407 376 407 367.8L406.9 298.1C406.9 289.9 413.6 283.1 421.8 283.1L528.9 282.9C537.1 282.9 543.9 289.6 543.9 297.8L544 367.5C544 375.7 537.3 382.5 529 382.5Z" fill="#3D85FD"/>
<path d="M421.9 384.2C417.5 384.2 413.4 382.5 410.3 379.4C407.2 376.3 405.5 372.2 405.4 367.8L405.3 298.1C405.3 289 412.6 281.6 421.7 281.6L528.8 281.4C537.9 281.4 545.2 288.8 545.2 297.8L545.3 367.5C545.3 376.6 538 384 528.9 384L421.9 384.2ZM528.9 284.4C528.9 284.4 528.8 284.4 528.9 284.4L421.8 284.6C414.4 284.6 408.4 290.7 408.4 298.1L408.5 367.8C408.5 371.4 409.9 374.7 412.5 377.3C415 379.8 418.4 381.2 422 381.2L529 381C532.6 381 535.9 379.6 538.5 377C541 374.4 542.4 371.1 542.4 367.5L542.3 297.8C542.3 290.4 536.3 284.4 528.9 284.4Z" fill="#233863"/>
<path d="M529 382.5L422 382.7C413.8 382.7 407 376 407 367.8L406.9 298.1C406.9 289.9 413.6 283.1 421.8 283.1L528.9 282.9C537.1 282.9 543.9 289.6 543.9 297.8L544 367.5C544 375.7 537.3 382.5 529 382.5Z" fill="#FFB44F"/>
<path d="M421.9 384.2C417.5 384.2 413.4 382.5 410.3 379.4C407.2 376.3 405.5 372.2 405.4 367.8L405.3 298.1C405.3 289 412.6 281.6 421.7 281.6L528.8 281.4C537.9 281.4 545.2 288.8 545.2 297.8L545.3 367.5C545.3 376.6 538 384 528.9 384L421.9 384.2ZM528.9 284.4C528.9 284.4 528.8 284.4 528.9 284.4L421.8 284.6C414.4 284.6 408.4 290.7 408.4 298.1L408.5 367.8C408.5 371.4 409.9 374.7 412.5 377.3C415 379.8 418.4 381.2 422 381.2L529 381C532.6 381 535.9 379.6 538.5 377C541 374.4 542.4 371.1 542.4 367.5L542.3 297.8C542.3 290.4 536.3 284.4 528.9 284.4Z" fill="#233863"/>
<path opacity="0.24" d="M529 382.5L422 382.7C413.8 382.7 407 376 407 367.8L406.9 298.1C406.9 289.9 413.6 283.1 421.8 283.1L528.9 282.9C537.1 282.9 543.9 289.6 543.9 297.8L544 367.5C544 375.7 537.3 382.5 529 382.5Z" fill="#233863"/>
<path d="M533 388.7L418 388.9C412 388.9 407 384 407 377.9L406.8 300.3C406.8 294.3 411.7 289.3 417.8 289.3L532.8 289.1C538.8 289.1 543.8 294 543.8 300.1L544 377.7C544 383.7 539 388.7 533 388.7Z" fill="white"/>
<path d="M418 389.9C411.4 389.9 406 384.5 406 377.9L405.8 300.3C405.8 293.7 411.2 288.3 417.8 288.3L532.8 288.1C539.4 288.1 544.8 293.5 544.8 300.1L545 377.7C545 384.3 539.6 389.7 533 389.7L418 389.9ZM533 387.7V388.7V387.7C538.5 387.7 543 383.2 543 377.7L542.8 300.1C542.8 294.6 538.3 290.1 532.8 290.1L417.8 290.3C412.3 290.3 407.8 294.8 407.8 300.3L408 378C408 383.5 412.5 388 418 388L533 387.7Z" fill="#233863"/>
<path d="M533 394.9L418 395.1C412 395.1 407 390.2 407 384.1L406.8 306.5C406.8 300.5 411.7 295.5 417.8 295.5L532.8 295.3C538.8 295.3 543.8 300.2 543.8 306.3L544 383.9C544 390 539 394.9 533 394.9Z" fill="white"/>
<path d="M418 396.2C411.4 396.2 406 390.8 406 384.2L405.8 306.6C405.8 303.4 407 300.4 409.3 298.1C411.6 295.8 414.6 294.6 417.8 294.6L532.8 294.4C539.4 294.4 544.8 299.8 544.8 306.4L545 384C545 390.6 539.6 396 533 396V395V396L418 396.2ZM532.8 296.3L417.8 296.5C415.1 296.5 412.6 297.6 410.8 299.4C408.9 301.3 407.9 303.8 407.9 306.5L408.1 384.1C408.1 389.6 412.6 394.1 418.1 394.1L533.1 393.9C538.6 393.9 543.1 389.4 543.1 383.9L542.9 306.3C542.8 300.8 538.3 296.3 532.8 296.3Z" fill="#233863"/>
<path d="M533.9 276.6L504.9 276.7C499.5 276.7 495.1 281.1 495.1 286.5V300.4L421.6 300.6C413.4 300.6 406.7 307.4 406.7 315.6L406.8 385.3C406.8 393.5 413.6 400.2 421.8 400.2L528.9 400C537.1 400 543.8 393.2 543.8 385L543.7 316.7V315.3L543.6 286.5C543.7 281 539.3 276.6 533.9 276.6Z" fill="#FFB44F"/>
<path d="M421.9 401.6C412.8 401.6 405.5 394.2 405.5 385.2L405.4 315.5C405.4 306.4 412.7 299 421.8 299L493.8 298.8V286.4C493.8 283.4 495 280.6 497.1 278.4C499.2 276.3 502.1 275.1 505.1 275.1L534.1 275C537.1 275 539.9 276.2 542 278.3C544.1 280.4 545.3 283.3 545.3 286.3L545.5 384.9C545.5 389.3 543.8 393.4 540.7 396.5C537.6 399.6 533.5 401.3 529.1 401.4L421.9 401.6ZM533.9 278.1L504.9 278.2C502.7 278.2 500.6 279.1 499.1 280.6C497.5 282.2 496.7 284.3 496.7 286.5V300.4C496.7 301.2 496 301.9 495.2 301.9L421.7 302.1C414.3 302.1 408.3 308.2 408.3 315.6L408.4 385.3C408.4 392.7 414.4 398.7 421.8 398.7L528.9 398.5C532.5 398.5 535.8 397.1 538.4 394.5C540.9 391.9 542.3 388.6 542.3 385L542.1 286.4C542.1 284.2 541.2 282.1 539.7 280.6C538.2 279 536.2 278.1 533.9 278.1C534 278.1 533.9 278.1 533.9 278.1Z" fill="#233863"/>
<path opacity="0.12" d="M532.6 287.8L506.6 287.9C501.8 287.9 497.9 291.9 497.9 296.7V309.1L432.2 309.2C424.8 309.2 418.8 315.2 418.9 322.6L419 385C419 392.4 425 398.4 432.4 398.3L528.2 398.1C535.6 398.1 541.6 392.1 541.5 384.7L541.4 323.6V322.3L541.3 296.5C541.4 291.7 537.5 287.7 532.6 287.8Z" fill="white"/>
<path d="M529.3 390.4C532.006 390.4 534.2 388.206 534.2 385.5C534.2 382.794 532.006 380.6 529.3 380.6C526.594 380.6 524.4 382.794 524.4 385.5C524.4 388.206 526.594 390.4 529.3 390.4Z" fill="white"/>
<path d="M537.6 303C537 303 536.6 302.6 536.6 302V288.7C536.6 286.5 534.6 284.7 532.2 284.7H522.5C521.9 284.7 521.5 284.3 521.5 283.7C521.5 283.1 521.9 282.7 522.5 282.7H532.2C535.7 282.7 538.6 285.4 538.6 288.7V302C538.6 302.6 538.1 303 537.6 303Z" fill="white"/>
<path d="M479.2 358.9L467.6 347.3C466.6 346.3 466.6 344.7 467.6 343.8C468.6 342.8 470.2 342.8 471.1 343.8L479.2 351.9L487.4 343.8C488.4 342.8 490 342.8 490.9 343.8C491.9 344.8 491.9 346.4 490.9 347.3L479.2 358.9Z" fill="white"/>
<path d="M479.3 357.9C477.9 357.9 476.8 356.8 476.8 355.4V330.1C476.8 328.7 477.9 327.6 479.3 327.6C480.7 327.6 481.8 328.7 481.8 330.1V355.4C481.8 356.8 480.7 357.9 479.3 357.9Z" fill="white"/>
<path d="M497.7 369.9H460.6C457.6 369.9 455.2 367.5 455.2 364.5V351C455.2 349.6 456.3 348.5 457.7 348.5C459.1 348.5 460.2 349.6 460.2 351V364.5C460.2 364.7 460.4 364.9 460.6 364.9H497.7C498.1 364.9 498.4 364.6 498.4 364.2V351C498.4 349.6 499.5 348.5 500.9 348.5C502.3 348.5 503.4 349.6 503.4 351V364.2C503.4 367.4 500.9 369.9 497.7 369.9Z" fill="white"/>
<path d="M467.2 267.1L417.8 231.5C417.2 231.1 417.1 230.3 417.5 229.7L465.7 162.8C466.1 162.2 466.9 162.1 467.5 162.5L516.9 198.1C517.5 198.5 517.6 199.3 517.2 199.9L469 266.8C468.6 267.4 467.8 267.5 467.2 267.1Z" fill="white"/>
<path d="M468 268.8C467.4 268.8 466.9 268.6 466.4 268.3L417 232.7C415.8 231.8 415.5 230.1 416.4 228.8L464.6 161.9C465 161.3 465.7 160.9 466.4 160.8C467.1 160.7 467.9 160.9 468.5 161.3L517.9 196.9C519.1 197.8 519.4 199.5 518.5 200.8L470.3 267.7C469.9 268.3 469.2 268.7 468.5 268.8C468.3 268.8 468.1 268.8 468 268.8ZM418.9 230.4L467.9 265.7L515.9 199.1L466.9 163.8L418.9 230.4Z" fill="#233863"/>
<path d="M467.2 267.1L417.8 231.5C417.2 231.1 417.1 230.3 417.5 229.7L465.7 162.8C466.1 162.2 466.9 162.1 467.5 162.5L516.9 198.1C517.5 198.5 517.6 199.3 517.2 199.9L469 266.8C468.6 267.4 467.8 267.5 467.2 267.1Z" fill="#3AAED5"/>
<path d="M468 268.8C467.4 268.8 466.9 268.6 466.4 268.3L417 232.7C415.8 231.8 415.5 230.1 416.4 228.8L464.6 161.9C465 161.3 465.7 160.9 466.4 160.8C467.1 160.7 467.9 160.9 468.5 161.3L517.9 196.9C519.1 197.8 519.4 199.5 518.5 200.8L470.3 267.7C469.9 268.3 469.2 268.7 468.5 268.8C468.3 268.8 468.1 268.8 468 268.8ZM418.9 230.4L467.9 265.7L515.9 199.1L466.9 163.8L418.9 230.4Z" fill="#233863"/>
<path d="M497.5 213.4C497.3 213.4 497.1 213.3 496.9 213.2L488.4 207.1C488 206.8 487.9 206.2 488.2 205.7C488.5 205.3 489.1 205.1 489.6 205.5L498.1 211.6C498.5 211.9 498.6 212.5 498.3 213C498.1 213.2 497.8 213.4 497.5 213.4Z" fill="#233863"/>
<path d="M488.3 226C488.1 226 487.9 225.9 487.7 225.8L450.4 199C450 198.7 449.9 198.1 450.2 197.6C450.5 197.2 451.1 197 451.6 197.4L488.9 224.3C489.3 224.6 489.4 225.2 489.1 225.7C488.9 225.9 488.6 226 488.3 226Z" fill="#233863"/>
<path d="M482.1 234.7C481.9 234.7 481.7 234.6 481.5 234.5L466.7 223.8C466.3 223.5 466.2 222.9 466.5 222.4C466.8 222 467.4 221.9 467.9 222.2L482.7 232.9C483.1 233.2 483.2 233.8 482.9 234.3C482.7 234.5 482.4 234.7 482.1 234.7Z" fill="#FFB44F"/>
<path d="M453.9 214.3C453.7 214.3 453.5 214.2 453.3 214.1L444.2 207.6C443.8 207.3 443.7 206.7 444 206.2C444.3 205.8 444.9 205.6 445.4 206L454.5 212.5C454.9 212.8 455 213.4 454.7 213.9C454.5 214.2 454.2 214.3 453.9 214.3Z" fill="#FFB44F"/>
<path d="M459.8 233.3C459.6 233.3 459.4 233.2 459.2 233.1L436.2 216.5C435.8 216.2 435.7 215.6 436 215.1C436.3 214.7 436.9 214.5 437.4 214.9L460.4 231.5C460.8 231.8 460.9 232.4 460.6 232.9C460.4 233.1 460.1 233.3 459.8 233.3Z" fill="#233863"/>
<path d="M472.1 259L411.1 235.5C410.4 235.2 410.1 234.5 410.4 233.8L442.2 151.3C442.5 150.6 443.2 150.3 443.9 150.6L504.9 174.1C505.6 174.4 505.9 175.1 505.6 175.8L473.8 258.3C473.5 258.9 472.8 259.3 472.1 259Z" fill="white"/>
<path d="M472.6 260.6C472.3 260.6 471.9 260.5 471.6 260.4L410.6 236.9C409.2 236.3 408.5 234.7 409 233.3L440.8 150.8C441.4 149.4 443 148.7 444.4 149.2L505.4 172.7C506.8 173.2 507.5 174.9 507 176.3L475.2 258.8C474.7 259.9 473.7 260.6 472.6 260.6ZM411.9 234.2L472.5 257.5L504.1 175.4L443.5 152.1L411.9 234.2Z" fill="#233863"/>
<path d="M472.1 259L411.1 235.5C410.4 235.2 410.1 234.5 410.4 233.8L442.2 151.3C442.5 150.6 443.2 150.3 443.9 150.6L504.9 174.1C505.6 174.4 505.9 175.1 505.6 175.8L473.8 258.3C473.5 258.9 472.8 259.3 472.1 259Z" fill="white"/>
<path d="M472.6 260.6C472.3 260.6 471.9 260.5 471.6 260.4L410.6 236.9C409.2 236.3 408.5 234.7 409 233.3L440.8 150.8C441.4 149.4 443 148.7 444.4 149.2L505.4 172.7C506.8 173.2 507.5 174.9 507 176.3L475.2 258.8C474.7 259.9 473.7 260.6 472.6 260.6ZM411.9 234.2L472.5 257.5L504.1 175.4L443.5 152.1L411.9 234.2Z" fill="#233863"/>
<path d="M454.6 181.2C454.5 181.2 454.4 181.2 454.2 181.1L443.7 177.1C443.2 176.9 442.9 176.3 443.1 175.8C443.3 175.3 443.9 175 444.4 175.2L454.9 179.2C455.4 179.4 455.7 180 455.5 180.5C455.4 181 455 181.2 454.6 181.2Z" fill="#233863"/>
<path d="M482.4 210.7C482.3 210.7 482.2 210.7 482 210.6L436.1 193C435.6 192.8 435.3 192.2 435.5 191.7C435.7 191.2 436.3 190.9 436.8 191.1L482.7 208.8C483.2 209 483.5 209.6 483.3 210.1C483.2 210.5 482.8 210.7 482.4 210.7Z" fill="#233863"/>
<path d="M478.3 221.4C478.2 221.4 478.1 221.4 477.9 221.3L459.7 214.3C459.2 214.1 458.9 213.5 459.1 213C459.3 212.5 459.9 212.2 460.4 212.4L478.6 219.4C479.1 219.6 479.4 220.2 479.2 220.7C479.1 221.1 478.7 221.4 478.3 221.4Z" fill="#FFB44F"/>
<path d="M443.6 208C443.5 208 443.4 208 443.2 207.9L432 203.6C431.5 203.4 431.2 202.8 431.4 202.3C431.6 201.8 432.2 201.5 432.7 201.7L443.9 206C444.4 206.2 444.7 206.8 444.5 207.3C444.4 207.8 444 208 443.6 208Z" fill="#FFB44F"/>
<path d="M454.9 226C454.8 226 454.7 226 454.5 225.9L426.2 215C425.7 214.8 425.4 214.2 425.6 213.7C425.8 213.2 426.4 212.9 426.9 213.1L455.2 224C455.7 224.2 456 224.8 455.8 225.3C455.7 225.7 455.3 226 454.9 226Z" fill="#233863"/>
<path d="M359.5 222.8L287.3 198.1C286.5 197.8 286 196.9 286.3 196.1L320 97.5C320.3 96.7 321.2 96.2 322 96.5L394.2 121.2C395 121.5 395.5 122.4 395.2 123.2L361.5 221.8C361.2 222.7 360.3 223.1 359.5 222.8Z" fill="#FFB44F"/>
<path d="M360 224.4C359.7 224.4 359.3 224.3 359 224.2L286.8 199.5C286 199.2 285.4 198.7 285 197.9C284.6 197.2 284.6 196.3 284.8 195.5L318.5 97C318.8 96.2 319.3 95.6 320.1 95.2C320.8 94.8 321.7 94.8 322.5 95.1L394.7 119.8C395.5 120.1 396.1 120.6 396.5 121.4C396.9 122.1 396.9 123 396.6 123.8L362.9 222.4C362.5 223.6 361.3 224.4 360 224.4ZM321.5 98C321.4 98 321.4 98 321.5 98L287.7 196.7V196.8L359.9 221.5H360L393.7 122.9C393.7 122.9 393.7 122.8 393.6 122.8L321.5 98Z" fill="#233863"/>
<path d="M374.5 216.2L298.4 210.1C297.5 210 296.9 209.3 297 208.4L305.3 104.5C305.4 103.6 306.1 103 307 103.1L383.1 109.2C384 109.3 384.6 110 384.5 110.9L376.2 214.8C376.1 215.7 375.3 216.3 374.5 216.2Z" fill="white"/>
<path d="M374.6 217.8C374.5 217.8 374.4 217.8 374.3 217.8L298.2 211.7C297.4 211.6 296.6 211.3 296.1 210.6C295.6 210 295.3 209.2 295.4 208.4L303.7 104.5C303.8 102.8 305.3 101.5 307 101.7L383.1 107.8C384.8 107.9 386.1 109.4 385.9 111.1L377.6 215C377.5 215.8 377.2 216.6 376.5 217.1C376 217.5 375.3 217.8 374.6 217.8ZM306.9 104.6C306.8 104.6 306.8 104.6 306.9 104.6L298.5 208.6C298.5 208.6 298.5 208.7 298.6 208.7L374.7 214.8C374.7 214.8 374.8 214.8 374.8 214.7L383.1 110.8C383.1 110.8 383.1 110.7 383 110.7L306.9 104.6Z" fill="#233863"/>
<path d="M371.9 126.7C371.9 126.7 371.8 126.7 371.9 126.7L352.6 125.2C352 125.2 351.6 124.7 351.7 124.1C351.7 123.6 352.2 123.1 352.8 123.2L372.1 124.7C372.6 124.7 373.1 125.2 373 125.8C372.9 126.3 372.4 126.7 371.9 126.7Z" fill="#FFB44F"/>
<path d="M371.4 132.9L352.1 131.4C351.6 131.4 351.1 130.9 351.2 130.3C351.2 129.8 351.7 129.3 352.3 129.4L371.6 130.9C372.1 130.9 372.6 131.4 372.5 132C372.4 132.5 371.9 132.9 371.4 132.9Z" fill="#FFB44F"/>
<path d="M326.3 199C326.3 199 326.2 199 326.3 199L307 197.5C306.5 197.5 306 197 306.1 196.4C306.1 195.9 306.6 195.4 307.2 195.5L326.5 197C327 197 327.5 197.5 327.4 198.1C327.3 198.6 326.8 199 326.3 199Z" fill="#FFB44F"/>
<path d="M327.1 165.6L309.9 164.2C309.4 164.2 308.9 163.7 309 163.1C309 162.6 309.5 162.1 310.1 162.2L327.2 163.6C327.7 163.6 328.2 164.1 328.1 164.7C328.1 165.2 327.7 165.6 327.1 165.6Z" fill="#233863"/>
<path d="M337.6 189.4L308.1 187C307.6 187 307.1 186.5 307.2 185.9C307.2 185.4 307.7 184.9 308.3 185L337.8 187.4C338.3 187.4 338.8 187.9 338.7 188.5C338.6 189 338.2 189.4 337.6 189.4Z" fill="#233863"/>
<path d="M331.4 177.4C331.4 177.4 331.3 177.4 331.4 177.4L309 175.6C308.5 175.6 308 175.1 308.1 174.5C308.1 174 308.6 173.5 309.2 173.6L331.5 175.4C332.1 175.4 332.5 175.9 332.4 176.5C332.4 177 331.9 177.4 331.4 177.4Z" fill="#233863"/>
<path d="M368.4 158.3L310.6 153.7C310.1 153.7 309.6 153.2 309.7 152.6C309.7 152.1 310.2 151.6 310.8 151.7L368.5 156.3C369 156.3 369.5 156.8 369.4 157.4C369.4 157.9 369 158.3 368.4 158.3Z" fill="#233863"/>
<path d="M366.1 180.1C366 180.1 366 180.1 366.1 180.1L338.5 177.9C338 177.9 337.5 177.4 337.6 176.8C337.6 176.3 338.1 175.8 338.7 175.9L366.3 178.1C366.8 178.1 367.3 178.6 367.2 179.2C367 179.7 366.6 180.1 366.1 180.1Z" fill="#233863"/>
<path d="M368.9 168.9C368.9 168.9 368.8 168.9 368.9 168.9L333.5 165.9C332.9 165.9 332.5 165.4 332.6 164.8C332.6 164.2 333.1 163.8 333.7 163.9L369 166.9C369.6 166.9 370 167.4 369.9 168C369.8 168.5 369.4 168.9 368.9 168.9Z" fill="#233863"/>
</g>
<defs>
<clipPath id="clip0">
<rect width="676.2" height="408" fill="white"/>
</clipPath>
</defs>
</svg>
