<svg width="152" height="152" viewBox="0 0 152 152" fill="none" xmlns="http://www.w3.org/2000/svg">
<path fill-rule="evenodd" clip-rule="evenodd" d="M8 4C8 6.20914 6.20914 8 4 8C1.79086 8 0 6.20914 0 4C0 1.79086 1.79086 0 4 0C6.20914 0 8 1.79086 8 4ZM32 4C32 6.20914 30.2091 8 28 8C25.7909 8 24 6.20914 24 4C24 1.79086 25.7909 0 28 0C30.2091 0 32 1.79086 32 4ZM52 8C54.2091 8 56 6.20914 56 4C56 1.79086 54.2091 0 52 0C49.7909 0 48 1.79086 48 4C48 6.20914 49.7909 8 52 8ZM80 4C80 6.20914 78.2091 8 76 8C73.7909 8 72 6.20914 72 4C72 1.79086 73.7909 0 76 0C78.2091 0 80 1.79086 80 4ZM100 8C102.209 8 104 6.20914 104 4C104 1.79086 102.209 0 100 0C97.7909 0 96 1.79086 96 4C96 6.20914 97.7909 8 100 8ZM128 4C128 6.20914 126.209 8 124 8C121.791 8 120 6.20914 120 4C120 1.79086 121.791 0 124 0C126.209 0 128 1.79086 128 4ZM148 8C150.209 8 152 6.20914 152 4C152 1.79086 150.209 0 148 0C145.791 0 144 1.79086 144 4C144 6.20914 145.791 8 148 8ZM8 52C8 54.2091 6.20914 56 4 56C1.79086 56 0 54.2091 0 52C0 49.7909 1.79086 48 4 48C6.20914 48 8 49.7909 8 52ZM32 52C32 54.2091 30.2091 56 28 56C25.7909 56 24 54.2091 24 52C24 49.7909 25.7909 48 28 48C30.2091 48 32 49.7909 32 52ZM52 56C54.2091 56 56 54.2091 56 52C56 49.7909 54.2091 48 52 48C49.7909 48 48 49.7909 48 52C48 54.2091 49.7909 56 52 56ZM80 52C80 54.2091 78.2091 56 76 56C73.7909 56 72 54.2091 72 52C72 49.7909 73.7909 48 76 48C78.2091 48 80 49.7909 80 52ZM100 56C102.209 56 104 54.2091 104 52C104 49.7909 102.209 48 100 48C97.7909 48 96 49.7909 96 52C96 54.2091 97.7909 56 100 56ZM128 52C128 54.2091 126.209 56 124 56C121.791 56 120 54.2091 120 52C120 49.7909 121.791 48 124 48C126.209 48 128 49.7909 128 52ZM148 56C150.209 56 152 54.2091 152 52C152 49.7909 150.209 48 148 48C145.791 48 144 49.7909 144 52C144 54.2091 145.791 56 148 56ZM4 32C6.20914 32 8 30.2091 8 28C8 25.7909 6.20914 24 4 24C1.79086 24 0 25.7909 0 28C0 30.2091 1.79086 32 4 32ZM28 32C30.2091 32 32 30.2091 32 28C32 25.7909 30.2091 24 28 24C25.7909 24 24 25.7909 24 28C24 30.2091 25.7909 32 28 32ZM56 28C56 30.2091 54.2091 32 52 32C49.7909 32 48 30.2091 48 28C48 25.7909 49.7909 24 52 24C54.2091 24 56 25.7909 56 28ZM76 32C78.2091 32 80 30.2091 80 28C80 25.7909 78.2091 24 76 24C73.7909 24 72 25.7909 72 28C72 30.2091 73.7909 32 76 32ZM104 28C104 30.2091 102.209 32 100 32C97.7909 32 96 30.2091 96 28C96 25.7909 97.7909 24 100 24C102.209 24 104 25.7909 104 28ZM124 32C126.209 32 128 30.2091 128 28C128 25.7909 126.209 24 124 24C121.791 24 120 25.7909 120 28C120 30.2091 121.791 32 124 32ZM152 28C152 30.2091 150.209 32 148 32C145.791 32 144 30.2091 144 28C144 25.7909 145.791 24 148 24C150.209 24 152 25.7909 152 28ZM8 76C8 78.2091 6.20914 80 4 80C1.79086 80 0 78.2091 0 76C0 73.7909 1.79086 72 4 72C6.20914 72 8 73.7909 8 76ZM32 76C32 78.2091 30.2091 80 28 80C25.7909 80 24 78.2091 24 76C24 73.7909 25.7909 72 28 72C30.2091 72 32 73.7909 32 76ZM52 80C54.2091 80 56 78.2091 56 76C56 73.7909 54.2091 72 52 72C49.7909 72 48 73.7909 48 76C48 78.2091 49.7909 80 52 80ZM80 76C80 78.2091 78.2091 80 76 80C73.7909 80 72 78.2091 72 76C72 73.7909 73.7909 72 76 72C78.2091 72 80 73.7909 80 76ZM100 80C102.209 80 104 78.2091 104 76C104 73.7909 102.209 72 100 72C97.7909 72 96 73.7909 96 76C96 78.2091 97.7909 80 100 80ZM128 76C128 78.2091 126.209 80 124 80C121.791 80 120 78.2091 120 76C120 73.7909 121.791 72 124 72C126.209 72 128 73.7909 128 76ZM148 80C150.209 80 152 78.2091 152 76C152 73.7909 150.209 72 148 72C145.791 72 144 73.7909 144 76C144 78.2091 145.791 80 148 80ZM4 104C6.20914 104 8 102.209 8 100C8 97.7909 6.20914 96 4 96C1.79086 96 0 97.7909 0 100C0 102.209 1.79086 104 4 104ZM28 104C30.2091 104 32 102.209 32 100C32 97.7909 30.2091 96 28 96C25.7909 96 24 97.7909 24 100C24 102.209 25.7909 104 28 104ZM56 100C56 102.209 54.2091 104 52 104C49.7909 104 48 102.209 48 100C48 97.7909 49.7909 96 52 96C54.2091 96 56 97.7909 56 100ZM76 104C78.2091 104 80 102.209 80 100C80 97.7909 78.2091 96 76 96C73.7909 96 72 97.7909 72 100C72 102.209 73.7909 104 76 104ZM104 100C104 102.209 102.209 104 100 104C97.7909 104 96 102.209 96 100C96 97.7909 97.7909 96 100 96C102.209 96 104 97.7909 104 100ZM124 104C126.209 104 128 102.209 128 100C128 97.7909 126.209 96 124 96C121.791 96 120 97.7909 120 100C120 102.209 121.791 104 124 104ZM152 100C152 102.209 150.209 104 148 104C145.791 104 144 102.209 144 100C144 97.7909 145.791 96 148 96C150.209 96 152 97.7909 152 100ZM4 152C6.20914 152 8 150.209 8 148C8 145.791 6.20914 144 4 144C1.79086 144 0 145.791 0 148C0 150.209 1.79086 152 4 152ZM28 152C30.2091 152 32 150.209 32 148C32 145.791 30.2091 144 28 144C25.7909 144 24 145.791 24 148C24 150.209 25.7909 152 28 152ZM56 148C56 150.209 54.2091 152 52 152C49.7909 152 48 150.209 48 148C48 145.791 49.7909 144 52 144C54.2091 144 56 145.791 56 148ZM76 152C78.2091 152 80 150.209 80 148C80 145.791 78.2091 144 76 144C73.7909 144 72 145.791 72 148C72 150.209 73.7909 152 76 152ZM104 148C104 150.209 102.209 152 100 152C97.7909 152 96 150.209 96 148C96 145.791 97.7909 144 100 144C102.209 144 104 145.791 104 148ZM124 152C126.209 152 128 150.209 128 148C128 145.791 126.209 144 124 144C121.791 144 120 145.791 120 148C120 150.209 121.791 152 124 152ZM152 148C152 150.209 150.209 152 148 152C145.791 152 144 150.209 144 148C144 145.791 145.791 144 148 144C150.209 144 152 145.791 152 148ZM8 124C8 126.209 6.20914 128 4 128C1.79086 128 0 126.209 0 124C0 121.791 1.79086 120 4 120C6.20914 120 8 121.791 8 124ZM32 124C32 126.209 30.2091 128 28 128C25.7909 128 24 126.209 24 124C24 121.791 25.7909 120 28 120C30.2091 120 32 121.791 32 124ZM52 128C54.2091 128 56 126.209 56 124C56 121.791 54.2091 120 52 120C49.7909 120 48 121.791 48 124C48 126.209 49.7909 128 52 128ZM80 124C80 126.209 78.2091 128 76 128C73.7909 128 72 126.209 72 124C72 121.791 73.7909 120 76 120C78.2091 120 80 121.791 80 124ZM100 128C102.209 128 104 126.209 104 124C104 121.791 102.209 120 100 120C97.7909 120 96 121.791 96 124C96 126.209 97.7909 128 100 128ZM128 124C128 126.209 126.209 128 124 128C121.791 128 120 126.209 120 124C120 121.791 121.791 120 124 120C126.209 120 128 121.791 128 124ZM148 128C150.209 128 152 126.209 152 124C152 121.791 150.209 120 148 120C145.791 120 144 121.791 144 124C144 126.209 145.791 128 148 128Z" fill="#C4C4C4" fill-opacity="0.3"/>
</svg>
